<?xml version="1.0" encoding="UTF-8"?>
<svg id="Layer_2" data-name="Layer 2" xmlns="http://www.w3.org/2000/svg" viewBox="0 0 83.6 83.6">
  <defs>
    <style>
      .cls-1 {
        fill: #e6e7e8;
      }

      .cls-2 {
        fill: #2b1c13;
      }
    </style>
  </defs>
  <g id="Layer_1-2" data-name="Layer 1">
    <g>
      <rect class="cls-2" width="83.6" height="83.6" rx="12.11" ry="12.11"/>
      <path class="cls-1" d="M42.48,69.49c-8.02,0-13.94-2.47-19.36-5.92v-9.86c3.82,7.52,8.88,14.55,17.76,14.55,6.91,0,10.48-4.07,10.48-8.75,0-5.18-3.82-9.37-8.14-11.59-10.73-5.55-27.99-6.53-27.99-20.22,0-7.65,6.17-13.56,14.3-13.56,9.25,0,17.39,5.43,21.7,8.88,0-5.3,2.71-8.88,8.02-8.88,3.7,0,7.65,1.6,9.13,3.58-3.21-.86-4.81,.74-4.81,4.93v18.5h-.74c-2.34-7.77-6.54-14.8-11.59-18.13-7.89-5.43-21.83-3.08-21.83,8.75-.12,7.52,6.04,11.47,13.19,14.43,9.62,4.07,21.09,6.17,21.09,12.33,0,7.03-10.61,10.98-21.21,10.98Z"/>
    </g>
  </g>
</svg>