<?xml version="1.0" encoding="UTF-8"?>
<svg id="Layer_2" data-name="Layer 2" xmlns="http://www.w3.org/2000/svg" viewBox="0 0 145.88 144.49">
  <defs>
    <style>
      .cls-1 {
        fill: #242021;
      }

      .cls-2 {
        fill: #3b302b;
      }

      .cls-3 {
        fill: #fdd2ba;
      }

      .cls-4 {
        fill: #1b1717;
      }

      .cls-5 {
        fill: #140f0e;
      }

      .cls-6 {
        fill: #eac9b4;
      }

      .cls-7 {
        fill: #5c4b3b;
      }

      .cls-8 {
        fill: #392c28;
      }

      .cls-9 {
        fill: #2b2423;
      }

      .cls-10 {
        fill: #f2757b;
      }

      .cls-11 {
        fill: #efcdba;
      }
    </style>
  </defs>
  <g id="Layer_1-2" data-name="Layer 1">
    <g>
      <path class="cls-7" d="M74.32,2.05c1.4-.09,2.31-4.21,4.17-.5,2.9-2.95,4.32,1.43,6.64,1.34,6.42,.18,12.43,2.12,18.11,4.84,28.19,13.54,42.28,43.73,39.24,74.6-.23,2.32-.88,4.57-1.69,6.77-.66,1.8-1.68,3.46-3.67,3.75-9.54,1.38-19.11,2.97-28.59-.44-.68-.62-.81-1.39-.61-2.24,1.76-2.2,2.15-4.78,2.1-7.51-.08-4.67,1.24-8.12,6.13-10.24,6.07-2.62,7.84-12.47,3.74-17.69-1.53-1.95-3.61-2.67-6.04-3.05-7.54-1.17-15.01-2.54-18.49-10.82-.75-1.78-2.74-2.43-4.53-2.81-16.39-3.52-32.85-4.72-49.43-1.39-3.37,.68-6.3,1.85-7.38,5.75-.62,2.24-2.89,3.11-4.94,3.86-6.41,2.35-9.17,7.92-11.6,13.56-1.48,3.45-.82,7.18,2.25,9.53,2.81,2.14,3.97,4.66,4.25,8,.21,2.48,1.2,4.84,1.75,7.27,.93,4.13-.25,5.65-4.51,5.46-3.49-.16-6.92-.89-10.33-1.68-3-.7-4.26-2.92-5.15-5.56-5.05-15.06-3.47-29.55,4.05-43.39C22.63,15.87,43.2,4.65,69.37,2.53c1.65-.13,3.31-.21,4.95-.48Z"/>
      <path class="cls-5" d="M74.32,2.05c-3.25,3.09-7.59,2.25-11.36,2.68C33.96,8.03,10.68,28.72,4.85,57.54c-1.83,9.04-.54,18.18,2.81,26.9,.49,1.28,1.18,2.38,2.77,2.52,.65,.06,1.28,.39,1.93,.45,3.94,.37,8.68,3.24,11.52,1.02,3.15-2.46-1.36-6.66-1.23-10.26,.12-3.53-1.23-5.74-4.23-7.95-4.38-3.22-3.79-10.64-.07-15.88,3.3-4.65,6.61-8.98,12.57-10.27,1.16-.25,2.43-1.03,2.3-2.31-.48-4.82,3.14-5.28,6.31-5.99,8.73-1.95,17.46-2.86,26.52-2.15,8.76,.69,17.48,1.16,26.07,3.21,2.17,.52,3.93,1.58,4.63,3.39,3.17,8.07,10.03,9.27,17.35,9.74,2.28,.15,4.26,1.12,5.89,2.46,4.87,4.01,5.53,18.57-3,21.27-5.09,1.61-5.76,4.71-5.64,8.92,.06,2.35-.19,4.63-.97,6.86-.45,1.29-1.2,.69-1.93,.42-1.67-1.41-1.39-3.3-1.1-5.09,.43-2.64,.75-5.28,.65-7.95-.14-3.74,1.22-6.2,4.95-7.67,4.41-1.73,5.73-4.84,4.78-9.16-.57-2.58-1.98-4.22-4.77-4.18-6.56,.09-11.37-4.33-17.01-6.6-.91-.37-1.81-1.23-1.98-2.16-.88-5.13-4.87-5.68-8.9-6.34-13.56-2.2-27.17-1.79-40.79-.9-3.05,.2-5.47,1.23-6.14,4.69-.26,1.31-1.04,2.77-2.32,3.09-5.36,1.3-8.07,5.89-11.86,9.14-3.85,3.29-4.07,7.43-.04,10.46,2.51,1.89,3.52,4.07,3.87,7.09,1.77,15.37,9.45,23.52,24.68,26.55,5.53,1.1,11.28,1.11,16.6,3.3,.61,.25,1.32,.28,1.96,.02,10.28-4.09,21.95-4.19,31.27-11.09,1.6-1.19,3.63-2.59,5.97-1.23,8.57,1.21,17.09,1.22,25.74,.24,4.03-.45,5.54-2.04,6.22-5.47,2.59-13,1.5-25.8-2.97-38.17-7.26-20.05-20.22-34.81-40.83-41.96-3.74-1.3-7.84-1.46-11.3-3.63,1.36-2.54,3.55-1.84,5.67-1.5,18.43,2.93,32.11,13.23,41.77,28.56,11.75,18.63,16.67,38.82,10.88,60.84-.78,2.97-2.09,4.09-4.8,4.66-8.22,1.71-16.53,1.84-24.82,1.33-6.81-.42-6.79-.69-13.08,3.7,1.74,1.94,4.28,2.21,6.36,3.19,9.29,4.38,14.99,11.25,15.7,21.76,.08,1.14,.31,2.64-.28,3.39-3,3.79-2.03,8.14-2.09,12.34-.04,2.76-.75,4.03-3.36,1.74-.74-.95-.95-2.07-1.03-3.23-.16-2.28-.58-4.38-3.58-4.19-2.45,.16-4.55,.84-4.82,3.83-.12,1.3-.26,2.63-1.41,3.55-1.25,1.38-2.44,.62-3.63-.11-.67-4.2-1.34-8.32-3.68-12.12-1.47-2.39-1.13-5.48-.5-8.29,.26-1.18,.89-2.23,2.21-2.41,1.39-.19,2.04,.89,2.64,1.9,.42,.72,.64,1.53,.88,2.32,1.56,5.2,5.83,7.04,10.93,4.81,1.84-.8,2.35-2.09,2.2-3.96-.29-3.58-1.43-6.74-3.8-9.53-4.37-5.14-10.02-8.16-16.33-9.99-4.9-1.42-7.5,.19-9.11,5.21-1.87,5.81-8.32,8.09-13.27,4.7-1.29-.88-2.52-1.9-1.92-3.63,.63-1.8,2.25-1.61,3.78-1.41,1.53,.2,3.19,1.5,4.48-.46,.19-.3,.04-.68-.25-.9-1.83-1.32-3.38-.21-5.09,.44-2.2,.83-3.96,3.38-6.81,1.9-1.94-1.29-4.13-1.66-7.42-2.35,2.63,2.58,5.18,.5,6.91,1.99,1.26,.76,1.44,1.8,.59,2.93-2.01,2.68-4.84,3.44-7.99,3.02-2.83-.38-5.36-1.66-5.61-4.78-.37-4.54-3.42-4.85-6.71-4.71-8.19,.34-16.5,7.74-17.87,15.71-.2,1.16-.6,2.42,.9,2.97,1.25,.46,2.31-.12,3.05-1.13,1.36-1.87,2.14-4.17,4.13-5.57,.97-.68,2.01-1.33,3.2-.57,.97,.62,1.28,1.81,.83,2.65-2.38,4.53-.7,9.08-.42,13.66,.18,2.94,.15,6.05-2.62,8.16-1.39,1.27-2.72,1.99-3.68-.43-1.31-2.07-.24-4.18-.11-6.27,.09-1.38,.07-2.79-1.66-3.1-1.96-.35-2.6,.94-2.79,2.61-.23,2.09,.09,4.38-2.1,5.76-2.37,.98-3.28-.35-2.92-2.32,.84-4.51-.49-8.69-.98-13.04-.84-7.51,2.95-14.1,8.82-19.09,1.75-1.49,3.79-2.65,6.24-4.34-4.69-2.54-8.9-5.33-12.06-9.38-.99-1.27-2.49-.63-3.75-.66-3.32-.06-6.61-.54-9.9-.75-6.48-.42-9.75-4.22-11.83-9.61-4.38-11.31-4.07-22.76-.24-34.1C12.48,20.45,37.09,1.88,66.68,.33c2.71-.14,5.29,.28,7.64,1.72Z"/>
      <path class="cls-10" d="M68.37,110.9c2.45,.27,4.67-.15,6.25-2.23,.86-1.14,1.89-1.83,3.35-1.74,1.72,.11,3.76-1.16,5.07,.78,.77,1.15,.77,2.72-.25,3.73-1.61,1.6-3.57,1.23-5.59,.59-1.23-.39-2.9-2.47-3.79-.45-.84,1.91,1.5,2.66,2.93,3.32,4.83,2.22,10.66-.12,10.29-4.69-.54-6.84,4.74-6.42,8-6.55,10.62-.42,22.85,11.03,24.24,21.5,.44,3.35-.36,5.13-3.88,5.3-1.49,.07-2.98,.16-4.46,.35-4.64,.59-7.89-.4-7.48-6.08,.07-.95-.44-1.93-.69-2.9-.23-.9-.88-1.57-1.73-1.51-.87,.06-1.4,.84-1.44,1.76-.15,3.34-.75,7.4,1.44,9.64,3.5,3.58,2.3,7.2,1.99,11.03-20.91,.28-41.81,1.28-62.71,.58,1.28-4.79,3.08-9.45,.05-14.41-1.16-1.91,.89-4.05,1.46-6.09,.32-1.13,1.83-2.59-.01-3.41-1.4-.62-2.38,.83-3.09,1.94-.71,1.12-1.54,2.31-1.74,3.56-.68,4.11-3.68,3.43-6.13,2.8-3.16-.81-1.3-3.36-.87-4.96,3-11.3,13.46-18.45,23.37-16.29,2.5,.54,4.13,.95,3.6,4.35-.63,4.05,2.63,5.15,5.82,4.91,2.85-.22,6.64-.1,6.05-4.9l-.06,.08Z"/>
      <path class="cls-6" d="M106.25,142.85c.04-.67,.1-1.33,.11-2,.11-5.99,2.71-7.94,8.83-6.84,1.55,.28,1.87,1.12,1.88,2.38,.02,2.16,.01,4.33,.01,6.49-3.61-.01-7.22-.02-10.83-.04Z"/>
      <path class="cls-11" d="M29.58,141.9c.99-2.02,1-4.22,.83-6.34-.26-3.15,1.03-4.07,4.03-3.81,2.95,.26,3.67,1.75,3.16,4.33-.45,2.27-.92,4.54-1.38,6.81-2.06-1.36-4.4-.87-6.64-.99Z"/>
      <path class="cls-3" d="M108.27,91.87c-3.25,.9-6.07,2.68-8.95,4.32-6.29,3.58-13,5.91-20.2,6.58-2.74,.26-5.26,.59-7.18,2.81-.61,.7-1.47,1.85-2.46,.94-5.19-4.76-11.98-3.05-17.97-4.44-16.15-3.73-23.55-11.78-25.05-28.43-.19-2.09,.15-4.35-2.92-4.98-3.14-.65-4.09-3.21-4-6.1,.1-3.1,.87-6.12,4.09-7.37,1.86-.72,3.46-.6,2.2-3.52-.77-1.78,1.9-1.75,3.06-2.27,3.94-1.78,8.96-2.14,8.83-8.4-.04-1.75,2.04-1.82,3.55-2.04,16.47-2.43,32.85-1.57,49.18,1.36,2.47,.44,4.57,1.17,3.78,4.45-.44,1.8,.69,2.74,2.17,3.44,4.2,1.99,8.39,3.99,12.55,6.05,.78,.39,1.48,.76,2.33,.44,5.03-1.9,7.17,.88,8.09,5.19,1.15,5.38-.72,9.8-5.13,10.28-4.54,.49-4.77,2.88-4.85,6.32-.11,4.47-.58,8.92-.9,13.38-.06,.66-.12,1.32-.18,1.98Z"/>
      <path class="cls-10" d="M68.43,110.81c-1.81,.9-3.77,.98-5.73,1.06-1.29,.05-2.92,.28-2.91-1.62,0-1.73,1.25-2.34,2.97-2.52,2.72-.28,4.1,1.49,5.62,3.16,0,0,.06-.08,.06-.08Z"/>
      <path class="cls-4" d="M64.65,80.75c.3-.76,.46-1.42,.8-1.95,.82-1.29,.71-4.02,2.73-3.47,2.19,.6,1.54,3.12,.99,4.76-.96,2.86-2.21,5.94-6.18,4.85-3-.82-3.91-5.62-2.08-9.86,2.69,.84,.74,4.81,3.74,5.67Z"/>
      <path class="cls-1" d="M86.91,55.98c-.53,2.06-1.03,3.61-1.3,5.2-.34,1.95-1.1,3.76-3.22,3.66-2.24-.1-2.63-2.28-2.77-4.05-.18-2.15-.1-4.52,2.67-5.05,1.39-.27,2.92,.12,4.63,.23Z"/>
      <path class="cls-9" d="M43.41,58.71c-.63-1.82,.83-2.24,2.41-2.33,3.08-.18,3.44,2.13,3.45,4.32,.01,1.88-.73,4.09-2.92,3.85-3.05-.34-2.67-3.22-2.94-5.84Z"/>
      <path class="cls-2" d="M87.06,45.68c.05,.92-.51,1.87-.9,1.61-2.04-1.33-4.1-2.73-5.77-4.47-.53-.55,.95-1.02,1.71-.94,2.48,.27,4.15,1.64,4.97,3.8Z"/>
      <path class="cls-8" d="M49.77,43.43c-2.6,1.29-4.68,2.31-6.95,3.43,1.13-4.74,2.36-5.41,6.95-3.43Z"/>
    </g>
  </g>
</svg>