<?xml version="1.0" encoding="UTF-8"?>
<svg id="Layer_2" data-name="Layer 2" xmlns="http://www.w3.org/2000/svg" viewBox="0 0 174.97 155.56">
  <defs>
    <style>
      .cls-1 {
        fill: #ed848e;
      }

      .cls-2 {
        fill: #fcd1b9;
      }

      .cls-3 {
        fill: #3f342f;
      }

      .cls-4 {
        fill: #4e575f;
      }

      .cls-5 {
        fill: #241e1f;
      }

      .cls-6 {
        fill: #1c1818;
      }

      .cls-7 {
        fill: #43474e;
      }

      .cls-8 {
        fill: #4d585f;
      }

      .cls-9 {
        fill: #101112;
      }

      .cls-10 {
        fill: #f9d1b9;
      }

      .cls-11 {
        fill: #2e2625;
      }

      .cls-12 {
        fill: #3c464e;
      }

      .cls-13 {
        fill: #b37a8f;
      }

      .cls-14 {
        fill: #f4cfba;
      }

      .cls-15 {
        fill: #3d474d;
      }

      .cls-16 {
        fill: #110f10;
      }

      .cls-17 {
        fill: #3a312d;
      }
    </style>
  </defs>
  <g id="Layer_1-2" data-name="Layer 1">
    <g>
      <path class="cls-16" d="M120.3,28.46c6.9,2.99,8.53,9.65,10.81,15.81,2.04,.22,3.02-1.42,4.44-2.05,6.73-3.01,12.89-1.46,16.95,4.65,1.37,2.06,2.46,4.3,3.67,6.46,3.42,6.1,6.86,7.25,12.42,3.16,3.48-2.56,4.22-1.03,5.23,1.92,2.7,7.93,.66,15.19-5.74,19.97-3.53,2.63-3.36,4.12,.8,5.93,1.46,.63,3.66,.47,3.44,2.77-.19,1.97-2.12,2.28-3.71,2.7-2.4,.64-4.77,1.43-7.21,1.86-4.73,.84-5.65,2.67-3.18,6.82,.42,.7,1.01,1.31,1.52,1.96,.6,.75,1.72,1.4,1.15,2.51-.66,1.29-2.06,.99-3.1,.7-3.21-.88-6.18-2.29-8.79-4.44-1.37-1.13-2.46-2.73-4.69-3.03-.31,1.64-.69,3.22-.9,4.83-.71,5.39-1.5,5.87-5.88,2.32-8.04-6.52-14.57-14.02-13.51-26.15-3.55,3.17-4.2,7.71-8.11,9.35-2.87-.52-.88-2.6-1.41-3.85-2.1,1.89-1.34,4.52-1.41,6.96-2.57,7.61-10.23,8.81-16.37,12.84,3.66,1.42,7.01,2.59,10.26,3.99,9.23,3.96,16.87,10.41,17.41,20.55,.45,8.46,.53,17.09,.47,25.64-.02,2.27-1.39,3.33-3.68,1.88-2.61-3.21-1.42-7.01-1.51-10.55-.19-7.49-.07-7.49-7.28-6.95-.5,.04-.99,.04-1.49,.08-6.7,.56-7.19,1.2-7.41,7.79-.12,3.54,1.08,7.35-1.61,10.52-1.2,.52-1.93-.36-2.77-.93-1.74-1.77-1.26-4.03-1.31-6.15-.12-4.97,.45-9.98-1.58-14.76-.52-1.22-.39-2.64-.04-3.94,.38-1.47,.89-2.97,2.59-3.35,1.45-.33,1.85,1.04,2.61,1.88,2.36,2.64,14.47,2.92,16.89,.46,1.34-1.36,.63-2.82,.08-4.18-2.1-5.15-5.89-8.8-10.61-11.51-3.91-2.24-8.18-3.69-12.34-5.37-3.16-1.28-4.67-.87-5.34,2.98-.93,5.38-7.28,7.5-11.73,4.35-.97-.68-2.01-1.42-1.41-2.81,.5-1.15,1.6-.99,2.59-.79,1.96,.4,3.99,1.13,5.27-1.23,.34-.63,.21-1.44-.41-1.77-1.92-1.03-3.89-.39-5.8,.12-1.3,.35-2.34,1.25-3.48,1.93-2.49,1.48-5.13,1.77-7.56,.19-2.91-1.89-5.91-1.78-9.08-.93,1.52,.82,3.16,.09,4.75,.11,1.16,.01,2.52-.04,2.86,1.36,.25,1.05-.66,1.79-1.46,2.42-3.79,3.01-8.68,2.82-11.95-.8-1.34-1.48-2.53-1.86-4.33-1.31-7.33,2.25-13.75,5.87-18.45,12.1-1.09,1.44-2.46,3.05-.64,4.83,1.53,1.49,3.26,1.37,4.96,.09,1.36-1.03,2.82-2.02,4.47-.58,1.55,1.35,1.02,3.05,.44,4.62-1.27,3.41-1.16,6.72-.28,10.26,.92,3.71,1.31,7.61-1.8,10.78-1.25,.88-2.48,2.16-3.8,.1-1.05-4.44-.08-9.2-2.08-13.5-.46-1-.36-2.32-1.96-2.94-1.86,2.92-1.53,6.22-1.74,9.44-.16,2.35,.8,5.02-1.62,6.85-1.98,1.92-3.3,1.4-3.57-1.21-.2-1.97,.08-3.98,.17-5.97,.25-5.7,2.21-11.18,.67-17.16-1.01-3.92,2.09-7.51,4.5-10.68,4.69-6.17,11.14-9.71,18.98-11.64-1.54-2.02-3.62-2.2-5.26-2.77-10.78-3.75-16.55-11.68-19.12-22.35-.67-2.78-.46-5.84-4.37-6.64-.82-.17-1.24-2.19-1.87-3.35-.4-.75-.33-2.38-1.74-1.66-4.57,2.34-4.25-1.34-4.55-3.75-.41-3.29-.51-6.63-.53-9.95-.01-2.34-.16-4.02-3.23-2.79-.88,.35-1.98,.14-2.97,.22-2.97,.22-3.75-.86-1.99-3.38,1.99-2.85,4.03-5.67,6.08-8.55-.72-1.88-3.81-.93-3.83-3.28-.02-2.05,1.56-3.3,2.93-4.41,2.19-1.78,1.94-3.31,.4-5.4-1.15-1.56-1.96-3.48-2.49-5.36-1.68-5.95-.09-7.88,6.07-7.81,2.33,.03,4.66,.05,6.99-.05,2.94-.14,5.66-.37,4.91-4.72-.54-3.16,1.55-3.63,4.1-2.86,3.01,.91,6,1.88,9.01,2.82,2.9,2.75-.12,3.79-1.64,3.73-3.87-.15-6.19,1.64-8.83,4.17-2.53,2.42-6.44,2.17-9.94,2.32-1.9,.08-3.88-1.03-5.69,.31,2.27,5.5,3.06,11.28,3.75,17.12,.47,3.97-2.03,6.49-4.03,9.64,4.55,1.69,4.8,5.81,5.48,9.67,.22,1.24-.52,3.1,2.2,1.71,1.94-.99,2.76,1.1,3.51,2.91,5.49-11.9,14.97-20.2,24.49-28.46,.75-.65,1.58-1.22,2.42-1.76,7.34-4.71,9.43-3.89,11.42,4.85,1.65-3.01,3.56-5.46,5.87-7.56,2.09-1.9,4.21-4.26,7.36-3.26,3.55,1.13,2.53,4.59,3,7.48,1.46-1.5,1.36-4.19,3.77-4.6,2.39-.41,4.07,1.09,5.85,2.31,9.38,6.47,18.38,13.28,23.1,24.2,.99,2.29,2.27,4.51,.9,7.08-3.19,2-4.15-.83-5.26-2.65-4.74-7.75-10.45-14.61-17.83-19.99-1.57-1.15-2.83-2.81-5-3.21-1.23,1.93-.69,4.25-1.59,6.21-1.61,3.48-3.92,3.89-6.44,.94-2.12-2.47-2.86-5.55-3.25-9.42-3.28,2.84-5.4,5.69-7,8.97-.96,1.97-1.84,4.16-4.58,3.81-2.46-.31-3.48-2.28-4.38-4.33-.73-1.66-.36-3.66-1.81-5.44-7.37,4.46-13.09,10.6-18.34,17.25-.31,.39-.57,.83-.91,1.19-6.87,7.4-8.56,15.54-4.98,25.26,3.42,9.3,9.16,15.64,18.59,18.66,4.13,1.32,8.36,2.01,12.65,2.69,7.91,1.26,15.27,2.42,23.41-.77,7.56-2.96,15.42-5.12,22.53-9.2,2.75-1.58,4.42-3.5,4.66-7.01,.4-5.93,2.33-10.64,9.34-12.34,5.85-1.42,7.45-6.9,4.59-11.88-2.04-3.55-4.69-3.92-7.66-1.05-1.2,1.16-1.97,2.72-3.35,3.69-1.62,1.13-3.12,1.45-3.51-1.21,.24-.24,.43-.51,.52-.82,3.03-10.66,8.82-12.94,18.05-6.73,.53-4.15-.7-7.87-1.39-11.64-1.02-3.91-3.43-7.06-5.6-10.36-1.73-2.63-1.61-2.8,.76-4.75Z"/>
      <path class="cls-1" d="M37.01,153.48c1.42-4.73,1.61-9.35-.26-14.1-1.1-2.8,.76-5.47,1.52-8.15,.31-1.1,1.08-2.25-.24-3.13-1.29-.86-2.47,0-2.94,.95-1.82,3.7-4.18,1.95-6.57,.91-2.59-1.13-3-2.5-1.3-4.96,3.28-4.73,7.05-8.89,12.33-11.31,4.2-1.93,8.56-3.48,12.9-5.21,1.98,7.4,6.48,8.16,13.57,2.35-2.78-.67-4.95,.96-7.29,1.04-1.52,.05-3.17,.45-3.44-1.71-.26-2.09,1.12-2.5,2.83-2.39,3.34,.22,6.73-.94,9.88,1.8,2.37,2.06,5.64,1.23,7.7-.97,1.98-2.12,4.14-2.57,6.67-2.3,1.33,.14,3.06-1.39,3.95,.7,.69,1.62,.54,3.31-.48,4.77-1.07,1.53-2.72,1.96-4.43,1.54-1.38-.34-2.66-1.07-5.2-2.14,2.76,3.92,5.51,4.41,8.65,3.71,3.31-.74,4.66-3.07,4.32-6.28-.43-4.07,.94-4.63,4.48-2.97,4.5,2.11,9.33,3.52,13.79,5.7,6.2,3.03,10.56,7.87,12.95,14.48,1.07,2.97,.37,4.4-2.76,4.75-2.96,.33-5.91,.87-8.87,1.17-4.3,.44-8.87,1.25-9.69-6.41-2,4.22-2.65,6.69-.7,9.92,1.92,3.19,.55,7.14,.75,10.75,.16,2.82,.01,5.65,0,8.48-20.71,.31-41.42,.3-62.11-.99Z"/>
      <path class="cls-8" d="M7.23,20.61c.18-2.53,1.77-1.67,3.22-1.41,3.77,.69,7.47,.1,11.25-.3,4.1-.43,3.29-4.87,5.52-5.77,2.29-.92,5.34,1.6,8-.22,.94-.64,.13-1.46-.13-2.19,1.17-.39,2.33-.78,3.5-1.17,11.65-5.05,23.8-7.19,36.47-6.26,8.68,.64,16.39,4.02,23.71,8.48,3.53,2.15,6.71,4.88,10.53,6.57,4.47,2.49,8.4,5.57,10.99,10.1-2.54,1.67-.63,2.99,.36,4.36,2.39,3.29,5.01,6.45,5.5,10.71,.78,3.22-1.27,2.85-3.07,2.22-2.7-.94-3.83-3.51-5.4-5.66-7.93-10.89-16.97-20.68-29.95-25.48-11.39-4.21-23.25-5.59-35.32-3.31-3.93,.74-7.84,1.85-11.03,4.41-4.42,3.55-10.02,4.69-14.81,7.65-5.66,3.5-15.42,1.45-19.36-2.75Z"/>
      <path class="cls-10" d="M101.89,155.4c.13-5.15,.42-10.3,.33-15.45-.05-2.78,.78-3.73,3.63-3.82,3.8-.12,7.61-.72,11.36-1.4,2.89-.52,3.8,.41,3.76,3.3-.09,5.49,.13,10.98,.22,16.47-6.42,.6-12.93-.79-19.3,.89Z"/>
      <path class="cls-9" d="M109.3,18.36c-2.32,2.77-3.64-.4-4.8-1.2-7.13-4.93-14.43-9.53-22.99-11.45-12.29-2.75-24.33-1.17-36.16,2.76-2.19,.73-4.36,1.69-6.77,1.1C44.71,2.5,53.58,2.17,61.71,.76c15.27-2.64,29.13,1.72,41.62,10.62,2.53,1.8,5.17,3.64,5.97,6.98Z"/>
      <path class="cls-14" d="M25.8,153.43c.37-5.46,.7-10.93,1.13-16.39,.08-1.01-.26-2.66,1.57-2.47,1.42,.14,3.41,.24,3.61,2.01,.62,5.64,3.71,11.15,1.1,17-2.49,.91-4.93-.28-7.41-.15Z"/>
      <path class="cls-7" d="M113.09,89.63c-1.82-2.21-.98-8.37,1.39-9.61,.49-.26,1.29-.26,1.81-.05,.81,.33,.38,1.07,.23,1.69-.39,1.59-2.45,2.98-.61,4.85-.94,1.04-1.88,2.07-2.82,3.11Z"/>
      <path class="cls-2" d="M107.8,62.83c.69,1.05,1.46,1.97,2.72,.75,.71-.68,1.27-1.52,1.9-2.28,1.84-2.23,3.1-5.64,6.9-4.53,3.33,.98,5,3.82,5.62,7.05,.66,3.39,.39,6.72-2.91,8.87-1.24,.8-2.58,1.51-3.97,2-6.52,2.31-8.87,5.54-8.25,12.72,.18,2.08-.39,3-1.9,4.02-8.06,5.45-16.75,9.38-26.37,11.12-.82,.15-1.89,.02-2.4,.5-6.33,5.92-13,1.58-19.61,.88-6.99-.74-13.76-1.96-20.1-5.17-7.84-3.97-11.49-10.81-14.4-18.78-3.24-8.85-1.22-15.92,4.23-23,6.62-8.59,13.95-16.31,23.69-22.7,.1,3.78-.08,6.95,1.44,9.77,.72,1.33,1.54,2.71,3.24,2.8,1.97,.11,2.15-1.49,2.69-2.94,1.82-4.89,4.83-8.92,9.6-12.49,.07,4.33,.36,8.09,2.46,11.35,.82,1.27,1.89,2.56,3.57,2.18,1.64-.37,1.44-2.11,1.63-3.33,.38-2.46,.52-4.95,.85-8.49,7.08,5.72,14.09,10.57,19.38,17.39,2.23,2.87,4.07,6.06,6.07,9.11,.97,1.48,1.51,3.48,3.92,3.17v.02Z"/>
      <path class="cls-12" d="M7.23,20.61c6,2.97,12.53,4.75,18.59,1.7,3.84-1.93,8.13-3.17,11.58-5.66,11.46-8.27,24.07-8.51,37.36-6.73,20.79,2.78,34.58,15.12,45.42,31.87,2.09,3.23,3.94,3.77,5.99,1.74,1.55,4.54,2.2,9.19,1.74,14-1.75,.5-2.28-1.06-3.15-1.84-5.28-4.7-10.25-3.92-13.82,2.19-.98,1.68-1.32,3.79-3.13,4.95,0,0,0-.02,0-.02-1.12-9.94-7.21-16.82-14.37-22.93-3.39-2.9-7.19-5.32-10.68-8.1-3.11-2.48-5.47-3-6.67,1.73-.31,1.22-1.04,2.34-1.65,3.65-2.2-2.1-1.09-4.59-1.37-6.79-.48-3.8-2.12-4.77-5.26-2.56-4.28,3.01-7.42,7.1-10.14,12.53-.61-2.73-1.43-4.81-1.46-6.9-.07-3.88-2.16-3.51-4.58-2.5-1.98,.83-3.9,1.75-5.62,3.17-10.56,8.72-20.49,17.95-26.23,31.27-1.85-6.39-2.14-6.49-6.14-2.65-2.03-4.68,1.65-12.15-7.02-13.75,1-1.46,2.07-2.73,2.8-4.17,1.24-2.44,4.97-4.84,.45-7.66-.21-.13-.41-.7-.31-.84,4.55-6.04-1.99-10.41-2.33-15.7Z"/>
      <path class="cls-15" d="M171.05,64.61c.76,4.55-1.82,7.47-4.79,10.35-5.7,5.52-5.67,5.95-.68,12.13-1.74,.62-3.34,1.35-5.01,1.75-3.77,.89-7.69,1.44-6.63,6.99,.24,1.24-.76,1.73-1.97,1.15-.75-.36-1.47-.77-2.17-1.2-6.04-3.76-6.1-3.78-8.77,3.17-.69,1.81-1.53,1.51-2.5,.54-5.3-5.32-10.72-10.59-10.46-18.99,.04-1.32-.06-2.59-.6-3.89-1.54-3.72,.14-6.96,4.1-8.09,3.59-1.02,6.55-2.98,7.38-6.66,.8-3.57-2.04-5.4-4.81-6.73-2.16-1.04-2.14-2.71-1.95-4.59,4.14-3.44,10.04-3.07,13.59,.94,2.53,2.85,4.8,5.92,7.29,8.81,3.88,4.5,8.48,6.16,14.22,4.25,1.24-.41,2.53-.97,3.76,.07Z"/>
      <path class="cls-4" d="M171.05,64.61c-13.02,4.72-15.22,1.4-22.09-7.37-6.08-7.76-8.88-9.15-16.77-6.7-.64-4.11,2.91-4.5,5.28-5.36,3.39-1.24,6.82-.81,9.71,1.84,2.76,2.54,4.17,5.94,6.03,9.04,4.19,6.99,7.76,7.98,15.18,4.86,4.58-1.92,1.97,2.29,2.67,3.69Z"/>
      <path class="cls-13" d="M130.87,62.03c.69-1.3-.07-3.91,2.36-3.81,1.3,.06,2.4,1.77,1.99,3.46-.44,1.81-1.93,2.73-3.65,2.69-1.76-.04-.62-1.41-.7-2.35Z"/>
      <path class="cls-5" d="M90.18,67.62c-.84,2.54-.33,5.85-3.37,5.8-3.73-.05-3.23-3.8-3.25-6.11-.02-2.13-.21-5.8,3.21-5.59,3.62,.23,2.02,4.23,3.41,5.89Z"/>
      <path class="cls-6" d="M47.23,67.04c-.36,2.66-.2,5.63-3.27,5.61-3.47-.03-3.1-3.25-3.12-5.6-.03-2.31,.27-5.29,3.16-5.29,3.47,0,2.58,3.47,3.24,5.28Z"/>
      <path class="cls-11" d="M60.06,80.31c2.42,5.37,4.5,7.4,6.99,1.78,.31-.7,1.12-1.23,2.07-.82,1.16,.5,1.25,1.55,1,2.52-.79,3.14-2.59,5.89-6.04,5.39-3.77-.55-5.27-3.36-4.02-8.86Z"/>
      <path class="cls-17" d="M48.49,52.71c-3.97-1.59-7.1-2.5-10.06,.91-.58-3.59,1.49-4.62,3.7-5.02,2.62-.48,5.14-.08,6.36,4.12Z"/>
      <path class="cls-3" d="M91.13,51.63c-3.13-.65-5.98-1.01-8.78,1.34-.7-3.24,1.64-3.6,3.28-4.1,2.43-.75,4.39,.19,5.5,2.76Z"/>
    </g>
  </g>
</svg>