<?xml version="1.0" encoding="UTF-8"?>
<svg id="Layer_2" data-name="Layer 2" xmlns="http://www.w3.org/2000/svg" viewBox="0 0 122.3 151.56">
  <defs>
    <style>
      .cls-1 {
        fill: #131111;
      }

      .cls-2 {
        fill: #131313;
      }

      .cls-3 {
        fill: #fdd2ba;
      }

      .cls-4 {
        fill: #eac8b6;
      }

      .cls-5 {
        fill: #e5695a;
      }

      .cls-6 {
        fill: #1c1311;
      }

      .cls-7 {
        fill: #2c2624;
      }

      .cls-8 {
        fill: #121111;
      }

      .cls-9 {
        fill: #191517;
      }

      .cls-10 {
        fill: #f8d2ba;
      }

      .cls-11 {
        fill: #231d1c;
      }

      .cls-12 {
        fill: #1bb6cd;
      }

      .cls-13 {
        fill: #1d1817;
      }

      .cls-14 {
        fill: #4e4e50;
      }

      .cls-15 {
        fill: #0e0f0f;
      }

      .cls-16 {
        fill: #ee917f;
      }
    </style>
  </defs>
  <g id="Layer_1-2" data-name="Layer 1">
    <g>
      <path class="cls-14" d="M2.32,55.63c-.03-1.37-.06-2.74-.09-4.11-.12-16.38,7.2-29.35,20.58-37.69C44.37,.38,67.68-1.15,90.4,10.54c27.28,14.03,36.43,49.25,23.06,74.05-2.5,4.63-6.04,8.35-9.99,11.7-1.79,1.52-3.79,2.83-6.35,1.66-.85-.82-.94-1.8-.63-2.87,3.04-2.71,2.39-6.35,2.26-9.74-.14-3.94,.88-6.25,5.18-7.59,7.21-2.24,8.83-9.89,3.66-14.97-2.16-2.12-4.57-3.34-7.59-1.61-3.22,1.84-4.25,.67-4.57-2.79-.51-5.43-1.17-10.99-6.46-14.35-.39-.29-.73-.62-1.05-.98-6.83-6.94-15.45-10.82-24.39-14.11-3.12-1.15-6.45-1.64-9.63-2.63-2.89-.9-5.16-1.14-5.92,2.76-.55,2.82-2.97,2.77-5.21,2.43-3.49-.53-6.73-1.87-9.94-3.24-5.43-2.3-10.09-1.59-13.81,2.85-5.49,6.55-9.67,13.9-11.98,22.22-.24,.71-.64,1.31-1.23,1.76-1.09,.62-2.21,1.03-3.48,.56Z"/>
      <path class="cls-12" d="M90.03,150.55c-21.33,.64-42.67,.31-64,.17-1.66-1.87-1.19-4.05-.83-6.18,.6-3.45,.64-6.9,.36-10.32-1.55-.58-2.19,.94-3.35,.96-2.54,.05-5.14,.02-6.96-1.99-1.91-2.12-.66-4.39,.29-6.52,5.09-11.43,11.24-14.8,23.73-12.94,2.48,.37,4.99,.75,7.45,.36,3.85-.61,6.93-.24,9.69,3.23,2.54,3.18,5.24,1.81,7.87-3.53,1.31-1.69,2.52-3.52,5.06-3.35,2.16,1.88,4.58,1.29,7.09,.92,10.68-1.59,19.89,2.13,28.39,8.16,.94,.67,1.56,1.72,2.21,2.69,5.81,8.72,3.89,13.27-6.41,14.93-4.34,.7-9.12,2.46-11.82-4.09-.76,3.3,.3,5.62,1.18,8.02,1.15,3.12,2.42,6.31,.05,9.47Z"/>
      <path class="cls-15" d="M90.03,150.55c-.66-4.14,.41-8.57-2.76-12.33-.94-1.12-.46-3.53-.42-5.35,.03-1.18-.65-3.06,1.27-3.2,1.62-.12,2.04,1.6,2.12,2.89,.23,3.87,2.41,4.59,5.72,3.93,2.11-.42,4.27-.61,6.39-.98,7.23-1.27,8.21-3.21,5.1-10-1.35-2.94-3.18-5.54-6.14-6.96-8.34-4-16.63-8.21-26.43-5.55-2.29,.62-5.03,1.37-6.4-1.85,.17-1.73,1.66-2.1,2.86-2.32,8.89-1.64,16.56-5.94,24.06-10.68,.58-.36,1.22-.52,1.9-.52,8.08-2.01,12.37-8.33,15.6-15.02,15.81-32.7-5.17-71.64-41.21-77.09-14.34-2.17-28.2-.7-41.35,5.36C14.2,18.33,5.54,31.37,3.15,48.77c-.14,.99-.06,2.01-.92,2.74-3.15-4.29-1.94-8.89-.74-13.36,3.16-11.77,9.91-21.42,20.36-27.29,24.49-13.73,49.93-15.13,74.27-.3,26.75,16.3,34.19,55.51,16.78,80.34-5.16,7.36-13.36,10.03-20.09,14.95-1.31,.95-2.8,1.65-4.83,2.83,3.74,1.34,6.91,2.37,9.99,3.6,12.5,5.02,16.29,12.57,13.56,25.69-.58,2.78,.53,5.89,.68,8.86,.12,2.28-.29,4.26-3.38,2.74-2.31-1.55-1.97-4.02-2.11-6.28-.13-2.14-1.11-2.92-3.22-2.52-1.62,.3-3.24,.71-4.88,.87-2.83,.28-4.22,1.54-3.67,4.55,.31,1.71-.05,3.3-1.63,4.36-1.1,0-2.19-.01-3.29-.02Z"/>
      <path class="cls-2" d="M65.2,113.53c.51,3.84-1.64,5.99-4.91,7.04-3.2,1.03-4.93-1.18-6.22-3.65-.58-1.1-1.1-2.21-2.48-1.99-8.07,1.29-16.24-1.41-24.28,.69-4.44,1.16-12.43,11.27-12.39,15.66,.01,1.36,1.06,1.97,1.84,1.84,2.29-.37,4.63,2.8,6.78-.05,.74-.97,.77-2.92,2.61-2.24,1.57,.58,1.1,2.28,1.03,3.52-.32,5.46-.75,10.91-1.14,16.37-.88,.47-1.7,1.15-2.8,.68-2.7-2.1-2.13-4.89-1.74-7.72,.22-1.58,.56-3.78-1.63-4.06-2.31-.29-2.22,1.98-2.42,3.55-.33,2.61-.21,5.34-2.4,7.33-1.61,.64-3.69,.44-3.25-1.43,1.84-7.88-1.24-16.04,1.53-23.77,1.78-4.98,3.93-9.8,9.44-12.9-5.79-2.91-10.99-5.69-14.64-10.53C.32,91.53-.63,79.62,.29,67.35c.3-3.94,1.33-7.82,2.03-11.73,.93-.44,1.72-1.29,2.9-1,1.94,2.56,.99,5.38,.74,8.15-.69,7.61-1.3,15.26,.58,22.78,3.52,14.06,12.95,22.1,27.4,23.53,8.2,.81,16.63,.33,24.21,4.57,2.27,1.27,4.65-2.24,7.06-.12Z"/>
      <path class="cls-10" d="M93.31,150.57c.17-.8,.36-1.6,.51-2.41,.43-2.35-1.83-5.82,.72-6.9,3.7-1.56,8-1.83,12.08-2.28,1.4-.15,1.33,1.58,1.37,2.74,.08,2.64-.06,5.3,.83,7.86-5.19,.06-10.29,1.46-15.51,.99Z"/>
      <path class="cls-4" d="M15.05,150.5c.41-3.09,.84-6.17,1.23-9.26,.29-2.29,.79-4.04,3.86-3.71,2.95,.32,2.76,2.09,2.71,4.18-.07,3.23-1.22,6.53,.38,9.7-2.63-1.22-5.44-.73-8.18-.89Z"/>
      <path class="cls-3" d="M65.2,113.53c-.8,.05-1.93-.21-2.36,.22-2.81,2.86-4.78,3.29-7.8-.36-1.81-2.18-5.91-1.42-8.99-1.84-5.43-.73-10.97-.89-16.33-1.95-15.55-3.08-25.07-14.65-25.63-30.56-.28-8.17,.31-16.3,1.11-24.42,.29-.32,.59-.64,.88-.95,3.7-7.28,8.67-13.79,12.59-20.94,1.16-2.12,2.85-3.23,5.37-2.3,.47,.17,1.06,.49,1.44,.32,6.38-2.89,12.24,.97,18.35,1.36,2.62,.17,5.52,.96,5.72-3.31,.08-1.71,1.63-2.06,3.03-1.66,5.57,1.56,11.45,2.32,16.3,5.89,1.18,2.76-1.88,1.97-2.81,3.42,1.68,1.37,3.41,2.69,5.33,3.67,1.51-1.67-2.51-3.9,.89-5.07,6,1.56,11.1,5.1,16.69,7.57,.08,.35,.16,.69,.24,1.04,3.83,3.92,4.8,8.88,5.3,14.08,.55,5.64,.66,5.67,6.04,4.38,4.13-1,6.23,1.47,7.76,4.6,1.63,3.34,.72,7.38-2.88,8.29-7.48,1.9-7.51,7-7.11,12.87,.15,2.26,.47,4.68-1.18,6.68l.11,3.09c-6.68,5.95-14.66,9.38-23.13,11.82-1.9,.55-3.96,.54-5.68,1.69-.55,1.54-2.05,1.77-3.27,2.38Z"/>
      <path class="cls-8" d="M89.01,42.62c-6.75,.06-11.38-4.78-17-7.34-1.35,.07-2.42-.36-3.04-1.65-6.06-2-12.11-4-18.36-6.06,.86,6.12,.8,6.25-5.43,5.8-4.29-.31-8.6-.58-12.59-2.52-1.12-.54-2.36-1.73-3.34,.8-.8,2.06-3.5,1.47-4.76,.45-2.91-2.37-3.61-.48-4.88,1.67-3.36,5.71-6.94,11.28-10.44,16.9-.78,1.24-1.37,2.7-3.08,3.01,1.96-10.26,7.39-18.62,14.51-25.97,1.51-1.56,4.87-.58,5.6-3.82,.13-.59,1.71,.33,2.56,.86,4.11,2.56,8.62,4.13,13.27,5.38,3.04,.82,5.24,.97,5.07-3.27-.09-2.26,1.52-3.32,3.66-2.8,12.78,3.12,25.14,7.25,35.64,15.59,1.01,.81,1.74,1.98,2.6,2.98Z"/>
      <path class="cls-1" d="M97.18,94.56c-.98-5.29-.21-10.59-.19-15.89,.01-3.17,2.24-3.04,4.45-3.31,2.93-.35,5.57-1.45,6.41-4.66,.65-2.51-.6-4.49-2.3-6.24-2.16-2.22-4.31-2.1-6.49-.05-2.81,2.63-4.69,1.41-5.02-1.78-.68-6.59-2.59-12.81-4.79-18.98,5.23,.34,5.53,5.05,6.5,8.35,.83,2.83,1.87,5.98,.54,10.17,4.07-3.26,7.32-4.68,11.05-1.51,3.3,2.8,5.28,6.17,4.51,10.42-.81,4.47-3.93,7.58-8.31,8.25-3.29,.51-3.63,1.99-3.51,4.6,.12,2.66,.19,5.34-.1,7.98-.14,1.3,.11,3.83-2.76,2.65Z"/>
      <path class="cls-6" d="M54.54,72.4c9.43,.14,11.06,1.89,10.11,11.36-.72,7.2-3.08,13.62-9.62,17.62-6.32,3.87-13.55,2.74-18.45-2.79-3.17-3.57-5-7.8-5.5-12.53-.82-7.84,.98-10.41,8.68-11.82,4.88-.89,9.85-1.24,14.78-1.84Z"/>
      <path class="cls-9" d="M67.4,60.8c.59,.36,1,.54,1.33,.83,1.41,1.22,5.19,.69,3.87,3.83-1.11,2.64-3.49,.25-5.26-.01-1.26-.19-2.5-.87-3.64-1.53-3.55-2.06-3.62-4.04-.22-6.19,.82-.52,1.76-.98,2.7-1.18,2.29-.48,5.62-2.49,6.56,.62,1.06,3.52-3.39,1.76-5.35,3.63Z"/>
      <path class="cls-13" d="M30.24,61.14c-.89-2.39-5.73-1.68-4.26-4.6,1.44-2.86,4.45-.3,6.63,.33,2.19,.63,4.47,1.68,4.7,4.47,.13,1.56-1.1,2.43-2.37,2.85-2.8,.94-5.67,2.14-8.65,.98-1.14-.44-1-1.73,.03-2.34,1.21-.72,2.6-1.14,3.92-1.69Z"/>
      <path class="cls-7" d="M68.97,33.63c1.01,.55,2.02,1.1,3.04,1.65-1.58,1.79,.87,1.98,1.26,3,.54,1.4,1.56,2.73-.01,3.96-1.48,1.15-2.32-.2-3.25-1.1-.93-.9-1.97-1.69-2.9-2.6-1.17-1.14-4.42-.3-3.7-2.89,.59-2.15,3.12-.92,4.81-1.07,.64-.06,.73-.45,.77-.94Z"/>
      <path class="cls-11" d="M26.48,41.7c-1.9-.04-1.73-1.21-1.1-2.3,1.1-1.91,2.78-3.28,4.92-3.83,1.87-.49,4.48-1.36,5.16,1.04,.77,2.69-2.32,1.82-3.67,2.54-1.73,.92-3.53,1.7-5.31,2.55Z"/>
      <path class="cls-16" d="M56.93,90.32c.18-4.69-3.14-4.35-5.62-3.14-2.56,1.24-4.59,1.21-6.95,.09-1.39-.66-2.85-.36-4.36-.24-1.55,.13-3.72,4.04-4.83-.48-1.29-5.24-.32-7.86,3.51-8.38,6.24-.83,12.5-1.51,18.82-1.47,1.87,.01,3.39,.2,3.28,2.55-.2,4.28,.03,8.67-2.93,12.29-.82-.03-1.4-.24-.93-1.23Z"/>
      <path class="cls-5" d="M56.93,90.32c.31,.41,.62,.82,.93,1.23-3.59,8.84-13.11,10.72-18.69,3.65-.88-1.11-2.46-2.37-1.61-3.86,.84-1.46,3.2-2.34,4.36-1.49,5.02,3.66,10.06-.44,15,.46Z"/>
    </g>
  </g>
</svg>