<?xml version="1.0" encoding="UTF-8"?>
<svg id="Layer_2" data-name="Layer 2" xmlns="http://www.w3.org/2000/svg" viewBox="0 0 123.29 156.29">
  <defs>
    <style>
      .cls-1 {
        fill: #18181b;
      }

      .cls-2 {
        fill: #997565;
      }

      .cls-3 {
        fill: #fcd2ba;
      }

      .cls-4 {
        fill: #111112;
      }

      .cls-5 {
        fill: #79797c;
      }

      .cls-6 {
        fill: #1b1715;
      }

      .cls-7 {
        fill: #111213;
      }

      .cls-8 {
        fill: #2a2b2e;
      }

      .cls-9 {
        fill: #111215;
      }

      .cls-10 {
        fill: #120e0e;
      }

      .cls-11 {
        fill: #221c1b;
      }

      .cls-12 {
        fill: #312927;
      }
    </style>
  </defs>
  <g id="Layer_1-2" data-name="Layer 1">
    <g>
      <path class="cls-2" d="M27.31,10.87c.93-2.56,4.82-2.16,5.24-5.22,1.27,1.23,2.55,1.92,3.85,.03,1.73,.77,3.25-.17,4.81-.62,30.38-8.89,68.51,6.71,76.94,43.94,3.41,15.06,3.29,30.02-.02,45.04-.86,3.9-1.61,7.83-1.46,11.86,.03,.83-.03,1.67-.21,2.48-1.51,6.88-6.06,8.76-11.78,4.87q-6.01-4.09-11.93,.11c-.95,.67-1.88,1.39-2.93,1.89-2.19,1.05-4.15,1.04-4.17-1.96-.02-2.72-1-3.89-3.7-4.11-1.95-.16-2.31-1.61-1.73-3.32,.16-.47,.36-.94,.64-1.35,9.23-13.88,2.75-30.17-11.96-37.52-7.98-3.98-16.21-7.71-23.19-13.62-5.91-5-10.28-10.81-12.36-18.29-.4-1.44-.92-2.85-1.49-4.24-.92-2.27-2.09-2.5-3.36-.31-1.67,2.88-3.26,5.82-4.43,8.94-6.83,18.2-10.03,36.83-7.27,56.32,.77,5.46,4.61,8.19,8.09,11.48,2.79,2.63,2.22,5.36-1.12,6.4-1.02,.32-2.05,.35-2.86-.31-4.02-3.31-8.78-3.65-13.68-3.66-2.86,0-5.13-1.03-4.24-4.49,2.43-9.46,.56-18.89-.13-28.29-1.07-14.75,1.48-28.75,7.44-42.24,4.04-9.14,10.05-16.81,17.03-23.81Z"/>
      <path class="cls-10" d="M27.31,10.87c.87,2.35-1.24,3.2-2.37,4.39C12.22,28.58,6.24,44.7,4.26,62.78c-.92,8.41,.17,16.54,.99,24.79,.58,5.79,.88,11.69-.98,17.33-.95,2.88-.6,3.8,2.63,3.61,5.3-.32,10.66-.7,14.7,4.1,1.5,1.78,2.57-.59,3.66-1.23,1.74-1.01,.52-2.02-.49-2.55-9.14-4.73-9.94-13.31-10.22-22.09-.62-19.98,3.18-39,12.66-56.73,.83-1.56,1.37-4.06,3.29-3.98,2.07,.09,2.2,2.79,2.55,4.37,3.25,14.62,13,23.45,25.8,29.78,4.91,2.43,9.75,5.07,14.4,7.96,14,8.71,17.3,24.19,8.25,37.92-.36,.54-.71,1.08-1.13,1.72,2.06,1.54,4.71-1.61,6.37,1.07,1.31,2.11-.59,4.16-.22,6.64,4.08-1.71,7.07-4.59,10.43-6.85,1.86-1.25,3.16-1.35,4.68,.41,.96,1.12,2.16,2.11,3.41,2.88,1.9,1.17,4.91,4.04,5.66,2.86,1.64-2.59,4.87-4.36,4.64-8.33-.5-8.55,2.65-16.68,3.47-25.1,1.76-17.96-.1-35.37-9.98-50.89-10.12-15.88-25.23-24.13-43.84-26.05-8.48-.87-16.9-.93-24.97,2.61-1.3,.57-3.39,1.66-3.63-1.35C41.91,.31,48.98,.25,55.95,.04c35.8-1.1,62.55,22.52,66.69,58.17,1.58,13.62,.12,26.84-2.53,40.07-.66,3.3-.65,6.61-.89,9.91-.18,2.42,.45,5.21-3.33,5.53-1.25,.11-1.51,1.33-1.25,2.32,1.58,5.91-2.45,3.83-4.65,2.96-3.36-1.34-6.47-3.35-9.15-5.89-1-.95-1.89-2.04-3.21-.55-1.21,1.37,.11,2.09,.89,2.84,10.47,10.09,11.5,23.03,11.06,36.42-.07,2.04-.26,3.93-3.12,2.5-2.22-4.43-1.97-9.31-2.36-14.03-.57-7-2.66-13.3-7.15-18.78-2.2-2.67-4.56-3.81-7.7-1.6-.4,.28-.88,.46-1.34,.66-1.89,.79-3.86,1.48-5.68,.08-2.07-1.59-1.4-3.69-.86-4.7,.34-1.66-.66-.85-.01-1.02,.23-.06,.39,.12,.23,.41-.97,1.73-.39,3.56-.49,5.35-.15,2.51-.77,5.15-3.4,6.21-2.41,.97-4.09-.89-5.57-2.43-2-2.09-4.02-3.88-7.15-4.01-1.37-.06-2.49-.9-2.77-2.45,4.62-3.49,6.42-3.5,10.86-.09,.88,.67,1.58,2,2.89,1.44,.99-.43,1.11-1.62,.96-2.61-.24-1.66-1.7-1.34-2.75-1.36-4.08-.1-8.3-.82-11.83,2.17-.57,1.3-1.68,1.81-2.99,2.03-1.01,.15-2.03,.16-3.04,.11-.83-.05-1.91,.02-2.38-.56-3.7-4.59-8.64-2.89-13.24-2.75,2.63,.04,5.25-.62,7.92-.43,1.23,.09,2.42,.28,2.79,1.61,.38,1.4-.63,2.3-1.76,2.59-3.87,1-7.52,2.7-11.38,3.64-3.78,.93-3.88-1.94-4.11-4.53-.14-1.55,.8-3.6-1.24-4.43-1.93-.78-3.53,.55-4.95,1.67-6.68,5.29-9.1,12.92-11.03,20.72-1.03,4.19-1.92,8.43-2.33,12.75-.19,2.01-.58,3.97-2.25,5.37-4.03,1.42-3.2-1.74-3.07-3.57,.75-11.19,2.93-22.03,8.51-31.95,2.35-4.17,1.75-5.98-2.99-6.86-3.4-.63-6.95-.36-10.44-.57-2.33-.14-4.84-.77-3.84-3.76,3.6-10.8,.12-21.43-.37-32.14-.94-20.67,3.29-39.97,15.94-56.79,2.89-3.84,5.63-8.3,11.24-8.86Z"/>
      <path class="cls-5" d="M12.33,155.37c1.55-8.47,2.38-17.1,5.28-25.28,2.26-6.37,5.43-12.13,11.34-15.93,1.93-1.24,3.78-1.98,6-.68,2.18,1.28,.61,3.02,.53,4.45-.34,5.74-.03,6.13,5.07,3.69,3.31-1.58,6.95-1.81,10.51-2.93q-2.66-2.72-12.86,.39c-.45-3.69,.77-4.8,4.7-4.42,4.8,.46,9.1,2.01,13.39,3.86q13.53,4.64,13.53,18.74c0,4.3,.03,8.61-.02,12.91-.02,1.81,.03,3.67-1.34,5.15-14.36,.05-28.72,.1-43.09,.15,.92-7.15-1.56-14.44,1.45-22.48-2.92,4.87-2.93,5.51-3.17,11.34-.15,3.71,1.08,7.62-1.24,11.1-3.37-.02-6.73-.03-10.1-.05Z"/>
      <path class="cls-5" d="M59.48,118.51c.97-.34,1.94-.67,2.92-1.01l-.07-.08c5.15,1.73,9.35,4.82,13.31,8.51,1.82,1.7,2.96-.54,3.4-2.11,.99-3.46,1.73-7,2.61-10.68,.26,.37,.38,.49,.45,.64,.95,2.03-2.54,4.64,.58,6.23,2.8,1.43,5.24-.52,7.26-2.05,2.78-2.1,4.44-1.46,6.58,.95,5.52,6.19,8.46,13.32,8.92,21.57,.26,4.62,.67,9.24,1.02,13.86-6.73,.33-13.45,.66-20.18,.99-1.77-1.95-1.27-4.38-1.31-6.65-.09-4.92,.2-9.87-1.13-15.06-.05,5.64,.04,10.92-.04,16.19-.03,1.97,.16,4.03-1.4,5.64-3.7,.29-7.41,.44-11.1-.13-1.59-1.79-1.31-4.01-1.33-6.13-.08-6.6,.07-13.21-.09-19.81-.09-3.56-1.08-6.22-5.18-7.21-1.91-.46-4.75-.65-5.2-3.66Z"/>
      <path class="cls-8" d="M59.48,118.51c.64,1.13,1.86,1.31,2.91,1.7q8.78,3.23,8.86,12.77c.04,7.45,.03,14.89,.04,22.34-.94,0-1.88,0-2.81-.01,.01-8.8-.08-17.6,.1-26.4,.05-2.74-.75-4.33-3.43-5.14-3.35-1.01-6.11-3.13-8.83-5.26,1.06,0,2.12,0,3.18,0Z"/>
      <path class="cls-4" d="M22.42,155.42c.97-6.52-1.7-13.23,1.01-19.67,.32-.76,.49-1.61,.91-2.3,.77-1.27,.78-3.93,2.87-3.19,2.08,.74,.75,2.83,.3,4.34-1.19,4.03-1.59,8.07-.61,12.23,.71,3.03-.17,5.9-1.51,8.62-1,1.06-1.99,1.1-2.96-.04Z"/>
      <path class="cls-7" d="M82.39,155.45v-26.16c.54-.05,1.08-.11,1.62-.16,3.63,8.34,1.84,17.42,2.27,26.19-1.26,1.21-2.55,1.32-3.89,.12Z"/>
      <path class="cls-3" d="M30.11,33.38c3.38,16.73,15.71,24.89,29.41,31.83,4.14,2.1,8.37,4.16,12.16,6.81,14.49,10.09,13.82,24.28,2.75,37.31-.83,.98-2.03,1.36-3.16,1.16-6.12-1.07-11.32,6.46-16.54,3.4-5.65-3.31-11.57-2.32-17.17-4.07-5.83-1.81-11.18-4.1-15.53-8.48-1.22-1.22-2.24-2.49-2.46-4.21-2.91-22.16,.29-43.35,10.56-63.76Z"/>
      <path class="cls-5" d="M62.4,117.5c4.13-4.91,9.76-3.24,14.95-3.31,1.42-.02,1.03,1.45,.99,2.33-.09,1.98-.26,4.15-1.75,5.48-1.14,1.02-2.11-.56-2.68-1.38-3.01-4.32-6.86-5.21-11.57-3.2,0,0,.07,.08,.07,.08Z"/>
      <path class="cls-1" d="M66.95,128.71c-.42,1.23-1.13,2.03-2.51,1.76-1.28-.25-2.1-1.08-1.8-2.39,.29-1.29,1.03-2.53,2.68-2.02,1.17,.37,1.71,1.41,1.63,2.64Z"/>
      <path class="cls-9" d="M66.14,142.23c-.08,1.31-.71,2.17-2.05,2.29-1.55,.13-1.96-.93-1.91-2.19,.05-1.17,.35-2.45,1.79-2.43,1.28,.02,1.82,1.19,2.17,2.32Z"/>
      <path class="cls-11" d="M44.64,81.83c2.47,4.04,2.3,8.53,6.18,11.13,1.37-3.07,2.61-5.85,3.98-8.92,1.85,3.74,.8,9.37-1.76,11.45-1.78,1.45-3.34,1.11-4.82-.4-3.37-3.44-4.64-7.53-3.59-13.27Z"/>
      <path class="cls-6" d="M34.57,66.31c-.13,2.17,.29,5.19-2.66,4.95-2.86-.23-2.65-3.28-2.68-5.61-.03-2.4,.38-5.62,2.83-5.45,3.17,.23,2.13,3.86,2.51,6.11Z"/>
      <path class="cls-12" d="M26.21,51.76c.04-3.09,1.74-4.33,3.72-5.06,1.53-.57,3.18,.2,3.49,1.72,.4,1.99-1.49,.88-2.35,1.22-1.47,.58-2.9,1.26-4.85,2.13Z"/>
    </g>
  </g>
</svg>