<?xml version="1.0" encoding="UTF-8"?>
<svg id="Layer_2" data-name="Layer 2" xmlns="http://www.w3.org/2000/svg" viewBox="0 0 137.89 162.61">
  <defs>
    <style>
      .cls-1 {
        fill: #42332e;
      }

      .cls-2 {
        fill: #171413;
      }

      .cls-3 {
        fill: #1a1714;
      }

      .cls-4 {
        fill: #fdd2ba;
      }

      .cls-5 {
        fill: #1b1617;
      }

      .cls-6 {
        fill: #f2d0ba;
      }

      .cls-7 {
        fill: #151311;
      }

      .cls-8 {
        fill: #f9d2ba;
      }

      .cls-9 {
        fill: #111213;
      }

      .cls-10 {
        fill: #4d4e50;
      }

      .cls-11 {
        fill: #201b1a;
      }

      .cls-12 {
        fill: #ae9f81;
      }

      .cls-13 {
        fill: #100f0f;
      }
    </style>
  </defs>
  <g id="Layer_1-2" data-name="Layer 1">
    <g>
      <path class="cls-10" d="M36.78,8.87c2.47-2.01,5.92-2.08,8.33-4.4,1.26-1.21,3.05,1.64,4.76,.22,4.31-.31,8.53-1.25,12.82-1.76,31.93-3.78,66.45,14.89,72.01,53.77,2.6,18.18-1.7,34.88-16.26,47.53-5.44,4.73-11.43,8.61-19.21,7.9-1.7-1.87,.02-3.36,.55-4.99,1.45-4.07,3.23-8.08,3.63-12.4,.31-3.34,1.58-5.08,5.03-5.61,4.6-.7,6.63-4.26,7.52-8.33,.68-3.11-.43-5.97-3-7.99-3.06-2.41-6.48-2.01-9.29,.07-3.52,2.61-6.57,2.64-9.8-.13-.64-.33-1.23-.73-1.8-1.16-16.49-9.68-32.77-19.7-48.1-31.17-3.35-2.51-6.1-5.66-9.06-8.58-1.71-1.69-3.1-2.06-5.01-.16-7.68,7.69-13.69,16.29-15.5,27.29-.22,.99-.69,1.85-1.26,2.67-2.47,3.79-2.65,8.12-3.08,12.42-.16,1.57,0,3.7-2.28,3.79-1.84,.08-2.16-1.81-2.69-3.16-4.54-11.56-1.94-22.61,2.99-33.23,6.04-13,13.99-24.52,27.31-31.25,.61-.31,1.05-.8,1.42-1.36Z"/>
      <path class="cls-12" d="M89.8,161.55c-19.05-.05-38.09-.1-57.14-.15-2.26-4.44-1.15-9.09-.73-13.66,.25-2.78,.72-5.51,.17-8.82-2.37,5.66-9.09,6.99-13.39,3.19-1.41-1.25-1.78-2.74-1.33-4.5,.71-2.78,1.81-5.43,3.77-7.52,8.38-8.94,18.52-13.05,30.84-10.92,1.6,.28,2.59,1.39,3.58,2.52,2.69,3.08,5.84,3.34,8.7,.6,2.52-2.41,5.32-3.03,8.59-3.17,3.65-.15,7.26-.89,10.87-1.44,10.67-1.62,24.45,5.32,29.47,14.86,.54,1.03,1.03,2.09,1.38,3.2,2,6.51,0,9.55-6.74,10.08-3.65,.28-7.32-.04-10.97,.14-4.41,.21-7.63-.89-7.64-6.87-1.08,4.19-1.22,4.54,.35,6.87,3.51,5.2,1.9,10.36,.23,15.57Z"/>
      <path class="cls-13" d="M89.8,161.55c.07-2.66-.05-5.34,.25-7.98,.31-2.71,.09-4.65-1.99-7.05-2.75-3.17-1.55-7.29,.49-11,1.99,1.06,1.98,2.72,1.8,4.06-.55,4.24,1.24,5.56,5.31,5.22,4.47-.38,9-.08,13.46-.47,5.26-.46,5.87-1.53,4.63-6.76-1.03-4.35-3.34-7.96-6.73-10.82-8.58-7.23-18.31-9.63-29.27-6.83-1.92,.49-3.96,.84-5.92,.72-2.86-.18-4.8,.52-6.72,2.94-2.78,3.5-7.42,3.08-10.38-.25-1.03-1.16-1.25-3.53-3.43-3.12-4.14,.8-8.58-1.92-12.22,.1-2.93,1.62-6.01,2.7-8.98,4.11-5.73,2.73-9.52,6.92-11.47,13.04-.92,2.88,.06,4.09,2.53,4.72,1.44,.36,3.02,.22,4.42,.67,3.34,1.09,4.56-.06,4.5-3.46-.03-1.46-.32-3.91,2.09-3.67,1.72,.17,1.61,2.29,1.54,3.76-.31,7.31-.69,14.61-1.04,21.92-1.19,1.14-2.39,1.25-3.6,.02-2.64-2.63-1.29-5.94-1.51-8.97-.12-1.65,.24-3.66-2.04-3.9-2.29-.25-2.33,1.86-2.85,3.39-1.04,3.11,.52,6.74-1.92,9.57-2.37,1.94-3.69,1.03-3.79-1.68-.08-2.3,.39-4.62,.55-6.94,.25-3.6,.9-6.71-1.67-10.51-3.26-4.82,.01-10.21,3.18-14.56,3.31-4.54,8.16-7.07,14.23-9.14-3.67-1.47-6.67-2.54-9.56-3.85-9.53-4.33-14.45-11.86-14.91-22.25-.15-3.41-1.16-6.29-2.9-9.29C.44,73.95-1.44,63.91,1.14,53.15c3.63-15.12,11.08-27.97,22.64-38.32,3.63-3.25,7.37-6.8,12.99-5.96,1.14,2.11-.65,2.39-1.88,3.12C16.64,22.84,7.56,39.76,4.09,59.97c-.99,5.78,.73,11.76,3.69,17.93,2.36-6.03-.23-12.9,5.04-17.28,3.1,1.69,1.99,4.48,1.91,7.06-.28,8.41-1.76,16.73-.66,25.26,1.29,10.08,7.02,15.78,16.11,18.77,5.69,1.87,11.71,2.36,17.55,3.58,3.56,.74,7.23,1.09,10.03,3.9,1.4,1.4,3.14,1.08,4.55-.04,3.86-3.04,8.44-3.6,13.07-4.24,5.75-.79,11.48-1.77,17-3.71,2.02-.71,4.16-1.35,6.17,.19,11.88-.51,20.09-7.26,26.51-16.35,13.95-19.76,11.2-48.68-3.95-67.43C104.41,6.95,82.15,.77,56.47,5.2c-2.21,.38-4.54,1.35-6.61-.5C54.94,.33,61.25,.61,67.33,.18c28.52-2.03,55.05,13.51,64.98,39.18,8.23,21.27,8.35,42.43-6.49,61.34-7.17,9.14-16.38,15.51-28.98,14.37-.21-.02-.46,.41-1,.91,3.17,1.53,6.3,2.78,9.18,4.47,7.59,4.47,12.47,10.86,13.09,19.93,.17,2.47,.27,4.95-2.38,6.61-2.16,1.35-.85,3.66-.92,5.54-.1,2.49,.23,5.01,.03,7.48-.23,2.85-1.71,3.37-3.94,1.51-2.12-2.18-1.42-4.97-1.53-7.54-.11-2.63-1.22-3.99-3.92-3.94-1.15,.02-2.31-.03-3.47-.02-6.31,.02-6.33,.02-6.77,6.15-.14,2.01-.27,3.98-1.99,5.38-1.14,1.03-2.28,.72-3.42,0Z"/>
      <path class="cls-8" d="M93.22,161.55c.79-2.96,.37-5.96,.15-8.91-.23-3.13,1-4.29,3.99-3.88,.16,.02,.33,0,.5,0,4.24,.32,9.86-2.07,12.32,.74,2.09,2.39,.63,7.89,.73,12.02-5.89,.01-11.79,.02-17.68,.03Z"/>
      <path class="cls-6" d="M20.75,161.52c.21-3.81,.44-7.61,.64-11.42,.14-2.67,1.24-3.87,4.1-3.24,2.35,.52,4.53,.64,3.87,4.16-.64,3.41-.86,6.92-.29,10.41-2.77,.03-5.55,.06-8.32,.09Z"/>
      <path class="cls-4" d="M98.54,111.39c-7.26,.8-13.96,4.05-21.29,4.66-5.76,.48-11.65,.8-15.94,5.65-1.04,1.18-2.75,1.06-3.53-.13-3.9-5.99-10.47-4.74-16.02-5.94-5.34-1.15-10.72-1.94-15.81-4.12-11.08-4.74-13.71-14.2-13.73-24.85,0-6.62,.86-13.24,1.34-19.86,.15-2.11,.93-4.3-.74-6.19,.37-.65,.74-1.29,1.12-1.94,2.69-9.87,9.13-17.58,14.89-25.67,1.7-2.39,3.63-2.53,5.77-.3,11.28,11.76,24.72,20.53,39.09,27.97,6.41,3.31,12.02,8.1,19.05,10.24,.3,.25,.6,.51,.9,.76,1.19,.92,2.23,1.99,3.28,3.06,1.66,1.69,3.37,1.98,5.24,.35,.25-.22,.52-.41,.79-.6,2.76-2,5.73-2.74,8.85-.99,2.44,1.36,3.37,3.68,3.02,6.35-.5,3.75-2.44,6.91-6.21,7.57-3.78,.66-4.8,2.71-5.26,6-.66,4.74-1.8,9.41-2.5,14.15l-2.31,3.83Z"/>
      <path class="cls-2" d="M92.74,70.91c-1.42-.41-2.9-.17-4.33-.92-17.34-9.07-34.78-17.99-49.54-31.16-1.11-.99-2.22-2.01-3.25-3.09-4.16-4.35-4-4.25-7.91,.67-5.47,6.89-9.01,14.95-13.77,22.26-.84-2.11-.32-4.19,.5-6.1,3.72-8.63,8.48-16.56,15.66-22.84,1.41-1.23,2.41-2.14,4.04-.28,12.84,14.65,30.29,23.03,46.01,33.75,4.06,2.77,8.39,5.15,12.6,7.7Z"/>
      <path class="cls-7" d="M100.85,107.56c-1.14-6.57,1.58-12.74,1.98-19.15,.14-2.23,1.95-1.97,3.38-1.79,3.41,.44,5.24-1.48,6.61-4.15,1.41-2.77,1.45-5.58-.96-7.74-2.36-2.1-4.94-.93-7.44,.14-1.99,.86-2.6,4.59-4.75,3.69-2.77-1.17-4.91-3.8-6.03-6.89,3.51,2.33,6.54,2.59,10.23-.42,3.19-2.61,7.41-1.99,10.56,.81,2.59,2.3,3.71,5.64,2.91,9.03-1.02,4.32-3.01,8.77-7.87,9.24-4.16,.4-4.4,2.15-4.88,5.53-.56,4-2.43,7.81-3.73,11.7Z"/>
      <path class="cls-9" d="M77.72,52.43q-4.8-5.39-9.88-.35c-.48-3.12,1.81-6.3,4.87-6.43,4.19-.18,5.38,2.31,5,6.78Z"/>
      <path class="cls-5" d="M45.01,85.74c.77,2.01,1.14,3.63,1.95,4.97,2.41,3.98,7.73,3.9,10.14-.07,.34-.56,.43-1.29,.83-1.77,1.12-1.36,.39-5.05,3.17-3.93,1.86,.75,1.11,3.85,.37,5.83-1.48,3.96-6.43,6.81-10.84,6.33-3.86-.43-6.37-2.41-7.17-6.4-.35-1.72-.44-3.24,1.55-4.96Z"/>
      <path class="cls-3" d="M75.02,71.87c-.23,2.69,.2,5.79-3.12,5.59-2.91-.18-2.42-3.27-2.33-5.24,.1-2.15-.39-5.63,2.58-5.73,3.75-.12,2.19,3.66,2.87,5.39Z"/>
      <path class="cls-11" d="M34.92,72.43c-.19,2.28,.49,5.1-2.57,5.22-3.13,.12-2.75-2.73-2.75-4.77,0-2.42-.19-5.95,2.75-6.03,3.57-.1,1.98,3.68,2.57,5.58Z"/>
      <path class="cls-1" d="M27.49,54.12c1.01-3.7,1.28-6.91,4.73-7.28,2.82-.31,4.93,1.41,5.83,4.84-2.71,.15-3.57-3.01-5.7-2.69-2.28,.34-2.4,3-4.87,5.13Z"/>
    </g>
  </g>
</svg>