<?xml version="1.0" encoding="UTF-8"?>
<svg id="Layer_2" data-name="Layer 2" xmlns="http://www.w3.org/2000/svg" viewBox="0 0 162.49 154.44">
  <defs>
    <style>
      .cls-1 {
        fill: #308f8f;
      }

      .cls-2 {
        fill: #ebc8b6;
      }

      .cls-3 {
        fill: #f8cfba;
      }

      .cls-4 {
        fill: #fdd2ba;
      }

      .cls-5 {
        fill: #1e1919;
      }

      .cls-6 {
        fill: #afdfe0;
      }

      .cls-7 {
        fill: #616262;
      }

      .cls-8 {
        fill: #4d4f4e;
      }

      .cls-9 {
        fill: #261d1b;
      }

      .cls-10 {
        fill: #4d4e4f;
      }

      .cls-11 {
        fill: #606061;
      }

      .cls-12 {
        fill: #241f1e;
      }

      .cls-13 {
        fill: #0e0e0e;
      }

      .cls-14 {
        fill: #1f1b1a;
      }

      .cls-15 {
        fill: #2b2420;
      }
    </style>
  </defs>
  <g id="Layer_1-2" data-name="Layer 1">
    <g>
      <path class="cls-13" d="M100.29,153.13c-.76,.75-1.43,1.75-2.75,1.11-2.5-2.95-2.58-6.37-1.87-9.92,.5-2.51,.63-4.94-.78-7.25-2.53-4.15-1.64-8.71-1.45-13.16,.04-.97,.29-2.13,1.38-2.46,1.37-.41,2.09,.7,2.74,1.65,.78,1.13,.94,2.46,1.19,3.78,.9,4.69,2.02,5.46,6.82,4.78,10.21-1.44,11.85-5.08,6.22-13.88-2.67-4.18-6.44-7.14-10.76-9.46-1.77-.95-3.48-.92-5.27-.12-1.98,.89-3.97,1.83-6.11,2.17-3.72,.6-5.57,2.47-6.6,6.28-2.07,7.7-10.52,10.16-15.47,4.87-1.17-1.25-2.42-2.73-1.37-4.41,1.16-1.87,2.62-.26,3.85,.29,1.22,.54,2.4,1.27,3.78,1.06,2.26-.34,3.86-1.73,3.58-4.01-.28-2.37-2.47-1.66-4.04-1.59-1.36,.06-2.53,.77-3.67,1.47-3.71,2.28-7.36,2.99-10.99-.25-1.01-.9-2.3-1.35-3.72-1-1.11,.27-1.74,1.02-1.73,2.13,.01,1.3,.93,1.56,2.05,1.57,2.09,.01,5.48-1.69,5.36,2.06-.1,3.19-3.38,4.27-6.32,4.58-3.39,.35-5.86-1-6.81-4.46-.59-2.13,0-4.97-3.28-5.4-3.87-.5-7.95-2.58-11.56,.24-3.84,3-6.58,7.04-8.62,11.48-1,2.17-.53,4.06,1.77,4.91,2.47,.91,2.51-1.44,3.16-2.83,.78-1.66,1.44-3.82,3.72-3.28,2.25,.54,2.27,2.94,1.87,4.6-1.51,6.18,.26,12.26,.2,18.39-.02,2.3,.24,4.75-2.13,6.29-.74-.04-1.47-.07-2.21-.11-2.38-4.53-1.06-10.05-3.95-14.95-1.57,4.51-.67,9.14-2.86,13.05-2.85,2.47-3.92,.75-3.95-1.94-.03-2.81,.43-5.63,.81-8.43,.48-3.55,1.02-6.63-1.4-10.26-2.27-3.39,.36-7.61,2.07-11.22,1.81-3.81,7.09-6.7,6.9-9.82-.19-3.09-6.44-4.06-9.33-7.14-7.03-7.48-9.24-16.72-10.16-26.42-.33-3.41-.85-5.98-3.82-8.51-5.99-5.09-6.34-16.86-1.14-23.85,1.58-2.13,1.87-3.57,.92-6.13-2.77-7.53,1.88-15.69,10.25-18.17,2.29-.68,3.65-1.58,4.77-3.7,3.93-7.43,11.59-10.79,19.7-8.53,2.76,.77,4.21,.36,6.15-1.89,5.23-6.06,16.31-7.08,24.94-2.51,2.36,1.25,4.16,1.44,6.86,.69,8.14-2.26,16.2-2.62,22.06,5.23,.86,1.15,1.69,1.12,2.96,1.06,11.5-.51,18.35,5.31,19.42,16.44,.11,1.18-.09,2.46,1.33,2.86,1.44,.41,1.91-1.03,2.71-1.78,6.46-5.98,15.75-6.45,20.99-.69,2.92,3.21,5.28,6.97,2.61,11.63-.98,2.1-1.98,1.14-2.86-.04-1.02-1.36-1.13-3.09-1.77-4.61-2.12-5.08-7.28-7.04-12.26-4.72-2.61,1.22-3.61,2.82-1.73,5.41,1.29,1.92,1.98,4.31,4.05,5.61,3.82,2.41,4.47,5.87,3.72,9.98-1.1,5.99-.21,12.29-3.06,18.04-.96,1.94,.33,4.24,.27,6.4-.1,3.62-1.55,6.75-3.4,9.76-.77,1.25-1.84,2.66-.36,4.02,1.24,1.14,2.83,.8,4.24,.18,2.54-1.11,4.44-3.02,5.5-5.53,1.31-3.11,3.41-4.49,6.81-4.82,6.56-.63,8.42-4,5.37-9.83-1.63-3.12-1.42-5.57,.69-8.22,2.29-2.87,3.18-6.16,2.22-9.81-.84-2.75-3.09-4.12-5.29-5.64-1.32-.91-3.56-1.99-.88-3.96,9.05-1.74,15.16,11.53,10.11,19.97-1.78,2.98-2.31,5.33-1,8.82,2.6,6.92-2.02,13.43-9.58,14.09-2.52,.22-3.81,.53-4.99,3.34-3.43,8.18-13.24,9.71-19.06,3.39-.54-.59-.84-1.42-1.93-1.06-1.09,.37-1.48,1.01-1.55,2.19-.49,8.24-5.7,12.64-13.27,15.6,5.76,4.85,9.6,10.63,10.87,17.91,.29,1.65,.98,3.54-.14,4.84-5.12,5.95-2.67,12.78-2.58,19.35,.03,2.47,.51,5.76-3.82,3.26-2.42-2.7-1.25-6.02-1.52-9.08-.22-2.55-.11-5.13-3.79-5.22-4.06-.1-5.96,1.46-6.37,5.19-.37,3.36,1.14,7.04-1.65,10Z"/>
      <path class="cls-6" d="M32.69,153.37c1.28-2.64,1.63-5.54,1.12-8.29-1.1-5.94-1.82-11.79-.2-17.75,.26-.96,.72-2.58-.92-2.88-1.52-.28-1.64,1.32-2.1,2.3-.27,.6-.23,1.38-.6,1.88-1.06,1.44,.2,5.57-3.91,3.56-2.91-1.43-5.72-2.8-3.52-7.05,2.48-4.8,5.66-8.95,9.58-12.65,3.06-2.89,6.33-.8,9.48-.78,4.13,.02,8.32,.18,6.92,6.55-.46,2.11,1.37,3.78,3.57,4.09,3.87,.54,6.64-1.15,8.42-4.61-1.51-1.22-2.59-.2-3.82,.19-1.57,.49-3.41,2.65-4.81,.34-1.1-1.81-1.44-4.51,.51-5.93,1.82-1.33,4.95-2.06,6.44-.19,3.95,4.96,7.38,3.71,11.35,.27,2.37-2.06,5.42-.53,8.15-.74,1.29-.1,1.14,1.44,1.01,2.36-.34,2.38-1.21,4.48-3.55,5.66-2.26,1.14-4.21,.37-6.03-.97-.91-.68-1.68-1.55-3.36-3.14,.25,4.71,2.4,6.64,5.59,7.25,4.14,.79,8.91-.49,9.15-4.66,.43-7.53,5.55-7.72,10.54-10.09,5.97-2.83,10.16-1.66,14.73,1.92,5.78,4.53,10.45,10.34,9.7,17.63-.68,6.59-7.84,4.14-12.19,5.3-2.81,.75-6.21,.7-6.29-3.96-.05-2.53,.03-5.23-3.27-8.27,.69,6.31-2.54,11.59,2.32,16.3,.8,.78,.51,2.86,.43,4.33-.24,4.32-.72,8.64,.41,12.91-1.71-.82-3.52-.84-5.37-.84-19.83,0-39.66-.01-59.48-.03Z"/>
      <path class="cls-3" d="M100.29,153.13c.12-3.97,.5-7.96,.29-11.91-.17-3.17,.68-4.16,4.01-4.38,9.13-.61,8.67-2.77,8.86,7.93,.04,2.49,.11,4.97,.16,7.46-4.33,1.96-8.86,.94-13.32,.9Z"/>
      <path class="cls-11" d="M150.56,40.52c-1.05,2.02,.46,2.47,1.82,3.18,2.38,1.23,4.57,2.71,5.15,5.63,.73,1.42,.27,2.76-1.22,1.83-3.9-2.42-7.61-5.09-11.89-6.9-1.16-.49-1-2.33-1.17-3.64-.93-7.18-2.71-8.38-9.87-6.74-1.27,.29-2.49,1-3.86,.47-3.07-2.48-2.08-4.35,.86-6.02,7.13-4.07,14.11-1.08,16.12,6.88,.36,1.44-.43,4.17,2.81,3.08-.09,1.03,.06,1.92,1.25,2.22Z"/>
      <path class="cls-2" d="M23.67,151.36c.3-4.44,.6-8.89,.92-13.33,.08-1.1-.12-2.51,1.58-2.55,1.36-.04,1.94,.87,2.32,2.12,1.55,5.12,1.53,10.42,1.99,15.67-2.27-.63-4.54-1.27-6.81-1.9Z"/>
      <path class="cls-4" d="M99.49,100.34c-7.93,4.88-16.71,6.99-25.85,7.92-.99,.1-2.48-.42-2.92,.08-5.53,6.23-11.2,.31-16.74,.21-6.13-.11-12.3-.11-18.35-1.53-13.71-3.21-21.19-12.57-22.95-28.96-.85-7.95-1.08-15.93-.92-23.92,.05-2.71,.65-4.54,3.38-5.93,7.24-3.68,12.36-9.96,17.93-15.7,6.2,9.88,13.78,10.54,23.38,1.83,2.3-2.09,3.18-2.53,5.78,.01,4.68,4.59,10.51,3.01,15.83,.72,2.49-1.07,3.92-2.23,5.09,1.63,1.11,3.7,4.33,5.77,8.46,5.79,1.82,0,3.64,0,5.82,0-1.53,4.55,.4,7.68,3.76,10.03,2.29,1.6,2.63,3.6,2.08,6.05-.29,1.29-.75,2.61-.72,3.9,.05,2.06-1.26,4.71,.81,6.05,1.85,1.19,3.04-1.43,4.59-2.2,3.84-1.9,6.75-1.07,8.89,2.5,2.6,4.32,2.04,8.62-.51,12.71-2.5,4.01-6.39,4.38-10.56,3.51-1.25-.26-3.6-.73-2.78,.9,2.55,5.11-1.09,7.6-3.51,10.75-.38,.49-.77,1.15,.15,1.6,.46,.7,.55,1.39-.1,2.03Z"/>
      <path class="cls-10" d="M99.49,100.34c.03-.68,.07-1.35,.1-2.03,3.74,1.22,4.18-2.14,4.9-4.09,1.23-3.34,2.72-4.98,6.68-5.03,5.6-.07,10.66-6.87,11.26-13.96,.5-5.87-3.64-12.07-8.97-13.43-4.86-1.24-5.44-1.91-6.04-7-.24-2.02-1.59-3.18-3.13-4.26-3.15-2.21-4.85-5.04-3.35-8.95,.98-2.57-.11-3.37-2.5-3.26-1.33,.06-2.67,0-3.98,.21-5.7,.9-8.46-.28-9.51-5.77-.98-5.14-2.96-4.51-6.3-2.48-1.97,1.19-4.12,2.39-6.34,2.84-4.12,.84-8.08,.45-9.98-4.24-1.11-2.73-2.29-2.54-4.27-.64-2.87,2.75-6.17,5-9.69,6.91-5.37,2.92-10.3,.78-11.76-5.21-.34-1.41,.2-3.43-1.42-3.99-2.1-.72-2.38,1.83-3.51,2.83-6.81,6.04-12.11,13.71-20.25,18.33-2.37,1.35-2.54,4.14-2.89,6.59-.47,3.26-.8,6.55-1.2,9.95-3.99-3.94-4.34-12.95-.07-18.12,2.34-2.83,2.26-5.21,1.2-8.13,.63-4.82,3.16-8.35,7.47-10.5,2.31-1.15,4.14-2.66,5.57-4.81,4.47-6.72,11-9,18.63-7.64,3.64,.65,6.3-.09,9.19-2.22,8.47-6.26,15.43-6.4,24.36-.66,3.08,1.98,6.24,.95,9.15,.27,5.82-1.35,10.55,.04,14.38,4.42,1.82,2.08,3.95,2.73,6.58,2.86,6.74,.34,9.35,2.78,9.67,9.34,.16,3.35,2.31,5.1,4.5,6.77,4.59,3.5,8.06,7.43,7.46,13.72-.15,1.6,.88,2.8,1.82,3.98,1.85,2.35,3.66,4.73,5.11,7.35-1.69,4.57-3.33,9-2.56,14.2,.69,4.62-2.19,8.28-5.88,10.78-2.81,1.9-4.26,4.44-5.4,7.41-3.77,9.76-9.72,12.13-19.04,7.66Z"/>
      <path class="cls-8" d="M129.52,34.35c5.95-3.74,9.95-3.68,13.31-.24,1.93,1.97,1.71,4.2,1.64,6.48-.07,2.28,.29,3.8,3.14,3.84,3.68,.06,5.46,3.51,8.21,5.24,.91,.57,1.48,1.58,1.69-.36,2.04,4.26,1.01,8.12-1.98,11.38-2.15,2.34-2.88,4.25-.44,6.83,2.35,2.49,2.04,5.71,.8,8.43-1.17,2.57-3.84,3.7-6.73,3.35-3.54-.42-5.27,.97-6.57,4.35-1.49,3.87-4.62,6.46-9.14,6.67-1.58,.07-2.89-.31-3.87-1.74-1.15-1.67-.13-2.73,.75-3.96,3.22-4.48,5.33-9.21,3.27-14.88-.21-.59-.29-1.54,.03-1.95,4.4-5.62,1.9-12.6,3.74-18.74,.96-3.22,.29-6.4-3.39-7.87-3.15-1.26-2.69-4.76-4.46-6.85Z"/>
      <path class="cls-7" d="M132.37,60.29c-3.85-4.07-9.38-6.86-8.14-14.27,.51-3.07-2.2-6.12-4.97-8.23-3.84-2.93-8.01-5.2-7.07-11.63,.45-3.08-2.88-5.96-6.81-5.74-4.23,.23-7.26-.64-10.17-4.42-2.52-3.27-6.82-4.22-11.69-2.91-3.74,1-8.08,3.1-12.07-1.72-3.56-4.3-15.09-3.19-20.38,1.1-3.43,2.78-6.31,4.44-11.38,3.23-7-1.68-13.52,.76-17.42,7.58-1.3,2.27-2.91,3.84-5.54,4.59-4.74,1.35-5.47,6.36-8.23,9.54-2.03-6.02,.09-11.08,6.27-13.52,3.56-1.4,6.17-3.07,8.05-6.68,2.87-5.48,9.3-7.77,15.39-6.02,3.54,1.02,5.96,.67,8.6-2.38,4.82-5.57,14.48-6.54,21.58-2.34,3.25,1.92,5.75,1.85,9.23,.54,6.31-2.37,12.7-2.21,17.92,3.06,2.24,2.26,4.81,3.22,8.02,3.26,8.74,.1,13.86,5.15,14.01,13.81,.04,2.47,.84,4.03,2.92,5.27,4.79,2.87,8.75,6.21,6.67,12.79-.5,1.57,1.06,2.7,1.84,3.91,2.19,3.42,3.98,6.93,3.38,11.18Z"/>
      <path class="cls-1" d="M133.89,48.99c-1.17-1.68-3.87-2.12-2.67-4.8,.43-.95,1.29-.85,2.07-.32,1.74,1.2,2.43,2.64,.61,5.12Z"/>
      <path class="cls-5" d="M84.94,68.77c-.32,1.38-.58,2.83-.99,4.24-.36,1.24-1.36,1.95-2.59,1.92-1.28-.03-1.88-1.04-2.39-2.16-.79-1.74,.3-4.04-1.82-5.4-1.15-.74-1.94-1.97-.98-3.36,1.33-1.93,1.67,.64,2.59,.66,.27,0,.58-.06,.8-.2,5.84-3.65,4.64,1.36,5.38,4.31Z"/>
      <path class="cls-14" d="M50.19,89.48c.16-1.12-.23-2.55,1.02-3.1,1.41-.62,2.07,.44,2.4,1.7,.35,1.32,.92,2.87,2.32,2.92,1.55,.05,1.65-1.83,2.27-2.94,.67-1.21,.82-3.41,2.85-2.48,1.52,.7,1.07,2.56,.76,4.05-.68,3.23-2.28,5.72-5.89,5.55-3.4-.16-5.4-2.21-5.72-5.71Z"/>
      <path class="cls-12" d="M35.63,69.38c-.08,2.09-.51,4.41-2.69,4.84-2.58,.51-3.1-1.86-3.46-3.9-.06-.33-.04-.71-.21-.97-1.01-1.52-3.45-2.4-2.17-4.93,2.16,1.97,4.16-1.43,6.23-.23,1.94,1.13,2.39,3.06,2.3,5.18Z"/>
      <path class="cls-15" d="M38.89,50.42c-5.02-2.91-8.79-3.21-11.78,1.46-.15-3.92,1.17-5.82,4.43-6.47,3.2-.64,5.81,.14,7.36,5.02Z"/>
      <path class="cls-9" d="M87.42,52.11c-3.16-4-6.25-5.43-10.62-2.24,.93-4.26,3.34-5.11,6.03-4.58,2.74,.54,5.32,1.82,4.59,6.81Z"/>
    </g>
  </g>
</svg>