<?xml version="1.0" encoding="UTF-8"?>
<svg id="Layer_2" data-name="Layer 2" xmlns="http://www.w3.org/2000/svg" viewBox="0 0 150.04 162.24">
  <defs>
    <style>
      .cls-1 {
        fill: #221d1b;
      }

      .cls-2 {
        fill: #f7d1bc;
      }

      .cls-3 {
        fill: #0f0f10;
      }

      .cls-4 {
        fill: #0f0e0f;
      }

      .cls-5 {
        fill: #221a1a;
      }

      .cls-6 {
        fill: #86d0e3;
      }

      .cls-7 {
        fill: #fdd2ba;
      }

      .cls-8 {
        fill: #2d2e2e;
      }

      .cls-9 {
        fill: #606161;
      }

      .cls-10 {
        fill: #282120;
      }

      .cls-11 {
        fill: #141617;
      }

      .cls-12 {
        fill: #271f1d;
      }

      .cls-13 {
        fill: #fad1ba;
      }

      .cls-14 {
        fill: #4e4e50;
      }

      .cls-15 {
        fill: #241e1d;
      }
    </style>
  </defs>
  <g id="Layer_1-2" data-name="Layer 1">
    <g>
      <path class="cls-14" d="M146.8,73.16c-.02,1.02-.04,2.04-.06,3.05-2.22,.24-3.4,1.63-4.34,3.55-5.95,12.12-16.3,19.21-28.19,24.51-1.52,.68-3.11,1.27-4.63-.09-.33-.72-.3-1.42,.08-2.11,2.46-1.28,4.04-3.32,5.27-5.78,1.64-3.3,2.72-6.8,3.81-10.29,.94-3.01,2.38-4.68,5.97-4.75,5.41-.1,8.92-4.31,8.67-9.51-.26-5.38-4.45-9.27-9.92-8.74-3.41,.33-5.46-.36-5.87-4.14-.52-4.86-1.46-9.27-8.12-8.96-2.61,.12-2.52-2.54-2.39-4.62,.41-6.58,.27-6.73-6.21-6.78-2-.02-3.99,.02-5.98,.31-2.58,.37-4.59,.32-4.5-3.34,.07-2.8-2.34-1.82-3.74-1.46-4.67,1.22-9.25,2.75-13.71,4.64-1.07,.45-2.1,1.03-3.25,1.27-3.45,.71-4.66-.52-3.94-3.98,.92-4.43,.87-4.5-3.6-3.3-2.89,.78-5.78,1.59-8.63,2.5-1.9,.61-3.84,1.3-5.44-.8-1.21-1.58-2.77-.82-4.08-.18-11.63,5.69-21.52,13.23-26.86,25.57-.9,2.08-.74,4.23-.99,6.36-.18,1.56,.2,3.99-1.93,4-2.26,.01-2.4-2.39-2.51-4.22-.18-2.83-.05-5.66-.08-8.49-.03-2.51,.32-5.2-3.64-5.04-1.85,.07-1.92-1.59-1.78-2.94,.22-2.15,.51-4.32,1.27-6.36,.97-2.62,1.04-5.19,.04-7.79,.86-4.32,4.42-6.59,7.43-9.01,10.29-8.28,22.14-13.51,34.96-16.34,8.1-1.79,16.28-3.16,24.7-3.07,5.63,.06,8.43,4.2,12.14,6.99,1.72,1.29,.03,2.94-1.13,4.14,3.44,.78,5.96,.26,6.5-3.9,.5-3.88,3.21-4.28,6.32-3.44,6.32,1.72,12.06,4.74,17.62,8.14,5.14,3.13,9.78,6.87,14.06,11.11,1.63,1.62,3.48,3.11,5.68,4,1.96,.91,2.72,2.78,3.65,4.52,5.86,10.86,8.53,22.4,7.36,34.75Z"/>
      <path class="cls-6" d="M104.78,111.17l1.13,1.07c6.14,3.28,12.59,6.09,17.13,11.71,.94,1.16,2.03,2.2,2.74,3.53,1.91,3.6,1.17,6.08-2.5,7.64-4.48,1.9-9.28,2.52-14.07,3.08-3.41,.4-4.53-2.09-5.92-4.64,4.18,7.67,2.62,15.93,2.99,23.97,.06,1.28,.48,2.67-.61,3.79-19.21-.15-38.41-.15-57.61,.71-1.12-7.38,1.38-14.45,1.96-21.68,.18-2.31,.75-4.6,.26-7.52-3.99,2.75-7.6,.85-11.14-.79-4.17-1.93-4.55-4.2-1.53-7.77,1.19-1.41,2.63-2.54,4.23-3.46,8.51-4.89,17.77-6.12,27.38-5.55,1.41,.08,2.51,.86,3.47,1.8,3.11,3.03,6.18,2.19,8.73-.53,2.48-2.65,5.31-3.77,8.85-3.76,3.02,.01,5.87-1.15,8.8-1.75,1.89-.39,3.85-1.41,5.71,.15Z"/>
      <path class="cls-4" d="M104.78,111.17c-6,1.15-11.84,3.37-18.09,2.85-1.94-.16-2.46,1.31-3.36,2.44-4.24,5.28-7.15,5.48-12.12,.9-.45-.42-1.04-1.02-1.55-1-10.95,.27-21.97,.19-30.76,8.48-3.16,2.98-2.8,4.83,1.25,6.19,1.72,.58,3.38,1.39,5.12,1.92,1.65,.5,3.32,.8,3.76-1.7,.17-.95,.59-2.18,1.79-2,1.62,.24,1.13,1.78,1.18,2.84,.33,7.7-2.01,15.12-2.55,22.74-.17,2.41,.19,5.03-1.37,7.22-1.3,.55-2.19-.16-3.05-.99-1.64-1.46-1.17-3.3-.96-5.11,.54-4.61,1.17-9.22,1.77-13.82,.3-2.33-.35-3.97-2.84-4.38-2.46-.4-3.13,1.39-3.6,3.23-1.08,4.18-1.79,8.44-2.17,12.74-.21,2.34-.45,4.65-2.29,6.4-3.31,.92-2.62-1.64-2.63-3.24-.06-6.69,1.35-13.19,2.89-19.66,.31-1.29,.88-2.44,.36-3.84-2.52-6.78-1.3-10.63,4.7-14.58,2.02-1.33,4.2-2.42,6.66-3.81-4.1-1.55-7.8-2.77-11.35-4.32-13.42-5.86-19.79-16.52-20.61-30.83-.12-2.02,0-3.83-2.54-4.7-1.89-.64-2.13-2.79-2.59-4.56-.97-3.74-1.15-7.56-.93-11.39,.1-1.85,.29-3.3-2.44-2.65-3.78,.9-3.79-1.83-3.36-4.21,.75-4.21,1.84-8.35,2.8-12.58-1.81-1.19-4.23,1.62-5.48-.68-1.17-2.14,.4-4.22,1.42-5.99C8.72,21.06,19.1,13.08,31.76,7.95,55.11-1.5,78.82-2.68,102.84,5.23c2.81,.92,5.76,1.8,7.08,4.94-1.35,3.72-4.1,1.88-6.02,1.13-7.34-2.9-14.91-4.71-22.73-5.31-20.9-1.61-40.76,1.68-58.73,13.17-5.38,3.44-9.36,8.44-13.86,12.86-.88,.86-1.49,1.82-.69,3.07,2.71,1.47,2.18,3.73,1.54,6.08-.9,3.31-1.72,6.65-2.8,10.89,6.01-3.29,6.43-.23,6.36,4.03-.07,4.38-.61,8.84,.74,14.14,2.13-3.82,.47-7.21,1.79-10.18,6.24-14.02,17.08-22.89,31.15-28.24,1.76-.67,3.21-1.4,2.71,1.84-.36,2.33,1.47,.92,2.33,.67,4.14-1.2,8.25-2.49,12.37-3.73,1.45-.43,3.11-.92,4.26,.24,1.16,1.17-.25,2.44-.57,3.66-.39,1.47-2.65,2.85-1,4.32,1.36,1.21,3.12-.28,4.64-.83,5.15-1.86,10.25-3.85,15.46-5.53,1.66-.54,3.89-.99,5.31,.21,2.02,1.69-1.37,3.02-.94,4.56,3.98,0,7.86-.05,11.74,.01,5.52,.09,7,1.67,5.61,7.07-1.11,4.3-.55,5.78,4.07,4.14,1.9-.68,3.14,.79,3.98,2.28,1.24,2.18,2.22,4.59,2.15,7.07-.11,3.9,.98,5.01,4.96,3.73,4.11-1.32,7.08,1.4,9.2,4.49,2.54,3.71,2.58,7.96,.39,11.81-1.87,3.3-4.94,5.86-8.97,4.88-2.95-.72-3.43,.6-4.07,2.67-1.42,4.6-2.8,9.25-5.29,13.41-1.07,1.78-1.74,4.57-4.96,3.39-1.02-2.05,.34-3.55,1.33-4.98,3.08-4.46,5.1-9.34,6.17-14.61,.72-3.56,2.35-5.75,6.44-5.25,3.65,.45,5.15-1.77,5.32-5.05,.18-3.43-1.99-5.56-5.53-5.61-1-.01-1.99,.18-2.97,.36-3.52,.64-5.33-1.08-6.05-4.33-.36-1.62-.76-3.24-1.08-4.87-.57-2.85-2.1-4.15-5.12-4.38-5.69-.45-6.25-1.36-5.36-6.85,.79-4.9,.44-5.27-4.36-4.7-4.91,.59-9.88,1.91-14.2-2.07-1.2-1.11-2.89-.35-4.3,.14-3.3,1.15-6.58,2.35-9.9,3.44-7.94,2.61-9.52,1.53-9.39-6.6-1.77-.45-3.17,.69-4.7,1.15-2.55,.76-5.21,2.38-7.68,1.96-9.45-1.61-14.43,5.11-20.31,10.22-1.63,1.42-2.94,3.16-4.38,4.78-3.61,4.09-5.72,8.45-4.02,14.11,.66,2.2,.23,4.63,.24,6.96,.04,17.36,7.76,27.61,24.52,32.51,6.59,1.92,13.35,2.76,20.19,2.81,2.86,.02,6-.13,8.16,1.67,3.17,2.65,5.28,1.61,7.64-.82,1.29-1.33,2.94-2.35,4.76-2.59,8.25-1.06,16.24-3.27,24.21-5.5,8.27-1.52,14.88-6.2,21.12-11.4,5.02-4.19,8.93-9.33,11.56-15.39,.92-2.12,2.07-4.17,4.36-1.06-2.71,10.55-9.98,17.62-18.36,23.77-7.14,5.23-15.35,8.27-23.6,11.19Z"/>
      <path class="cls-9" d="M7.9,35.09c-3.98,.37-2.31-1.63-1.14-3,7.87-9.25,16.87-16.94,28.53-21.15,22.97-8.29,45.97-9.55,69.13-.79,1.71,.65,3.67,2.07,5.5,.02,.32,.34,.65,.68,.97,1.02,1.97,.33,3.78,4.64,5.93,.22,1.01,1.33,1.17,3.33,3.11,3.92,4.26,4.78,9.7,8.45,13.21,13.93,.96,1.49,2.43,2.78,1.79,4.86-3.22-.38-5.25-2.66-7.37-4.74-8.21-8.06-17.87-13.7-28.76-17.31-3.15-1.05-5.58-2.06-5.41,3.35,.14,4.79-5.28,5.76-11.47,2.05,1.54-.94,4.17,.48,4.5-1.83,.36-2.51-2.54-1.69-3.32-2.68-6.72-8.62-15.53-4.43-23.38-3.51-15.36,1.79-29.6,7.03-42.19,16.36-3.65,2.7-6.73,5.9-9.66,9.3Z"/>
      <path class="cls-11" d="M105.68,161.33c-.28-2.47-.67-4.94-.81-7.42-.34-6.07,.6-12.26-2.6-17.99-.81-1.44-.38-3.59-.47-5.41-.04-.69,.16-1.34,1-1.43,.8-.09,1.21,.47,1.41,1.1,.36,1.1,.72,2.22,.9,3.36,.45,2.87,1.95,3.99,4.84,3.33,4.21-.97,8.43-1.91,12.67-2.71,3.49-.66,3.97-2.47,2.4-5.33-3.36-6.1-8.55-10.01-14.85-12.66-1.83-.77-4.58-.73-4.24-3.92,2.33-.95,4.51-.29,6.71,.52,5.95,2.2,10.53,6.23,14.22,11.19,2.52,3.38,2.93,7.12,2.49,11.62-.7,7.18,.4,14.52,.56,21.8,.04,1.86,.48,5-3.28,2.83-2.5-4.77-.94-10.07-1.93-15.09-1.08-5.47-.68-5.58-6.11-4.42-9.16,1.96-9.07,1.95-8.47,11.24,.2,3.08,.9,6.33-1.16,9.17-1.04,.92-2.1,1.42-3.28,.22Z"/>
      <path class="cls-13" d="M108.96,161.11c-.31-5.63-.52-11.27-.99-16.89-.21-2.56,.66-3.7,3.19-3.78,3.84-.12,7.56-.97,11.2-2.12,2.95-.93,3.65,.22,3.67,2.99,.06,6.3,.38,12.6,.59,18.9-5.83,1.41-11.77,.85-17.67,.9Z"/>
      <path class="cls-3" d="M134.95,34.11c-3.35-5.8-7.61-10.83-13.04-14.74-1.56-1.13-2.38-2.18-1.97-4.06,7.67,.71,11.37,6.78,15.52,11.93,7.95,9.88,12.67,21.29,14.25,33.89,.53,4.26,.93,8.71-2.9,12.01-1.4-1.35-1.7-2.88-1.53-4.89,1.09-12.72-3.06-23.92-10.32-34.16Z"/>
      <path class="cls-2" d="M34.93,160.11c1.09-6.87,2.14-13.75,3.29-20.62,.44-2.64,1.18-4.79,4.83-3.33,2.54,1.02,5.43,.67,4.52,5.15-1.31,6.49-1.74,13.15-2.54,19.73-3.45,.64-6.66-1.31-10.09-.94Z"/>
      <path class="cls-8" d="M116.82,11.41c-.25,1.39,.49,3.93-.99,3.9-2.15-.05-4.04-1.83-4.94-4.12,.87,1.5,2.58-5.33,3.25,.38,.2,1.69,1.71-.71,2.68-.16Z"/>
      <path class="cls-7" d="M109.71,104.06c-5.76,4.11-12.63,4.84-19.27,5.94-4.37,.72-8.41,1.23-11.22,5.21-1.6,2.27-3.84,3-5.42-.09-1.05-2.06-2.64-2.16-4.52-2.22-8.96-.3-17.87-.8-26.49-3.7-15.77-5.29-22.94-14.5-23.89-31.08-.15-2.66,.18-5.43-.45-7.96-2.03-8.09,2.07-13.66,7.1-19.02,4.01-4.26,8.36-8.11,13.33-11.22,2.23-1.4,3.89-3.28,7.33-1.18,2.44,1.49,5.99-.94,8.98-1.84,2.81-.84,5.55-1.93,8.42-2.95,.79,1.8-.52,2.75-.84,3.91-.46,1.71-1.8,3.47-.18,5.1,1.58,1.58,3.52,.58,5.18,.04,5.04-1.64,10.05-3.41,15.03-5.24,1.93-.71,3.33-1.17,3.86,1.65,.4,2.14,2.47,1.93,4.11,1.83,4.15-.25,8.29-.55,12.43-.95,2.66-.26,3.3,.74,2.31,3.11-.32,.76-.52,1.57-.77,2.36-1.99,6.22-1.5,7.05,5.12,6.38,3.07-.31,4.29,.67,4.69,3.43,.17,1.15,.37,2.3,.65,3.43,.56,2.25,.57,5.04,1.95,6.59,1.77,1.98,4.27-.47,6.5-.71,2.92-.31,4.84,.89,6.15,3.24,1.57,2.81,1.63,5.8-.08,8.53-1.52,2.44-3.75,2.97-6.49,1.79-1.56-.67-3.58-.94-3.83,1.51-.86,8.38-5.47,15.13-9.34,22.21-.12,.63-.24,1.27-.35,1.9Z"/>
      <path class="cls-10" d="M49.76,69.32c-.43,1.66-1.48,2.51-2.89,1.63-3.36-2.08-6.56-1.64-9.85,.02-.78,.39-1.55,.42-2.24-.29-.77-.79-.37-1.48,.09-2.19,2.22-3.42,11.38-4,13.99-.86,.41,.49,.62,1.15,.9,1.69Z"/>
      <path class="cls-1" d="M97.95,70.4c-.3,1.8-1.53,2.48-2.49,1.59-3.28-3.05-6.8-2.77-10.56-1.39-.92,.34-1.61,.03-1.96-.88-.37-.96,.3-1.53,.89-2.1,3.21-3.13,10.33-2.67,13.02,.86,.48,.63,.8,1.4,1.09,1.92Z"/>
      <path class="cls-15" d="M62.04,85.37c.85-.11,1.09,.59,1.37,1.12,1.07,2.03,1.82,2.03,2.73-.17,.4-.97,1.26-2.17,2.66-1.22,1.09,.75,1.1,1.87,.7,3.09-.75,2.31-2.3,3.75-4.68,3.58-2.5-.18-3.55-2.11-3.86-4.43-.12-.89,.21-1.6,1.08-1.98Z"/>
      <path class="cls-12" d="M86.89,46.28c5.41-1.84,10.69,.04,12.95,4.03,.45,.79,1.31,1.71,.33,2.63-.98,.92-1.93,.21-2.53-.53-2.77-3.39-6.35-5.34-10.75-6.13Z"/>
      <path class="cls-5" d="M32.78,54.19c1.24-5.86,6.98-9.93,11.05-9.02,1.02,.23,1.97,.64,1.91,1.8-.05,.99-1.02,1.25-1.84,1.26-4.19,.06-7.62,1.75-11.12,5.95Z"/>
    </g>
  </g>
</svg>