<?xml version="1.0" encoding="UTF-8"?>
<svg id="Layer_2" data-name="Layer 2" xmlns="http://www.w3.org/2000/svg" viewBox="0 0 140.93 169.36">
  <defs>
    <style>
      .cls-1 {
        fill: #0f0f0f;
      }

      .cls-2 {
        fill: #f9f8f8;
      }

      .cls-3 {
        fill: #2b241e;
      }

      .cls-4 {
        fill: #252527;
      }

      .cls-5 {
        fill: #f1f0ef;
      }

      .cls-6 {
        fill: #4e4e4e;
      }

      .cls-7 {
        fill: #443b38;
      }

      .cls-8 {
        fill: #161415;
      }

      .cls-9 {
        fill: #fcd2ba;
      }

      .cls-10 {
        fill: #fdd2ba;
      }

      .cls-11 {
        fill: #646464;
      }

      .cls-12 {
        fill: #1b1617;
      }

      .cls-13 {
        fill: #0e1214;
      }

      .cls-14 {
        fill: #44434a;
      }

      .cls-15 {
        fill: #3c454b;
      }

      .cls-16 {
        fill: #3c464c;
      }

      .cls-17 {
        fill: #f1f1f0;
      }

      .cls-18 {
        fill: #efefef;
      }

      .cls-19 {
        fill: #1f2021;
      }

      .cls-20 {
        fill: #3e474d;
      }

      .cls-21 {
        fill: #3c464d;
      }

      .cls-22 {
        fill: #e0dfe0;
      }

      .cls-23 {
        fill: #fcfcfc;
      }
    </style>
  </defs>
  <g id="Layer_1-2" data-name="Layer 1">
    <g>
      <path class="cls-1" d="M22.94,167.32c-2.86-.74-6.84,2.13-8.3-.46-1.1-1.94,.81-5.63,1.5-8.52,1.68-7.09,3.5-14.16,6.22-20.92,2.22-5.5,4.41-11.13,10.85-14.5-5.73-2.44-10.92-3.33-15.68-5.49-4.41-2-7-5-8.54-9.61-3.82-11.46-2.97-23.65-5.78-35.16C1.44,65.31-.5,58.21,.12,50.58c.79-9.85,4.23-18.68,9.98-26.63,1.26-1.74,2.85-3.24,5.06-3.8,2.99-.8,2.97,1.09,2.49,2.99-.41,1.63-1.84,2.7-2.86,3.99-5.2,6.65-8.37,14.14-9.15,22.58,.15,6.39-.53,12.84,1.35,19.1,.96,.69,2.12,.67,2.63-.28,3.89-7.29,11.09-5.62,17.27-6.23,2.88-.29,5.95,.4,8.91,.83,2.52,.36,4.73,1.26,6.21,3.65,2.85,4.61,10.1,4.75,12.73,.14,2.12-3.72,5.52-4.71,9.22-4.93,6.48-.37,12.97-.3,19.46-.03,4.31,.18,8.13,1.62,10.94,5.14,1.18,1.47,2.68,2.44,4.65,2.61,3.54,.32,4.52-.79,3.63-4.3-.41-1.61-1.11-3.15-1.45-4.77-.61-2.93-2.35-4.05-5.3-4.12-5.49-.13-10.92-.97-16.26-2.29-1.45-.53-2.97-.65-4.5-.7-15.1-2.63-30.14-5.58-44.83-9.95-3.72-1.11-5.54-.21-7.3,2.78-3.3,5.59-6.68,11.13-9.92,16.77-1.3,2.27-1.87,6.11-6.13,5.14-1.47-2.7-.35-5.23,.73-7.63,2.96-6.52,6.14-12.98,10.91-18.38,2.15-2.43,1.95-7.01,5.84-7.51,3.13-.4,5.88,2.03,8.91,2.93,13.74,4.11,27.91,6.21,41.9,9.14,6.67,1.4,13.37,2.68,20.07,3.95,6.96,1.31,10.88,5.29,11.9,12.21,.44,2.99,1.17,5.79,2.89,8.39,1.55,2.33,1.2,4.46-1.91,5.38-1.32,.08-2.64,0-3.95-.15-4.56-.51-8.18,.22-9.07,5.71-.28,1.77-1.39,3.55-3.63,3.4-2.13-.14-2.37-1.95-2.59-3.63-.03-2.5,.76-4.9,.76-7.41,.01-3.61-1.67-5.68-5.28-5.88-6.96-.37-13.92-.2-20.89-.09-2.35,.04-3.5,1.23-3.85,3.64-1.13,7.8,1.22,10.79,9.09,11.32,3.02,.2,5.93-.6,8.9-.73,3.44-.16,6.96-.8,10.28,.76,1.93,3.92-1.27,4.97-3.67,5.31-7.21,1.02-14.44,2.43-21.81,.58-4.83-1.21-8.26-3.53-9.16-8.62-.5-2.84-1.66-4.45-4.87-4.44-3.34,0-5.13,1.22-6.02,4.59-1.56,5.91-4.22,7.9-10.27,8.33-4.17,.3-8.3,.08-12.42-.83-5.4-1.21-9.65-3.57-10.72-9.61,.77,8.11,2.41,16.02,3.75,23.97,.91,5.44,3.79,8.47,8.81,10.34,9.88,3.68,20.22,5.57,30.3,8.47,2.43,.7,6.12,.75,5.11,5.13-.55,.71-1.32,.88-2.17,.97-1.03,.11-2.5-.55-2.74,1.23-.06,.49,.42,.88,.89,1.08,1.37,.56,2.18-.24,2.88-1.25,.28-.41,.56-.82,.88-1.21,1.27-2.49,3.09-3.77,6.05-3.06,1.63,.39,3.44,.44,4.9-.37,11.74-6.53,25.44-8.97,36.28-17.42,2.88-2.24,5.92-4.29,8.79-6.55,12.38-8.41,20.88-19.35,22.7-34.68,.96-8.1-.25-15.88-3.3-23.4-7.26-19.13-21.68-29.69-41.08-34.11-12.58-2.86-25.29-3.52-38.13-1.66-7.6,1.1-13.95,5.26-20.98,7.73-2.25,.79-4.92,2.8-6.67-.9C34.67,6.01,45.24,1.38,57.05,.45c17.58-1.38,34.88,.15,51.1,7.84,26.64,12.62,39.78,45.16,29.01,71.79-4.12,10.18-11.33,17.67-20.5,23.65-6.61,4.3-12.07,10.24-20.07,13.79,6.42,2.89,12.54,3.78,18.08,6.41,4.65,2.21,7.83,5.42,9.69,10.11,3.96,9.97,5.66,20.41,6.34,31.04,.18,2.86-.2,3.93-4.14,3.6-8.37-.7-16.87,.09-25.32,.26-1.05-.32-1.81-1.02-1.94-2.07-.71-5.97-.6-11.95-.07-17.93,.12-1.39,.91-2.73,2.42-2.79,1.72-.07,2.68,1.36,3.11,2.81,1.22,4.17,2.15,8.46,1.68,12.79-.37,3.51,.98,4.33,4.16,4.13,3.65-.23,7.32-.08,10.99-.05,2.7,.02,4.01-.91,3.56-3.89-1.21-8.07-2.35-16.13-5.21-23.85-1.85-5-4.98-8.49-10.1-10.29-3.61-1.27-7.18-2.65-11.25-3.88,.08,1.84,1.08,3.16,1.59,4.59,2.22,6.26,1.38,8.99-4.48,11.73-3.31,1.55-4.56,3-1.99,6.23,1.99,2.49,.83,4.75-1.13,6.61-6.28,5.97-13.17,11.17-20.38,15.95-1.3,0-2.61,0-3.91,0,1.04-9.48-3-18.04-4.79-28.26-1.81,3.37-2.1,6.05-2.63,8.58-.81,3.9-2,7.68-3.04,11.51-1.48,5.45-1.45,5.48,4.03,6.06,1.62,.17,3.83-.51,4.31,2.12-5.29,0-10.58,.74-15.86-.04-.83-3.6-3.42-5.97-5.91-8.41-2.13-2.09-4.19-4.25-6.13-6.55-2.6-3.07-3.72-6.25-1.7-10.03,1.08-2.03,1.08-3.7-1.16-5.07-1.92-1.17-3.61-2.89-2.67-5.32,1.21-3.11,2.97-6.34,6.28-7.33,2.72-.81,2.65,1.52,2.04,3.49-1.58,5.09-1.6,5.19,3.57,6.69,2.01,.58,2.31,1.54,1.64,3.26-.43,1.1-1,2.09-1.69,3.04q-4.37,5.97,1.75,10.53c1.05-.45,.76-1.44,.61-2.12-1.5-6.52-.24-13.16-.89-19.72-.52-5.19-3.9-7.14-8.48-4.76-4.37,2.27-7.37,5.72-9.17,10.13-3.63,8.92-5.98,18.26-8.71,27.41,2.17,1.47,5.06-.14,6.68,2.5-.95,1.34-2.2,.88-3.41,.58Z"/>
      <path class="cls-21" d="M72.2,169.04c3.06-4.27,7.56-6.9,11.54-10.12,2.32-1.87,4.55-3.87,6.92-5.67,3.19-2.42,4.1-4.77,.75-7.92-1.67-1.57-3.14-3.49,.65-5.06,9.72-4.03,9.65-4.17,5.87-13.78-.47-1.2-.75-2.47-1.28-4.25,6.78,1.41,13.02,3.27,18.4,6.63,6.44,4.03,7.28,11.63,9.02,18.29,1.41,5.41,1.87,11.06,2.89,16.58,.43,2.33-.14,3.49-2.66,3.48-5.66-.04-11.32-.05-16.97,.02-1.95,.03-2.57-.55-2.28-2.61,.66-4.65-.31-9.26-.93-13.85-.21-1.57-.55-3.9-2.46-3.81-1.86,.09-1.46,2.33-1.36,3.73,.41,6.08-1.11,12.26,.95,18.25-9.68,.03-19.36,.06-29.05,.09Z"/>
      <path class="cls-16" d="M22.94,167.32c.75-.24,1.49-.48,3.62-1.17h-8.95c4.41-11.95,5.78-24.47,12.7-35.04,3.34-5.1,9.18-7.35,14-5.95,1.65,.48,2.83,1.16,2.8,2.93-.15,9.09,.35,18.16,1.34,27.64-4.63-1.14-6.56-4.7-9.24-7.23-1.33-1.25,.34-2.06,1.04-2.79,2.19-2.26,4.34-4.53,5.98-7.97-3.43,.58-6.58-.03-8.21-2.67-1.9-3.07,3.16-4.75,2.36-8.32-3.81,1.09-5.09,4.6-6.76,7.25-1.3,2.05,1.17,3.51,3.02,4.29,2.56,1.08,3.66,2.1,1.68,4.99-2.16,3.15-2.61,6.33,.68,9.76,3.32,3.47,6.76,6.86,10.05,10.36,1.57,1.67,2.99,3.24,1.25,5.6-2.8,.14-5.61,.31-8.32-.69-1.12-1.39-2.65-.57-3.95-.61-5.25-.14-5.25-.07-5.19-5.55,.04-4.14,.04-8.27-.02-12.73-1.31,4.13-1.18,8.08-1.25,12.02-.04,2.26,.48,4.68-1.31,6.62-2.47,.02-4.94,.06-7.32-.74Z"/>
      <path class="cls-11" d="M25.31,13.31c2.21,2.11,4.44,.8,6.35-.29,13.48-7.66,28.03-10.03,43.25-8.68,18.02,1.6,35.1,5.64,47.94,19.89,4.74,5.26,8.47,11.05,10.52,17.86-1.75,.76-1.95,.87-2.73-.55-2.86-5.21-7.3-8.96-11.41-13.08-11.89-11.9-26.7-16.81-42.9-19.05-10.46-1.45-20.7-.74-30.43,2.9C29.51,18.42,16.3,28.6,8.41,44.76c-.87,1.78-1.04,4.41-4.01,4.32,.95-9.36,4.74-17.45,10.82-24.57,1.1-1.29,4.29-2.99-.06-4.36,2.83-.14,1.1-5.34,4.89-4.4,.48-3.56,3.75-1.1,5.26-2.43Z"/>
      <path class="cls-20" d="M66.17,169.04c-2.09-1.6-4.53-.87-6.76-.78-3.72,.16-4.97-1.29-3.82-4.75,2.45-7.4,4.32-14.95,5.69-22.62,.19-1.04,.55-2.1,1.66-2.18,1.52-.1,1.81,1.37,2.07,2.41,1.72,6.91,3.39,13.83,4.95,20.77,.58,2.57-.79,4.83-1.66,7.15-.71,0-1.42,0-2.12,0Z"/>
      <path class="cls-13" d="M30.26,168.06c-.1-6.42-.37-12.86,.92-19.21,.23-1.15-.63-3.2,1.28-3.14,1.9,.06,1.7,2.09,1.71,3.54,.03,4.46,.47,8.98-.12,13.36-.59,4.36,1.26,4.95,4.76,4.61,1.38-.13,2.81,.16,4.21,.25-.05,.13-.05,.31-.15,.37-.28,.18-.58,.31-.88,.45-3.91-.08-7.82-.16-11.73-.25Z"/>
      <path class="cls-6" d="M4.4,49.08c3.51-4.76,5.1-10.66,9-15.18,12.22-14.16,26.83-23.79,46.05-25.81,17.83-1.87,34.37,1.77,49.56,10.7,9.14,5.37,16.99,12.62,22.52,21.98,.34,.57,.18,2.39,1.85,1.32,8.32,19.16,2.49,41.96-13.73,54.42-2.09,1.61-4.23,3.16-6.34,4.74-.63-.54-.8-1.26-.79-2.05,.2-3.43,1.59-5.62,5.11-7.01,4.82-1.9,6.74-7.75,4.81-12.59-1.72-4.32-7.02-5.37-10.74-2.23-1.11,.93-1.29,2.8-3.1,2.98-1.64-1.3-1.59-2.72-.3-4.22,1.46-.81,2.79-2.51,1.41-3.51-4.19-3.04-3.29-7.75-4.27-11.71-1.21-4.87-3.97-7.41-8.63-8.35-17.13-3.46-34.25-6.99-51.41-10.33-6.04-1.17-11.87-2.9-17.56-5.19-2.44-.98-3.81-3.12-5.51,1.86-1.69,4.95-6.67,8.87-9.22,13.93-2.51,4.99-6.02,9.61-5.8,15.61,.56,1.05,.4,1.76-.9,1.94-2.9-6.9-2.28-14.13-2.01-21.32Z"/>
      <path class="cls-10" d="M108.29,76.14c.65,1.23-1.21,3.05,.94,3.92,2.17-2.94,5.2-3.5,8.41-2.52,2.58,.79,4.07,2.93,4.15,5.64,.09,3.24-1.36,6.3-4.33,7.21-5.02,1.55-5.11,4.83-4.36,8.86,.07,.67,.14,1.34,.2,2-9.48,8.52-20.49,14.38-32.45,18.57-3.4,1.19-6.83,2.11-9.79,4.48-2.54,2.04-5.94,2.42-9.02,1.57-2.66-.73-3.52,.75-4.61,2.4-.8-.12-1.3-.55-1.43-1.38,2.33-3.32-1.24-3.02-2.42-3.36-6.53-1.87-13.15-3.45-19.75-5.11-20.18-5.08-20.24-5.06-24.18-24.92-1.03-5.2-1.57-10.51-2.27-15.77-.17-1.25-.64-2.96,1.29-3.18,1.76-.2,1.33,1.45,1.52,2.51,1.25,7.26,2.91,8.89,10.01,10.29,3.12,.62,6.24,.92,9.41,.89,8.87-.07,10.32-1.14,11.93-9.76,.44-2.37,1.17-3.58,3.79-3.26,1.8,.22,3.67,.18,5.48,0,2.56-.26,3.27,.71,3.59,3.27,.95,7.72,2.51,8.92,10.36,10.1,6.53,.98,12.96,0,19.38-.74,1.78-.21,4.75-.18,4.2-3.61,.06-1.03,.11-2.07,1.6-1.88,.42,.96-.41,2.5,1.24,2.88,1.47,.34,2.01-.83,2.59-1.83,.16-.28,.29-.6,.37-.91,.65-2.47-.14-6.53,2.13-7.11,3.79-.96,8.12-.98,12.03,.75Z"/>
      <path class="cls-9" d="M6.41,70.4c.3-.65,.6-1.29,.9-1.94,2.4-.71,2.95-2.99,4.04-4.8,4.19-6.97,8.33-13.97,12.53-20.94,.71-1.18,1.08-2.69,3.32-1.77,11.6,4.74,24.05,6.23,36.12,9.16,3.84,.93,7.77,1.47,11.66,2.19,.75,1.95-1.66,1.6-1.92,2.82,2.84,1.78,4.24-.96,6.17-2.13,6.4,1.01,12.75,2.38,19.27,2.36,1.45,0,2.63,.25,3.11,1.84,1.2,3.97,2.45,7.93,3.59,11.91,.15,.52,.03,1.39-.32,1.72-1.37,1.32-9.76-.14-10.76-1.9-1.78-3.12-4.34-4.96-7.93-5.32-7.97-.81-15.96-.72-23.92-.12-2.18,.17-4.7,.49-6.03,2.92-.94,1.71-.49,5.1-2.25,5.13-3.61,.07-7.24,.07-10.86,.16-1.3,.03-1.82-1.29-1.81-2.58,.02-3.25-2.18-4.22-4.82-4.64-6.45-1.02-12.93-1.17-19.38-.19-2.59,.4-5.14,1.23-6.09,4.36-.69,2.29-2.34,3.09-4.61,1.75Z"/>
      <path class="cls-23" d="M89.94,82.35c-.53,.63-1.07,1.25-1.6,1.88-3.14-.85-6.26,.03-9.39,.17-2.65,.12-5.3,.64-7.95,.58-14.59-.34-12.55-2.48-12.82-15.11-.05-2.17,1.56-2.37,3.03-2.42,8.47-.33,16.95-.43,25.42,.1,3.12,.19,4.21,2.23,4.47,4.97,.31,3.36-.31,6.62-1.16,9.85Z"/>
      <path class="cls-15" d="M84.25,137.94c.38,3.41,2.35,5.82,4.27,7.88,2.91,3.1,2.18,4.7-1.08,6.78-3.95,2.52-7.55,5.6-12.21,9.13,3.44-11.01,6.55-20.88,9.6-30.76,.68-2.2,1.5-4.37,1.45-6.77-.06-2.55,2.03-3.37,3.95-3.77,2.19-.46,3.25,1.2,3.9,3.04,.39,1.09,.73,2.2,1.03,3.32,2.42,8.97,2.33,8.77-6.15,12.57-2.38,1.07-2.9-1.36-4.76-1.42Z"/>
      <path class="cls-2" d="M28.35,84.02c-1.65,0-3.33,.17-4.96-.03-8.28-1.02-11.35-5.85-9.13-13.88,.49-1.78,1.64-1.7,2.93-1.96,5.95-1.17,11.86-.49,17.79,.15,1.76,.19,2.71,1.02,2.8,2.81,.05,.99,.16,1.98,.2,2.97,.34,8.74-.99,10.13-9.64,9.93Z"/>
      <path class="cls-5" d="M79.68,135.13c-2.43,7.35-4.6,13.93-6.78,20.51-.31-.01-.62-.03-.93-.04-1.46-5.66-2.95-11.32-4.37-16.99-.3-1.18,.4-2.28,1.5-1.53,3.84,2.64,6.46-.74,10.57-1.95Z"/>
      <path class="cls-18" d="M50.48,132.96c3.21,3.06,7.43,1.89,8.22,4.31,.74,2.26-1.01,5.34-1.69,8.06-.96,3.83-1.94,7.66-3.26,12.87-2.46-8.63-2.64-16.16-3.27-25.23Z"/>
      <path class="cls-17" d="M73.59,134.09c-1.29,.24-2.27-.03-2.74-1.42-.48-1.42-1.34-3.08-.05-4.18,3.01-2.57,6.32-4.74,10.44-5.15,1.69-.17,1.84,.54,1.59,2.07-.9,5.6-3.79,8.4-9.24,8.7Z"/>
      <path class="cls-14" d="M63.31,129.18c2.01,0,3.95-.24,3.93,2.57-.02,2.25-1,3.34-3.26,3.39-2.06,.04-3.58-.54-3.77-2.9-.2-2.42,1.02-3.29,3.1-3.06Z"/>
      <path class="cls-22" d="M56.01,126.89c.48,.46,.95,.92,1.43,1.38-.52,1.5-.6,3.39-2.52,3.83-1.51,.35-3.08-.24-4.13-1.24-1-.94-.89-2.61-.31-3.73,.77-1.5,2.35-.43,3.58-.5,.65-.04,1.31,.16,1.96,.25Z"/>
      <path class="cls-7" d="M79.23,52.99c-1.81,1.23,1.85,3.59-.65,4.26-2.42,.64-4.95-.71-7.58-.55-1.31,.08-1.04-1.76,.13-2.48,1.21-.75,2.56-1.28,3.84-1.91,1.5-.26,3.02-.67,4.25,.68Z"/>
      <path class="cls-8" d="M113.1,99.24c-2.22-1.66-1.76-4.09-1.82-6.36-.1-3.62,2.9-2.32,4.68-2.9,3.77-1.23,5.74-5.08,4.27-8.74-1.58-3.95-4.51-3.77-7.79-2.36-1.04,.45-2.14,.78-3.21,1.17,.13-4.64,3.43-5.46,7.07-5.88,3.96-.46,6.41,1.93,7.65,5.05,2.49,6.25-.56,13.18-7.01,14.63-3.82,.85-1.74,4.28-3.85,5.4Z"/>
      <path class="cls-12" d="M42.79,95.01c3.08,1.37,1.88,5.93,5.12,5.86,2.94-.06,3.03-3.5,4.36-5.46,.48-.71,1.03-1.38,1.97-1.11,1.28,.37,1.03,1.55,1,2.47-.11,3.24-1.75,5.71-4.55,7.11-1.92,.96-4.22,1.24-6-.53-2.24-2.22-3.13-4.86-1.9-8.34Z"/>
      <path class="cls-3" d="M21.56,58.2c.66-2.98,2.48-3.27,4.3-3.29,1.75-.02,4.21-.21,4.05,2.3-.14,2.12-2.32,.91-3.62,.97-1.45,.07-2.91,.02-4.73,.02Z"/>
      <path class="cls-4" d="M71.97,75.92c.53-2.01-.25-5.39,2.61-5.5,2.29-.09,2.69,3.04,2.57,5.1-.11,1.92,.22,4.83-2.75,4.91-2.91,.08-2.29-2.55-2.44-4.51Z"/>
      <path class="cls-19" d="M28.31,76.25c-.03,1.94,.22,4.62-2.49,4.35-2.53-.26-2.6-3.01-2.63-5.16-.03-2.02,.24-4.77,2.49-4.64,2.9,.16,2.71,3.13,2.63,5.46Z"/>
    </g>
  </g>
</svg>