<?xml version="1.0" encoding="UTF-8"?>
<svg id="Layer_2" data-name="Layer 2" xmlns="http://www.w3.org/2000/svg" viewBox="0 0 134.75 137.04">
  <defs>
    <style>
      .cls-1 {
        fill: #e9cdbc;
      }

      .cls-2 {
        fill: #edc9b5;
      }

      .cls-3 {
        fill: #1b1613;
      }

      .cls-4 {
        fill: #faae60;
      }

      .cls-5 {
        fill: #25201e;
      }

      .cls-6 {
        fill: #211b1b;
      }

      .cls-7 {
        fill: #fdd2ba;
      }

      .cls-8 {
        fill: #8e7157;
      }

      .cls-9 {
        fill: #251f1f;
      }

      .cls-10 {
        fill: #1f1718;
      }

      .cls-11 {
        fill: #f27125;
      }

      .cls-12 {
        fill: #1a110f;
      }

      .cls-13 {
        fill: #1c130f;
      }
    </style>
  </defs>
  <g id="Layer_1-2" data-name="Layer 1">
    <g>
      <path class="cls-12" d="M29.53,135.54c-3.51,2.3-3.39-.64-3.14-2.49,.9-6.61-2.49-13.37,2.04-20.85-4.21,1.46-7.11,1.75-10.01,.7-1.38-.5-2.94-1.48-2.14-2.72,2.52-3.88-.92-4.96-2.69-7.02C6.39,94.75,1.94,85.01,.57,74.06-4.47,33.95,24.9,7.15,54.8,1.55c11.91-2.23,23.8-2.19,35.54,1.08,3.13,.87,6.53,1.52,8.38,4.76,.24,1.51-.83,1.83-1.93,2.14-6.75-.91-13.19-3.37-20.04-3.88-18.56-1.4-35.39,3.17-49.78,15.07C16.6,29.29,8.93,39.97,6.7,53.6c-2.75,16.8-.42,32.53,11.19,45.91,1.2,1.38,2.37,2.79,3.37,4.33,3.02,4.67,4.84,5.17,9.68,2.29,3.42-2.03,6.42-4.77,10.89-6.47-3.01-.61-5.43-1.03-7.81-1.61-16.24-4-23.17-13.29-24.97-30.01-1.69-15.67,6.04-25.65,17.47-33.98,12.62-9.21,27.4-12.53,42.51-14.71,4.61-.67,9.21-1.47,13.91-.99,5.35,.54,6.32,1.98,8.1,7.05,2.85,8.1,4.03,16.43,4.94,24.86,.43,4.02,2.25,2.39,4.3,1.37,4.85-2.4,9.87-1.51,13.26,2.16,3.38,3.66,3.97,8.73,1.49,12.94-1.41,2.4-3.51,4.21-6.1,4.91-3.87,1.05-5.6,3.57-6.79,7.14-1.16,3.45-2.86,6.74-4.41,10.05-1.55,3.32-3.38,6.53-6.94,8.21-.52,.13-1.04,.13-1.56,0-2.38-1.54-1.24-3.6-.53-5.32,3.16-7.69,7.68-14.75,10.43-22.64,.52-1.49,1.88-2.27,3.43-2.63,1.29-.3,2.66-.44,3.82-1.12,2.34-1.39,4.17-3.31,2.46-6.07-1.6-2.58-4.1-2.51-6.52-.85-1.24,.85-2.19,2.04-3.36,2.98-3.89,3.14-6.66,2.36-8.11-2.5-1.54-5.12-1.92-10.46-2.64-15.73-.68-4.95-1.58-9.79-3.39-14.51-.99-2.59-2.23-3.94-5.01-3.69-19.43,1.75-38.34,5.08-53.95,18.12-4.47,3.73-9.31,7.62-9.8,13.88-.74,9.35-.44,18.72,5.4,26.81,2.42,3.36,5.96,5.2,9.85,6.47,5.89,1.92,12.02,2.57,18.07,3.68,6.29,1.16,12.05,5,19.08,.76,3.05-1.84,8.09-.95,12.23-1.27,2.48-.19,5.08,.04,6.31,2.9-.27,3.24-2.78,3.36-5.09,3.47-6.44,.32-12.94,.19-18.55,4.28-1.22,.89-2.86,.57-4.36,.26-11.6-2.36-22.89,3.6-27.89,14.8,.9-.36,.89-1.22,1.29-1.79,.95-1.36,1.93-3.21,3.76-2.61,1.92,.63,1.52,2.75,1.27,4.35-.36,2.38,.09,4.59,.7,6.86,.9,3.34,.74,6.57-1.59,9.39-.96,.69-1.94,1.12-3,.2-1.78-1.65-.84-4.09-1.97-6.52-1.23,2.27-.22,4.92-2.02,6.53Z"/>
      <path class="cls-4" d="M36.51,135.33c2.47-6.68-2.34-13.29,.51-20.57-3.42,1.11-3.83,3.46-4.51,5.47-.43,1.25-.29,2.9-2.31,2.27-2.04-.64-1.72-2.02-.95-3.56,4.11-8.14,10.22-13.86,19.37-15.71,3.58-.72,7.2-2.65,10.89,.2,1.05,.81,3.35,.83,4.15-.5,3.3-5.51,8.8-3.21,13.39-4.13,3.27-.65,7.11,1.23,9.76-2.19,.91-.06,1.32,.59,1.75,1.21,1.35,2.29,3.8,3.16,5.88,4.5,5.81,3.74,10.16,8.65,11.85,15.48,1.48,5.98-.12,8.24-6.2,9.28-5.36,.92-10.52,1.08-14.21-3.99-.15,4.43,2.18,8.81,.24,13.28-16.55,.25-33.08-.51-49.61-1.03Z"/>
      <path class="cls-13" d="M86.12,136.36c.43-5.9-3.35-11.62-1.24-17.52,1.32-.26,1.47,.4,1.84,.94,1.3,1.88,.02,5.17,3.62,5.85,4.86,.91,9.6,.62,14.27-.7,1.61-.45,1.18-2.17,1.05-3.47-.91-9.17-6.5-14.93-14.05-19.27-1.92-1.1-4.63-1.57-4.04-4.8,.4-.41,.96-.48,1.46-.68,.39-.05,.79-.09,1.18-.14,4.04,.82,7.35,2.98,10.31,5.73,1.71,1.59,3.43,3.15,5.5,4.26,5.24,2.79,6.96,2.17,9.28-3.28,1.83-4.3,4.2-8.35,6.69-12.24,16.29-25.51,4.77-57.2-13.67-72.99-1.68-1.44-4.14-2.58-3-5.59,.73-.4,1.49-.38,2.25-.11,7.9,3.63,12.98,10.19,17.16,17.36,12.78,21.95,13.7,44.13,.64,66.42-2.8,4.78-6.61,9.12-6.26,15.34,.13,2.29-2.37,2.57-4.17,2.59-2.27,.02-4.55-.34-7.9-.63,5.3,7.82-.44,14.62-.3,21.79,.04,2.11-1.58,2.19-3.19,1.25-1.76-1.24-.5-4.46-2.73-4.96-2.71-.61-5.6,.09-8.38,.3-2.47,.19-1.5,3.96-3.81,4.77-.83-.07-1.66-.14-2.49-.21Z"/>
      <path class="cls-2" d="M88.61,136.57c.23-.96,.72-1.94,.64-2.88-.28-3.31,.86-4.64,4.27-3.66,1.08,.31,2.32,.2,3.47,.13q6.61-.37,6.54,6.3c-4.98,.03-9.95,.07-14.92,.1Z"/>
      <path class="cls-1" d="M29.53,135.54c.03-2.13,.08-4.26,.09-6.39,0-1.46,.33-2.53,2.14-2.6,2.06-.08,1.91,1.26,1.88,2.6-.04,2.13-.09,4.26-.13,6.39-1.33,0-2.65,0-3.98,0Z"/>
      <path class="cls-8" d="M107.57,12.34c-.71,.14-1.42,.28-2.13,.42-4.1,1.11-6.73-1.01-8.95-4.06,.95-.09,1.82-.33,2.24-1.32,3.55,.58,5.32,4.33,8.84,4.96Z"/>
      <path class="cls-7" d="M89.03,96.71c-.49,.23-.98,.45-1.46,.68-.25-.26-.5-.52-.74-.78-1.24-2.18-3.37-1.78-5.3-1.72-4.32,.13-8.64,.44-12.97,.56-1.76,.05-3.34,.33-4.38,1.85-2.29,3.35-4.27,2.61-7.23,.37-4.84-3.65-11.22-2.39-16.77-4-1.11-.32-2.3-.34-3.43-.59-15.38-3.43-20.5-10.57-22.34-26.21-1.57-13.39,5-21.36,14.71-28.04,16.2-11.15,34.72-14.39,53.89-15.11,1.05-.04,2.29-.41,2.68,1.37,1.76,8.03,4.05,15.93,4.77,24.19,.32,3.61,1.19,7.2,2.09,10.73,.83,3.27,2.78,3.41,5.03,1.19,1.18-1.17,2.16-2.53,3.33-3.71,1.93-1.95,4.22-2.61,6.8-1.41,2.15,1,3.38,2.91,3.48,5.11,.12,2.79-1.74,5.35-4.25,5.37-6.68,.06-7.41,5.06-9.31,9.53-2.59,6.1-5.6,12.02-8.47,18-.43,.9-1.11,1.69-.12,2.61Z"/>
      <path class="cls-11" d="M96.49,8.7c3.01,1.3,5.56,3.59,8.95,4.06,.2,2.34,2.31,3.1,3.71,4.43,18.23,17.39,26.36,37.9,19.24,62.99-1.78,6.28-5.58,11.65-8.66,17.33-1.42,2.62-3.57,5.24-3.85,8.01-.54,5.41-3.61,4.57-6.95,3.73-1.43-.36-3.08-.79-4.06-1.77-4.37-4.36-9.49-7.66-14.66-10.9,6.92-5.44,8.66-13.8,11.77-21.33,.89-2.16,1.46-3.48,4.13-3.91,4.97-.81,8.56-3.64,9.13-9.11,.47-4.51-1.62-7.79-5.48-9.77-4.67-2.4-8.67-.95-12.07,2.75-.32,.35-.77,.59-1.86,1.41-1.1-7.19-2.46-13.91-3.07-20.7-.44-4.84-4.07-8.57-3.87-13.63,.08-2.07-2.74-2.34-4.46-2.32-23.97,.25-46.58,4.48-64.95,21.75-11.49,10.8-10.26,23.78-6.84,37.03,3.14,12.18,12.88,16.58,24.1,18.73,2.61,.5,5.24,.91,8.06,1.78-7.13,2.03-11.26,9.53-19.22,10-2.18,.13-4.36,.63-4.46-2.83-.03-1.13-1.16-2.37-2.05-3.31C-5.85,76.8,.78,32.16,35.75,13.03,55.3,2.34,75.62,1.4,96.49,8.7Z"/>
      <path class="cls-6" d="M68.89,52.72c3.01,2.95,4.57,2.39,5.84-.61,.72-1.71,2.41-1.72,3.37,.1,1.74,3.3,1.54,6.72-.05,9.99-.77,1.59-3.17,2.2-3.48,.78-.83-3.74-5.05-5.34-5.67-10.27Z"/>
      <path class="cls-5" d="M53.69,80.3c-2.15-.19-4.3-.85-5.47-3.24-.73-1.52-1.63-3.39,.08-4.45,1.61-.99,1.91,1.16,2.63,2.08,2.53,3.26,4.38,1.79,6.13-.82,.69-1.03,1.2-3.01,2.72-2.18,1.71,.93,1.05,3,.39,4.42-1.19,2.56-3.28,4.1-6.5,4.19Z"/>
      <path class="cls-3" d="M36.68,56.55c-.14,1.23-.12,2.42-.45,3.5-.34,1.12-1.17,2.13-2.41,2.17-1.24,.05-2.1-.76-2.44-2.03-.25-.95-.54-1.9-.86-2.83-.53-1.58-2.92-2.5-1.66-4.71,2.32,1.94,3.55-1.9,5.59-1.07,2.33,.94,1.88,3.17,2.23,4.98Z"/>
      <path class="cls-9" d="M32.5,40.52c1.26,0,1.95-.13,2.57,.02,1.86,.46,4.73,.65,4.41,2.98-.44,3.19-3.09,.93-4.8,.92-.64,0-1.31-.24-1.91-.49-1.37-.57-4.04,.74-4.02-1.59,.02-2.56,2.72-1.57,3.75-1.84Z"/>
      <path class="cls-10" d="M70.32,44.13c2.26-4.17,5.93-4.01,9.67-3.53,.88,.11,1.51,.75,1.4,1.68-.11,.97-.93,1.29-1.79,1.33-3.06,.11-6.15-.4-9.29,.52Z"/>
    </g>
  </g>
</svg>