<?xml version="1.0" encoding="UTF-8"?>
<svg id="Layer_2" data-name="Layer 2" xmlns="http://www.w3.org/2000/svg" viewBox="0 0 137.93 188.11">
  <defs>
    <style>
      .cls-1 {
        fill: #121211;
      }

      .cls-2 {
        fill: #534540;
      }

      .cls-3 {
        fill: #141210;
      }

      .cls-4 {
        fill: #372d29;
      }

      .cls-5 {
        fill: #272120;
      }

      .cls-6 {
        fill: #fcd2ba;
      }

      .cls-7 {
        fill: #1e261f;
      }

      .cls-8 {
        fill: #251e1d;
      }

      .cls-9 {
        fill: #19201b;
      }

      .cls-10 {
        fill: #5c4b3b;
      }

      .cls-11 {
        fill: #0b0909;
      }

      .cls-12 {
        fill: #14110f;
      }

      .cls-13 {
        fill: #9ec3aa;
      }
    </style>
  </defs>
  <g id="Layer_1-2" data-name="Layer 1">
    <g>
      <path class="cls-10" d="M130.63,42.87c3.58,4.09,4.49,9.05,4.68,14.25-1.17,6.77-.43,13.6-.55,20.41-.41,22.31-10.16,39.98-26.96,54.03-2.31,1.93-5.01,5.06-8.69,1.83-.39-.74-.47-1.52-.32-2.34,.96-2.34,1.29-4.8,1.5-7.3,.37-4.33,2.15-6.76,7.09-7.19,8.88-.79,13.85-6.8,13.68-15.39-.18-8.61-6.03-13.96-14.97-13.68-6.77,.21-6.93,.08-7-6.76-.05-4.66-.01-9.33-.02-13.99,0-3.19-.91-6-3.71-7.75-2.67-1.66-2.76-3.65-1.8-6.39,1.77-5.08,.72-6.24-4.68-5.67-5.13,.54-10.25,1.23-15.38,1.77-4.38,.47-4.98-.45-3.2-4.21,.74-1.57,2.71-3.07,1.23-4.92-1.51-1.88-3.73-.83-5.62-.4-4.55,1.03-9.07,2.16-13.56,3.43-2.54,.72-5.07,1.04-5.78-2.59-.51-2.61-2.44-2.42-4.29-1.93-8.23,2.17-16.36,4.59-23.66,9.18-4.15,2.6-6.85,6.14-8.13,10.92-1.16,4.34-2.52,8.63-3.88,12.91-.28,.87-.63,2.05-1.92,1.85-.91-.14-1.18-1.09-1.48-1.85-.98-2.53-1.36-5.21-1-7.86,.63-4.61,.84-9.29,2.03-13.82,1.27-4.83,2.56-9.5,.35-14.63-1.38-3.19-.58-6.94,.95-10.21,1.1-2.35,2.51-4.3,5.11-1.38,2.35,2.64,3.28,.93,3.99-1.3,1.82-5.8,5.1-10.44,10.53-13.39,1.99-1.08,4.11-1.85,5.97,.08,2.31,2.4,4.48,1.54,6.67,0,3.18-2.21,6.59-3.89,10.34-4.87,2.85-.75,5.02-.33,5.55,3.42,1.06-1.06,.72-3.09,2.58-2.98,1.3,1.84-2.25,5.36,2.12,6.13,3.53,2.74,7.75,2.36,11.82,2.52,8.58,.33,17.22-.78,25.7,1.8,13.56,4.13,24.67,11.23,31.34,24.23,.79,1.54,1.27,3.51,3.36,4.04Z"/>
      <path class="cls-6" d="M99.2,131.31c.09,.61,.19,1.21,.28,1.82,1.13,2.24-.5,3.94-1.11,5.85-1.7-.17-2.68,.9-3.61,2.07-6.83,.58-13.4,1.08-16.84,8.8-2.47,5.54-13.4,6.22-17.32,1.47-1.23-1.5-2.38-2.91-4.4-2.76-9.06,.69-16.78-3.56-24.81-6.65-3.26-1.26-6.21-3.23-9.44-4.52-10.74-4.28-15.48-12.4-15.85-23.64-.18-5.47-1.25-10.88-1.1-16.4,.06-2.11-.15-4.33-1.48-6.19-.32-.66-.64-1.31-.96-1.97,6.78-1.54,8.98-.45,10.9,5.43,2.13,6.51,5.39,9,12.01,9.17,7.71,.2,12.32-2.53,14.69-8.7,.48-1.24,.76-2.55,1.23-3.8,1.17-3.09,3.7-3.55,6.53-3.3,2.69,.23,4.08,1.77,4.66,4.4,1.96,8.86,4.96,11.81,12.31,12.34,8.07,.58,13.21-2.7,16.22-10.35,1.93-4.9,7.82-6.49,12.5-2.87,2.03,1.57,2.94,2.04,5.13,.27,4.5-3.63,10.81-4,14.93-1.15,4.54,3.13,7.25,7.43,6.53,13.13-.74,5.84-5.01,9.81-11.21,11.29-2.84,.68-6.72-.81-8.36,2.12-1.93,3.45-2.13,7.63-1.68,11.68,.09,.83,.11,1.66,.23,2.49Z"/>
      <path class="cls-13" d="M124.48,187.09c-30.73-.04-61.45-.09-92.18-.13-2.77-4.42,.44-9.02-.43-13.77-2.65,4.06-.91,9.07-3.44,12.9-6.07,.61-12.02-.88-18.04-1.14-.57-.7-.69-1.51-.49-2.34,3.47-15.07,10.99-26.69,26.79-31.1,5.42-1.51,10.82-3.34,16.64-1.99,2.3,.53,4.37,1.12,6.22,2.81,5.24,4.78,14.31,4.66,19.42-.57,2.68-2.74,5.38-3.52,8.91-2.81,7.17,1.44,14.44,2.49,21.28,5.23,12.17,4.88,19.94,21.61,15.33,32.92Z"/>
      <path class="cls-11" d="M99.2,131.31c-2.42-.82-1.82-2.86-1.8-4.61,.01-1.16,.19-2.32,.36-3.47q1.18-8.08,9.51-9.23c6.34-.88,10.81-4.63,11.72-9.86,.83-4.73-2.16-10.73-6.49-13.05-4.6-2.46-10.37-1.1-14.84,3.41-.88,.89-1.49,2.71-2.9,2.32-1.98-.55-.53-2.17-.5-3.35,0-.4-.24-1.04-.54-1.18-2.31-1.06-4.92-.75-7.29-1.36-4.06-1.04-3.28,2.15-3.86,4.04-3.49,11.4-19.74,15.39-28.15,6.91-2.39-2.41-3.36-5.29-3.17-8.58,.15-2.63-.88-4.2-3.59-4.29-2.57-.09-4.51,.05-5.31,3.59-2.35,10.39-12,15.5-21.69,11.99-4.54-1.65-7.89-4.66-8.4-9.56-.43-4.17-2.26-5.7-6.23-5.39-1.13,.09-2.29-.3-3.44-.46-.73-1.35,.09-2.24,.95-3.11,.9-.86,2.02-1.23,3.2-1.17,3.33,.19,5.53-1.49,7.66-3.86,4.87-5.44,11.17-6.08,17.88-4.63,1.65,.36,3.2,1.33,3.53,3.17,.44,2.46-2.03,1.99-3.3,2.83,1.11,.31,2.19,.49,2.91-.37,2.04-2.46,3.89-1.62,6.01-.03,4.39,3.3,9.55,2.8,13.66-1.07,4.56-4.29,10-5.89,16.11-4.78,3.71,.67,4.26,2.4,1.66,4.9-.98,.95-1.23,1.45-.11,2.21,.83,.56,1.33,.86,2.31-.37,2.5-3.14,4.21-2.99,7.01,.16,1.31,1.48,2.28,3.18,4.51,3.64,6.86,1.41,8.59,.05,8.6-7.04,0-2.83-.1-5.66,.02-8.48,.18-4.13-.17-7.9-3.97-10.64-2.11-1.51-2.28-4.05-1.67-6.4,.88-3.35-.59-3.64-3.36-3.18-4.09,.68-8.26,.86-12.39,1.29-8.69,.91-10.24-1.31-6.72-9.62-6.42,1.95-12.59,3.75-18.88,5.11-5.36,1.16-6.71,.25-8.03-5.32-6.29,2.21-12.46,4.62-18.31,7.76-3.97,2.13-6.49,5.47-7.87,9.86-1.79,5.71-3.03,11.62-5.48,17.09-1.07,2.39-1.34,5.72-4.99,6.13-4.86-13.32-4.34-26.71-.13-40.02,.72-2.28,.71-3.76-.46-5.84C-.19,31.92,1.74,22.37,6.33,17.98c3.12-2.99,4.78-1.36,6.15,3.18,2.11-8.35,6.71-13.17,13.12-16.03,2.92-1.3,6.68-4.18,9.01,1.41,.76,1.83,1.99-.07,2.69-.58C41.56,2.92,46.18,.73,51.38,.12c2.75-.32,5.69-.24,4.9,4.03-1.12,1.05-.72,2.48-.97,3.75-.2,.99,.52,2.77-1.28,2.65-1.28-.08-1.65-1.55-1.54-2.77,.39-4.27-1.86-3.52-4.6-2.7-4.06,1.21-7.54,3.35-10.99,5.7-2.28,1.55-4.92,2.85-6.4-1.04-1.04-2.75-2.67-1.26-3.97-.58-5.08,2.65-8.47,6.72-10.4,12.18-.69,1.96,.31,5.25-3.03,5.6-2.91,.3-3.02-3-4.88-4.74-2.91,4.82-4.1,9.56-1.62,14.6,1.13,2.29,1.14,4.57,.45,6.76-1.85,5.89-2.53,11.98-3.43,18.03-.54,3.59-.17,7.17,1.3,10.79,1.16-3.83,2.7-7.38,3.26-11.09,1.51-9.94,8.03-15.2,16.56-18.83,6.12-2.61,12.44-4.62,18.9-6.14,2.56-.6,5.17-.47,4.39,3.67-.56,2.96,1.58,2.06,3.09,1.68,4.81-1.22,9.63-2.42,14.41-3.75,2.77-.77,5.7-1.89,7.82,.84,2.13,2.74-1.17,4.34-1.97,6.49-.32,.87-1.52,1.36-1.07,2.65,6.34-.86,12.71-1.69,19.06-2.59,6.07-.86,8.11,1.55,5.75,7.17-1.01,2.41-2.22,4.11,1.45,5.64,2.83,1.18,3.92,4.28,3.86,7.57-.1,5.82,.02,11.65-.07,17.48-.04,2.55,0,3.71,3.49,3.16,9.93-1.57,17.96,4.22,18.55,12.65,.79,11.3-5.23,18.83-15.92,19.01-5.41,.09-4.35,3.89-4.97,6.78-.5,2.31,.74,5.15-2.32,6.54Z"/>
      <path class="cls-6" d="M3.47,83.27c5.18-6.67,6.56-14.9,8.9-22.65,1.82-6.04,5.02-10.31,10.85-12.67,6.53-2.65,13.03-5.38,19.42-8.03,.88,1.17,.2,1.62-.05,2.15-.61,1.3-1.89,2.54-.71,4.09,1.24,1.63,3.07,1.23,4.61,.8,7.2-1.96,14.35-4.07,21.52-6.13,.6-.17,1.18-.41,2.91-1.03-1.75,2.66-3.07,4.37-4.07,6.25-2.02,3.81-1.24,5.32,3.03,5.14,5.47-.23,10.91-.99,16.37-1.5,1.96-.19,3.93-.34,5.91-.51,.52,2.62-2.07,3.85-1.78,6.28,.26,2.21-.02,4.2,2.57,5.22,2.41,.95,3.38,2.9,3.41,5.52,.06,6.32,.18,12.65,.46,18.96,.11,2.46-.71,3.22-3.12,2.9-2.3-.31-4.65-.45-6.97-.38-2.36,.08-4.29-.2-5.06-2.86-.17-.6-.64-1.22-1.14-1.6-1.24-.95-2.45-2.8-4.22-1.58-2.29,1.59,.51,2.75,.76,4.41-3.89,.09-6.41-1.97-8.69-5,1.74-1.74,4-.22,5.89-1.38-.35-1.84-1.69-2.48-3.39-2.62-6.45-.55-12.33,.64-16.38,6.22-1.41,1.94-2.52,3.08-5.12,1.92-1.23-.55-3.06-.36-4.4,.12-1.98,.71-2.77,.28-3.9-1.5-1.16-1.83-3.35-6.12-4.66,.13-.27,1.27-1.04,1.07-1.82,.77-2.24-.87-4.62-1.57-6.09-3.58,.58-1.05,1.24-.87,1.87-.77,1.65,.25,4.16,2.02,4.72-.11,.59-2.26-2.41-2.85-4.25-3.12-5.41-.79-11.4-.92-14.67,3.84-3.45,5.02-7.6,5.52-12.67,5.09-.01-.93-.02-1.86-.03-2.8Z"/>
      <path class="cls-1" d="M124.48,187.09c-.16-3.82,.05-7.7-.56-11.44-2.04-12.4-9.65-19.64-21.71-22.42-4.04-.93-8.15-1.6-12.21-2.48-4.07-.88-7.4-1.94-10.75,2.86-3.92,5.61-16.72,4.07-21.16-.96-2.79-3.15-7.42-2.51-11.16-2.1-5.93,.66-11.64,2.54-17.06,5.22-7.36,3.64-12.6,9.06-15.18,16.97-1.34,4.1-2.86,8.14-4.29,12.21-4.37-.22-2.2-3.57-1.92-5.08,2.46-13.09,8.49-23.66,21.62-28.81,2.43-.95,4.86-1.89,8.09-3.14-5.85-2.66-10.98-5.05-16.16-7.33-10.65-4.67-17.73-11.81-18.27-24.26-.36-8.41-2.81-16.76-.25-25.19,3.48,.46,2.66,3.37,2.74,5.37,.32,7.99,1.05,15.93,2.27,23.84,.78,5.06,3.05,9.01,7.35,11.89,9.91,6.63,21.04,10.55,32.16,14.46,2.09,.73,4.61,.25,6.94,.27,3.04,.02,6.11-.27,6.81,3.98,.29,1.75,2.09,1.86,3.63,2.02,6.74,.68,9.73-.99,12.82-7.24,.69-1.4,1.63-2.54,3.13-3.05,3.45-1.18,6.92-2.32,10.4-3.42,1.61-.51,3.05-.56,3.01,1.79-1.65,2.77-5.31,2.43-7.85,4.98,5.31,1.05,10.15,1.96,14.97,2.97,18.88,3.95,26.89,15.94,26.67,35.54-.03,2.72-.65,4.95-4.05,2.56Z"/>
      <path class="cls-12" d="M98.36,138.97c-3.11-2.61,1.69-3.72,1.11-5.85,3.83,2.11,6.09-1.24,8.13-3.02,15.95-13.89,25.64-30.99,25.8-52.68,.04-5.48-.04-10.97,.02-16.45,.02-1.51-.69-3.54,1.89-3.86,4.8,17.53,2.88,34.49-4.88,50.73-5.21,10.91-12.62,20.24-22.54,27.37-2.83,2.04-5.83,3.84-9.53,3.75Z"/>
      <path class="cls-3" d="M130.63,42.87c-2.19,2.24-2.8,.03-3.44-1.35-7.31-15.66-20.35-23.5-36.63-26.81-6.89-1.4-13.92-.59-20.88-.6-3.19,0-6.26-.63-9.38-.94-1.79-.18-2.9-.85-1.89-2.89,15.95-1.24,31.85-1.98,46.98,4.79,9.77,4.38,17.9,10.64,23.12,20.26,1.29,2.38,2.29,4.77,2.13,7.53Z"/>
      <path class="cls-9" d="M28.43,186.09c-.25-4.5,.56-8.88,1.48-13.24,.29-1.37,.28-3.54,2.18-3.37,1.96,.17,1.53,2.27,1.43,3.67-.33,4.61-.8,9.21-1.22,13.81-1.58,1.01-2.77,.25-3.87-.87Z"/>
      <path class="cls-5" d="M39.98,121.26c.54,.65,1.1,1.08,1.33,1.65,.7,1.75,.65,4.51,3.03,4.44,2.04-.06,1.86-2.81,2.64-4.38,.43-.86,.49-2.06,1.8-1.98,1.21,.07,1.65,1.02,1.66,2.07,.02,3.2-1.18,5.85-3.96,7.52-2.19,1.32-4.33,.63-5.77-1.2-1.85-2.35-3.21-5.01-.73-8.12Z"/>
      <path class="cls-2" d="M106.4,103.54c1.03-.92-2.8-2.15,.04-2.67,1.58-.29,2.69,1.3,2.53,2.94-.12,1.19-1.29,2.2-2.48,1.96-2.24-.45-.94-1.43-.1-2.23Z"/>
      <path class="cls-7" d="M91.99,179.68c.11-1.58,.12-2.57,.25-3.55,.26-1.97-.45-5.15,2.3-5.06,2.45,.08,1.6,3.14,1.59,4.96,0,2.45-.38,4.9-.58,7.35-.1,1.22-.43,2.52-1.79,2.55-1.9,.04-1.65-1.68-1.76-2.91-.11-1.3-.02-2.63-.02-3.34Z"/>
      <path class="cls-4" d="M26.09,66.15c1.54-.02,2.69,.6,3,2.02,.23,1.06-.73,2.24-1.57,1.72-1.35-.84-3.69,.28-4.08-1.63-.32-1.55,1.56-1.7,2.65-2.11Z"/>
      <path class="cls-8" d="M68.85,68.18c-1.01-.58-3.33,1.01-3.29-1.37,.03-1.67,1.94-1.98,3.48-2.08,1.5-.1,2.93,.56,2.95,1.97,.02,1.83-1.69,1.59-3.13,1.48Z"/>
    </g>
  </g>
</svg>