<?xml version="1.0" encoding="UTF-8"?>
<svg id="Layer_2" data-name="Layer 2" xmlns="http://www.w3.org/2000/svg" viewBox="0 0 144.11 162.02">
  <defs>
    <style>
      .cls-1 {
        fill: #16120f;
      }

      .cls-2 {
        fill: #faae60;
      }

      .cls-3 {
        fill: #9f9f9f;
      }

      .cls-4 {
        fill: #0f0e0f;
      }

      .cls-5 {
        fill: #4e4e4e;
      }

      .cls-6 {
        fill: #15100f;
      }

      .cls-7 {
        fill: #191514;
      }

      .cls-8 {
        fill: #fdd2ba;
      }

      .cls-9 {
        fill: #52433b;
      }

      .cls-10 {
        fill: #0f0c0b;
      }

      .cls-11 {
        fill: #242426;
      }

      .cls-12 {
        fill: #f0ceb8;
      }

      .cls-13 {
        fill: #b5b1b0;
      }

      .cls-14 {
        fill: #bcbcbe;
      }

      .cls-15 {
        fill: #1c1919;
      }

      .cls-16 {
        fill: #ababab;
      }

      .cls-17 {
        fill: #201b1a;
      }

      .cls-18 {
        fill: #2f3032;
      }

      .cls-19 {
        fill: #f5cfbb;
      }

      .cls-20 {
        fill: #151415;
      }

      .cls-21 {
        fill: #505153;
      }

      .cls-22 {
        fill: #dca771;
      }

      .cls-23 {
        fill: #343536;
      }
    </style>
  </defs>
  <g id="Layer_1-2" data-name="Layer 1">
    <g>
      <path class="cls-8" d="M10.27,73.13c0-.71-.02-1.41-.03-2.12,.82-2.72,1.34-5.45,.93-8.34-.22-1.6-.35-3.79,1.92-3.87,2.35-.08,2.72,1.89,2.61,3.9,.86-3.67,1.88-7.3,3.13-10.87,1.1-3.14,1.83-6.56,6.41-6.26,1.51,.1,2.16-1.35,2.71-2.59,.34-.76,.6-1.56,.74-2.38,2.39-13.8,4.41-11.85,15.55-11.89,15.28-.07,30.6-.77,45.67,2.75,1.62,.38,3.31,.18,4.97,.05,.55,.03,1.03,.23,1.45,.57,1.95,3.76,.71,7.82,1.11,11.73,.61,6.05,1.12,6.72,7.26,7.23,2.81,.23,4.04,1.91,4.74,4.32,1.27,4.3,2,8.72,2.97,13.09,.42,1.88,.34,4,1.98,5.43,1.47,.07,2.6-.96,3.95-1.27,2.97-1.48,5.57-3.66,8.91-4.43,6.89-1.59,13,1.45,13.87,6.98,.99,6.29-3.7,11.5-10.81,12.24-1.89,.19-4.65-1.03-5.1,2.39,.13,2.69,.37,5.38-.15,8.06-1.86,4.73-6.12,6.92-10.16,9.16-8.34,4.61-17.24,7.92-26.46,10.35-4.2,1.11-8.33,2.31-11.77,5.21-2.55,2.14-5.62,2.3-8.45,.77-4.58-2.48-9.49-2.6-14.49-3-13.68-1.08-25.83-6.02-36.08-15.29-4.19-3.79-6.28-8.46-5.99-14.22,.18-3.66,.11-7.33,0-10.99-.07-2.3,.16-4.7-1.41-6.7Z"/>
      <path class="cls-2" d="M104.58,160.78c-20.15,.17-40.3,.34-60.44,.53-1.99,.02-3.98,.2-5.97,.31-2.76-5.34-1.12-10.99-1.13-16.53,0-1.61,.89-3.19,.28-4.82-.34-.16-.58-.02-.67,.4-1.59,7.93-5.61,10.11-13.31,7.29-2.73-1-2.96-2.87-1.96-5.18,1.73-4.01,4.1-7.49,7.53-10.37,5.84-4.9,12.27-8.57,19.71-10.25,6.3-1.42,7.91-.08,7.99,6.29,.04,3.15,1.46,3.79,4.13,2.56,1.83-.84,3.26-2.29,5.05-3.21,3.81-1.55,7.62-1.53,11.43-.03,2.96,1.05,5.87,2.12,8.55,3.93,2.82,1.91,4.59,.68,4.68-2.86,.04-1.69-.43-3.31-1.04-4.86-1.52-3.86,.48-5.48,3.81-6.54,3.82-1.21,7.31,.28,10.72,1.36,9.2,2.92,17.47,7.37,22.79,15.92,1.23,1.99,2.21,4.1,2.87,6.35,2.04,6.98,.41,9.19-6.84,9.28-2.66,.03-5.32,.01-7.99,0-8.51-.03-9.07-.51-10.31-9.07-.11,4.56-.14,8.87,.67,13.16,.39,2.08,.8,4.3-.53,6.3Z"/>
      <path class="cls-4" d="M95.14,32.25c-3.91,2.35-7.9,.38-11.58-.34-16.04-3.16-32.16-1.63-48.26-1.58-2.33,0-3.12,1.03-3.52,3.17-.6,3.25-1.53,6.44-2.38,9.65-.79,2.98-1.35,6.22-5.84,3.84-1.98-1.04-2.01,1.2-2.32,2.14-1.52,4.56-2.75,9.21-4.25,13.77-.53,1.61-.23,3.71-2.22,4.74-1.72-2.59,1.29-5.8-1.4-8.6-1.69,2.32-.33,4.65-.72,6.74-.36,1.95,.76,4.58-2.4,5.24-3.6-11.74-1.87-23.28,1.31-34.76,.3-1.1,.77-2.15,1.37-3.79-2.97,.24-5.66,.42-8.33,.68-2.08,.2-3.73-.59-4.41-2.47-.66-1.81,.62-3.25,1.98-4.22,2.01-1.43,4.2-2.6,6.33-3.9-3.67-3.9-3.37-5.72,1.3-8.23,.15-.08,.3-.14,.46-.2C45.33-.14,81.01-5.45,117.87,6.94c1.88,.63,3.71,1.42,5.59,2.09,8.09,2.87,12.86,8.13,13.41,17.12,.78,12.61,2.7,25.16,2.08,37.85-.07,1.36-.13,2.41,.88,3.63,7.65,9.22,4.86,18.44-6.74,22.62-3.19,1.28-6.34,2.17-9.07-.95-1.79-2.21-1.86-3.61,1.58-3.41,1.98,.12,3.99,.42,5.95,.22,5.49-.57,8.99-4.96,8.47-10.32-.43-4.44-4.38-6.89-9.96-6.75-4.78,.11-7.84,3.89-12.07,5.06-1.71-2.81-.05-4.71,1.89-6.36,2.7-2.31,5.93-3.64,9.45-3.87,3.45-.23,4.48-1.98,4.34-5.15-.16-3.78,.16-7.58-.71-11.3-.23-7.82-1.27-15.57-2-23.35-.4-4.3-2.53-6.53-6.08-8.26-10.45-5.1-21.47-8.04-33-9.31-23.04-2.53-45.52-.65-67.1,8.38-2.92,1.22-5.96,2.07-9.41,3.21,1.56,1.49,4.72,1.77,4.01,4.3-1.01,3.58-4.63,3.74-7.34,4.74,3.06-.17,4.23,1.17,4.33,4.64,.14,4.8-1.42,9.6,.05,14.37,.25,1.38-1.68,1.93-1.21,3.71,1.71-.4,1.77-2.01,2.41-3.11,.49-1.44,.97-3.33,2.33-3.7,4.63-1.24,5.13-5.07,6.26-8.71,1.69-5.44,5.15-8.37,11.2-8.91,17.45-1.57,34.81-2.37,51.89,2.58,2.34,.68,5.5,.66,5.86,4.25Z"/>
      <path class="cls-1" d="M66.22,129.05c-1.95,1.25-3.83,2.65-5.89,3.69-1.39,.7-3.01,1.86-4.63,.46-1.51-1.31-.86-3.13-.64-4.7,.72-5.15,.01-6.43-4.92-5.24-11.82,2.84-22.11,8.12-27.62,19.97-1.26,2.71-.64,3.59,2.11,3.6,.67,0,1.33,.06,2,.11,7.01,.52,6.98,.52,8.47-6.65,.32-1.54,.48-3.85,2.63-3.49,1.84,.31,1.34,2.5,1.16,3.88-.94,6.96-.26,13.97-.72,20.94-1.27,.91-2.21,.05-3.19-.6-1.3-1.42-1.72-3.23-1.98-5.04-.38-2.63-1.79-3.68-4.42-3.59-2.63,.09-3.97,1.23-4.17,3.89-.12,1.6,.13,3.42-1.63,4.44-1.25,.4-2.89,.24-2.69-1.13,.9-6.31-2.65-12.39-.39-18.86,3.07-8.79,10.14-13.19,17.52-17.43,1.14-.65,2.37-1.13,5.04-2.39-25.98-6.55-39.12-20.78-31.96-47.79,2.91-.44,2.8,1.65,2.82,3.48,.04,5,.21,10-.06,14.98-.31,5.7,2.08,9.92,6.29,13.41,10.59,8.78,22.81,13.29,36.48,14.27,4.64,.33,9.48-.52,13.52,3.37,1.81,1.74,4.88,.95,6.76-1.15,2.47-2.77,5.69-3.75,9.12-4.65,11.75-3.07,23.24-6.83,33.38-13.8,2.06-1.41,4.03-2.92,5.44-5.04,1.83-2.32,1.84-7.25,6.96-4.88,.7,2.67-1.04,4.4-2.48,6.18-5.03,6.22-11.54,10.37-18.86,13.39-1.66,.69-3.27,1.49-5.65,2.58,6.74,2.88,12.72,5.68,17.98,9.8,7.13,5.58,10.48,12.97,11.37,21.8,.46,4.56-2.93,8.32-2.21,12.98,.29,1.86-1.77,1.34-3.05,1.09-1.14-5.24-4.09-7.01-9.65-6.75-5.29,.25-9.64,.3-10.39,6.79-1.2,.8-2.35,.66-3.45-.21-.74-6.88-2.61-13.67-1.76-20.68,.13-1.09-.18-2.7,1.35-2.8,1.45-.1,1.6,1.46,1.77,2.56,.46,2.92-.69,6.97,1.54,8.53,2.88,2.02,7.08,.74,10.71,.78,1.33,.02,2.66-.08,3.99-.13,8.13-.3,8.49-.7,5.71-8.66-4.1-11.73-13.87-16.87-24.72-20.36-3.26-1.05-6.6-2.99-10.48-1.06-2.02,1.01-3.51,1.23-2.1,4.03,1.26,2.51,1.57,5.45,1,8.28-.68,3.4-2.79,4.88-5.58,2.32-2.64-2.42-5.7-3.56-8.9-4.65,.44-3.28,2.63-3.7,5.35-3.28,1.02,.16,2.16,1.36,3.03-.2,.34-.61,.19-1.37-.29-1.86-1.28-1.32-2.55-.44-3.51,.39-3.18,2.73-6.68,4-10.95,3.61-2.23-.21-4.21-.72-6.05-1.93-1.5-.99-2.95-1.4-4.38,.24,1.69,1.79,6.31-2.29,5.89,3.13Z"/>
      <path class="cls-12" d="M108.03,161q-.02-7.77,8.24-7.74c1.16,0,2.32-.02,3.48-.03q8.01-.12,8.33,7.72c-6.68,.01-13.36,.03-20.04,.05Z"/>
      <path class="cls-19" d="M22.76,160.73c.14-.98,.37-1.96,.41-2.94,.3-7.01,2.39-8.48,9.13-6.6,1.41,.39,1.8,1.09,1.89,2.42,.17,2.48,.51,4.94,.77,7.41-4.07-.1-8.14-.2-12.21-.29Z"/>
      <path class="cls-13" d="M130.98,93.13c-4.18-1.04-4.28,3.77-6.96,4.88,0-2.9,0-5.8,0-8.71,2.91,1.4,6.03,.78,9.07,.95l-2.1,2.89Z"/>
      <path class="cls-5" d="M95.14,32.25c-7.09-4.43-15.13-5.51-23.16-6.1-12.22-.88-24.43-.54-36.65,.81-5.09,.56-6.45,4.14-7.99,7.75-.82,1.94-.93,4.18-1.32,6.29-.21,1.15-.43,2.83-1.84,2.38-4.61-1.48-4.58,2.41-5.94,4.75-.92,0-1.73-.23-2.21-1.11-1.85-2.18-2.6-4.55-1.37-7.33,1.44-3.27-.89-6.75,.63-10.17,.48-1.09-1.46-1.3-2.63-1.48-1.67-.26-3.08,1.42-5.11,.44,2.06-2,4.87-2.17,6.97-3.6,1.41-.96,4.28-.55,4.02-2.99-.27-2.5-2.8-1.68-4.5-1.89-1.01-.13-2-.22-2.77-1.69,6.44-2.44,12.77-5.09,19.27-7.25C51.86,3.98,73.62,2.49,95.86,5.7c11.49,1.66,22.27,5.03,32.54,10.35,2.74,1.42,3.51,3.26,3.74,6.28,.63,8.25,2.3,16.43,1.87,24.77-1.17,1.22-2.72,1.4-4.27,1.59-5.62-.78-11.06-.16-16.27,2.17-.97,.36-1.95,.69-3.01,.53-2.04-1.38-3.91-2.9-6.77-1.89-3.11,1.1-4.74-.48-4.89-3.62-.16-3.15-1.01-6.2-1.23-9.34-.12-1.63-.16-3.35-1.8-4.37l-.3,.16-.33-.07Z"/>
      <path class="cls-14" d="M129.85,48.08c1.14-1.37,2.8-.54,4.16-.98,1.61,5.15,.59,10.47,.95,15.7,.19,2.7-1.82,2.2-3.4,2.19-3.93-.04-7.51,1.1-10.66,3.38-1.87,1.36-3.72,2.93-2.92,5.74-1.46-.12-1.86,1.39-2.91,1.91-2.51-4.98-1.67-10.62-3.07-15.85-.77-2.88-2.54-5.85-1.03-9.07,.39-.98,1.26-1.04,2.12-1.14,5.63-.21,11.33,.14,16.76-1.87Z"/>
      <path class="cls-20" d="M110.97,51.09c2.5,8.12,4.7,16.29,4.11,24.92-3.14,.53-2.92-2.05-3.34-3.8-1.29-5.47-2.6-10.95-3.56-16.48-.6-3.43-1.88-4.69-5.29-3.21-3.47,1.5-5.25-.05-6.04-3.5-1.28-5.57-.78-11.23-1.06-16.85,2.48-.07,2.95,1.76,3.19,3.58,.45,3.4,.89,6.82,1.04,10.25,.12,2.88,1.22,3.62,3.66,2.19,3.73-2.19,5.75-.27,7.31,2.9Z"/>
      <path class="cls-10" d="M81.09,55.78c1.96,.23,3.95,.34,5.89,.72,2.22,.44,4.04,1.38,4.21,4.11,.18,2.89-1.61,4.46-3.87,5.09-4.26,1.2-8.57,.46-12.69-.93-2-.68-2.47-2.45-1.94-4.5,.51-1.94,.82-4.03,3.4-4.2,1.65-.11,3.31-.02,4.97-.02,0-.09,.01-.18,.02-.28Z"/>
      <path class="cls-6" d="M35.7,55.72c1.98,.19,4.17-.09,5.89,.67,2.17,.96,2.57,3.43,2.24,5.63-.4,2.64-7.45,3.75-13.16,2.58-4.2-.86-2.88-3.95-2.71-6.26,.17-2.27,1.19-2.44,7.74-2.62Z"/>
      <path class="cls-17" d="M56.18,103.97c-4.72-.4-9.1-1.23-12.04-5.23-.65-.89-1.54-1.97-.48-3.12,1.25-1.35,2.05,.1,2.92,.66,7.53,4.82,13.71,4.68,21.18-.39,1.35-.91,2.97-3.38,4.54-1.19,1.44,2.01-.77,3.51-2.34,4.71-4.12,3.14-8.93,4.16-13.79,4.57Z"/>
      <path class="cls-7" d="M82.17,70.79c3.04-.18,4.88,1.32,4.8,4.29-.07,2.85-2.05,4.64-4.85,4.65-2.97,.01-5.2-1.63-5.05-4.86,.14-2.96,2.12-4.31,5.1-4.08Z"/>
      <path class="cls-15" d="M36.84,79.33c-3.62,.14-5.55-1.3-5.6-4.19-.05-2.62,1.65-4.21,4.43-4.16,2.96,.05,4.53,1.7,4.65,4.58,.11,2.79-1.83,3.55-3.47,3.77Z"/>
      <path class="cls-9" d="M51.54,84.24c-1.3-.52-1.41-1.62-1.36-2.8,.04-1.04,.49-2.22,1.48-2.11,1.34,.14,1.44,1.5,1.38,2.7-.06,1.06-.45,1.84-1.49,2.21Z"/>
      <path class="cls-22" d="M66.22,129.05c.25-2.37-1.22-2.45-2.82-1.94-1.54,.48-2.98,1.26-4.79,2.05-.36-2.54-.38-4.69,1.93-5.76,2.13-.98,3.76-.31,5.53,1.63,2.73,2.98,6.49,2.93,10.11,1.38,1.05-.45,2.08-1.11,2.88-1.91,1.94-1.92,4.39-4.4,6.76-3.08,2.46,1.36,1.21,4.84,1.33,7.96-3.59-1.51-6.84-5.61-10.04-.43-3.65-1.11-7.28-1.55-10.9,.11Z"/>
      <path class="cls-16" d="M16.03,47.02c.95-.05,1.98-.27,2.21,1.11-.98,1.34-.6,3.93-3.03,3.85-.86-.03-2.21-.68-2.34-2.19-.22-2.44,1.48-2.56,3.15-2.77Z"/>
      <path class="cls-3" d="M15.93,54.78c-.62,.95-.27,2.83-2.21,2.59-1.09-.14-1.6-1.03-1.54-2.16,.09-1.69,1.14-2.18,2.64-2.17,1.24,.01,1.12,.87,1.11,1.74Z"/>
      <path class="cls-23" d="M129.85,48.08c.35,.69,1.92,1.84,.12,2.01-5.61,.54-11.28,1.66-16.88-.15,5.34-2.83,10.85-4.14,16.76-1.87Z"/>
      <path class="cls-11" d="M118.96,59.43c4.16-2.19,8.36-1.58,12.58-.76-4.11,1.78-8.33,1.84-12.58,.76Z"/>
      <path class="cls-18" d="M130.63,54.39c-4.45,.92-8.94,1.51-13.41,.11,4.43-2.51,8.91-.32,13.41-.11Z"/>
      <path class="cls-21" d="M125.92,62.6c-2.09,2.08-3.98,2.3-6.9,1.19,2.45-1.48,4.32-1.84,6.9-1.19Z"/>
    </g>
  </g>
</svg>