<?xml version="1.0" encoding="UTF-8"?>
<svg id="Layer_2" data-name="Layer 2" xmlns="http://www.w3.org/2000/svg" viewBox="0 0 147.46 161.18">
  <defs>
    <style>
      .cls-1 {
        fill: #0f0f0f;
      }

      .cls-2 {
        fill: #f4d0b9;
      }

      .cls-3 {
        fill: #1f1a1c;
      }

      .cls-4 {
        fill: #ced7dd;
      }

      .cls-5 {
        fill: #171414;
      }

      .cls-6 {
        fill: #fdd2ba;
      }

      .cls-7 {
        fill: #1f1b1b;
      }

      .cls-8 {
        fill: #221c1a;
      }

      .cls-9 {
        fill: #151313;
      }

      .cls-10 {
        fill: #4d4e50;
      }

      .cls-11 {
        fill: #f8d1ba;
      }

      .cls-12 {
        fill: #68544c;
      }

      .cls-13 {
        fill: #261e1e;
      }
    </style>
  </defs>
  <g id="Layer_1-2" data-name="Layer 1">
    <g>
      <path class="cls-10" d="M101.62,160.16c-14.03-.02-28.05-.03-42.08-.05-9.45-.89-18.92-.18-28.37-.38-5.45-.11-5.53-.13-4.98-5.72,.33-3.31,.94-6.59,1.36-9.89,.28-2.2,.15-3.38-2.73-3.11-4.19,.39-9.26,.23-11.12-3.78-2.04-4.39,1.76-8.17,4.78-11.18,8.35-8.3,18.64-11.81,30.33-11.34,2,.08,3.99,.18,5.98,.16,3-.04,5.37,.99,7.49,3.23,4.69,4.95,9.6,5.19,14.26,.46,2.7-2.75,5.62-3.7,9.32-3.76,6.35-.11,12.63,.37,18.89,1.28,10.51,1.52,19.78,10.31,22.12,20.51,.86,3.75-.15,5.52-4.05,6.22-6.3,1.12-12.6,.77-18.91,.7-2.36-.03-3.9-1.42-5.51-3.29,2.74,6.51,4.98,12.93,3.22,19.94Z"/>
      <path class="cls-4" d="M6.65,39.31c0-1.05,.02-2.09,.02-3.14C16.14,20.14,29.94,9.53,47.97,5.37,75.39-.95,100.89,3.22,123.25,21.45c10.37,8.46,17.8,18.7,20.8,32.01,4.67,20.73-6.96,43.64-26.57,51.76-1.55,.64-3.09,1.27-4.83,.75-2.2-1.13-1.16-2.74-.64-4.28,2.52-4.41,3.53-9.31,4.37-14.22,.72-4.19,2.45-6.25,7.14-6.43,7.16-.27,12.46-6.18,12.61-12.96,.13-5.73-3.52-9.83-9.23-10.37-1.33-.12-2.66-.08-3.99,0-7.36,.42-7.62,.19-7.71-7.03-.02-1.66-.04-3.32-.07-4.99-.06-3.4-1.36-5.77-4.99-6.32-4.91-.75-7.66-3.75-8.53-8.48-.52-2.83-1.99-4.14-4.85-4.76-17.04-3.65-34.24-4.34-51.53-2.83-5.15,.45-10.29,.06-15.43,.62-5.51,.6-9.35,2.96-11.01,8.5-1.05,3.49-3.11,6.24-6.84,7.33-.91,.52-1.86,.93-2.91,1.08-1.14,.02-1.95-.47-2.4-1.53Z"/>
      <path class="cls-1" d="M112.8,105.44c29.76-9.08,40.74-46.59,20.71-71.52C116.36,12.57,93.64,3.32,66.51,4.07c-18.88,.52-35.37,6.68-49.03,19.94-3.02,2.93-5.01,6.61-7.48,9.94-.87,1.18-1.31,2.82-3.32,2.22-.22-5.08,2.73-8.84,5.7-12.31C24.82,9.36,41.21,2.17,59.82,.47c28.68-2.62,53.52,5.55,73.82,26.98,25.16,26.56,15.25,75.01-23.78,83.15-1.56,.33-3.25,.71-4.49,2.42,6.01,2.07,11.96,4.02,16.53,8.7,4.44,4.55,7.05,9.93,8.38,16.05,.34,1.54,.61,3.38-.42,4.31-4.46,4.04-2.15,9.01-2.24,13.64-.05,2.67-.37,4.92-3.97,3.41-1.95-2.05-1.48-4.64-1.4-7.04,.11-3.28-.88-5.09-4.5-4.53-.81,.13-1.64,.01-2.47,.06-2.78,.15-5.84-.82-8.27,.59-3.14,1.83-.56,5.13-1.09,7.72-.33,1.66-.54,3.25-2.07,4.27-.75-.02-1.49-.04-2.24-.05-1.49-2.08-1.06-4.48-1.06-6.77,0-3.18,.22-6.33-2.8-8.58-1.33-.99-1.18-2.68-1.1-4.18,.08-1.6-.35-3.8,1.91-3.96,1.98-.14,1.99,1.85,2.06,3.34,.09,1.71,1.05,2.28,2.62,2.26,6.98-.09,13.96,.2,20.91-.91,2.19-.35,2.04-1.17,1.73-3-1.92-11.23-12-20.12-23.33-21.23-6.31-.62-12.59-.81-18.9-.84-1.87,0-3.28,.24-4.74,1.89-6.58,7.41-12.08,7.27-18.46-.15-.67-.78-1.27-1.54-2.36-1.64-14.44-1.32-28.19-.19-39.14,10.95-.35,.36-.76,.68-1.02,1.09-1.76,2.72-4.31,5.33-3.52,8.82,.43,1.92,9.24,3.16,11.95,1.79,3.59-1.81,3.28,.71,3.06,2.7-.52,4.77-.97,9.58-2.03,14.25-.68,3.04,.39,3.36,2.87,3.33,8-.07,15.99-.05,23.99,.03,1.77,.02,3.69-.57,5.29,.78-9.66,.08-19.32,.37-28.97,.11-2.31-.06-4.68,2.22-6.93-.02-1.89-2.14-1.31-4.69-1.17-7.15,.08-1.49,.55-2.95,.54-4.46-.01-1.98-1.11-3.08-2.97-3.41-2.28-.41-2.85,1.14-3.15,2.92-.35,2.13-.75,4.26-.93,6.42-.16,1.83-.25,3.73-2.33,4.6-2.72,.19-2.93-1.69-2.83-3.61,.13-2.49-.06-5.17,.8-7.42,1.7-4.41-1.8-8.13-1.02-12.33,1.53-8.31,6.21-14.15,13.7-17.84,2.65-1.31,5.34-2.56,8.08-3.88-.79-1.28-1.94-1.42-2.99-1.65-15.91-3.54-24.99-13.78-28.02-29.39C-1.56,67.95,.22,53.31,6.65,39.31c.6,.35,1.2,.69,1.8,1.04,1.83,2.34,.57,4.84,.14,7.16-1.29,6.87-2.98,13.72-3.15,20.7-.52,20.55,6.92,35.48,27.58,39.59,7.66,1.53,15.36,2.96,23.22,3.15,3.29,.08,6.02,1.2,8.28,3.86,3.09,3.63,5.85,3.92,9.34,.46,3.67-3.64,7.79-4.61,12.68-4.44,6.77,.25,13.09-2.15,19.47-4.03,2.24-.66,4.44-1.32,6.79-1.36Z"/>
      <path class="cls-11" d="M103.86,160.21c1.39-2.72,.77-5.64,.18-8.28-1.04-4.72,.85-5.98,5.13-5.57,1.97,.18,3.98-.01,5.97-.06q8.36-.21,8.4,8.38c0,1.49,.08,2.98,.12,4.47-6.6,.27-13.15,1.59-19.8,1.07Z"/>
      <path class="cls-2" d="M13.63,159.11c1.92-4.15,1.3-8.7,1.92-13.05,.36-2.51,1.43-3.5,3.41-2.53,1.93,.94,6.03-1.39,5.63,3.38-.37,4.42-1.33,8.8-.94,13.28-3.34-.36-6.68-.72-10.01-1.08Z"/>
      <path class="cls-6" d="M112.8,105.44c-9.29,4.28-19.03,6.92-29.27,6.96-3.46,.01-5.88,.87-8.25,3.37-4.88,5.17-7.77,4.95-12.02-.63-1.37-1.8-3-2.35-5.11-2.5-8.13-.58-16.17-1.85-24.21-3.2-24.42-4.11-30.86-23.65-29.83-42.53,.49-8.99,2.99-17.68,4.34-26.55,.6-.34,1.21-.68,1.81-1.01,3.98,.2,6.86-1.59,8.21-5.24,2.54-6.84,7.84-8.95,14.5-9.19,10.64-.38,21.25-1.29,31.93-1.12,10.18,.16,20.24,1.46,30.37,2.18,3.26,.23,5.3,1.87,5.77,5.15,.73,5.1,3.41,8.07,8.68,8.7,3.53,.42,5.11,2.75,5.21,6.23,.1,3.16,.02,6.33,.12,9.49,.1,3.16,1.38,4.75,4.74,3.69,.32-.1,.63-.21,.96-.28,7.41-1.72,13.19,1.34,14.41,7.63,1.23,6.29-3.99,13.15-11.1,13.25-7.27,.1-6.45,1.55-8.31,7.4-1.57,4.94-1.13,10.26-3.19,15.07,.28,1.03-1.16,2.19,.23,3.14Z"/>
      <path class="cls-9" d="M112.57,102.3c-.99-7.49,1.59-14.43,3.48-21.44,.76-2.83,3.24-2.66,5.77-2.32,4.95,.65,8.91-1.39,11.14-5.79,1.73-3.42,1.96-7.29-1.14-10.15-3.46-3.2-7.87-4.01-11.98-1.65-4.5,2.59-5.64,.5-5.92-3.39-.29-3.98-.48-7.98-.46-11.97,.01-2.8-.79-4.33-3.88-4.46-6.58-.28-9.98-3.83-10-10.45,0-2.54-1.18-3.21-3.68-3.44-20.59-1.85-41.17-2.58-61.82-.94-6.6,.52-12.26,1.31-14.76,8.93-1.19,3.63-4.39,6.37-9.05,4.11,4.68-1.25,6.95-4.68,8.02-9.08,1.15-4.7,4.18-6.76,8.9-7.2,24.25-2.28,48.44-3.19,72.49,2.06,2.58,.56,2.71,2.36,2.87,3.94,.58,5.58,3.22,8.77,9.04,9.12,3.86,.23,4.79,3.23,5.05,6.33,.27,3.14,.17,6.32,.14,9.49-.03,2.31-.13,3.65,3.22,2.68,5.45-1.58,11.03-1.31,15.15,3.46,3.74,4.32,3.27,9.31,1.13,14.08-2.46,5.48-7.07,8.92-13,8.32-4.53-.46-4.73,1.84-5.4,4.79-.93,4.04-2.03,8.04-3.07,12.05-.33,1.28-.56,2.66-2.24,2.92Z"/>
      <path class="cls-5" d="M33.78,78.65c1.71-.46,3.41-1.02,5.15-1.36,1.32-.26,2.76-.26,3.46,1.22,.81,1.68-.81,1.82-1.7,2.37-1.74,1.09-.98,2.64-.66,4.01,1.97,8.43,10.83,12.01,20.99,8.63,4.76-1.58,8.14-4.38,9.09-9.5,.17-.93,.19-2.01-.11-2.89-.43-1.28-3.52-2.44-.83-3.72,2.09-.99,4.94-.65,7.06,1.03,.36,.29,.55,1.43,.29,1.75-3.8,4.59-3.09,11.76-9.25,15.13-5.72,3.13-11.66,3.65-17.84,2.98-7.95-.87-12.96-6.28-12.95-14.23,0-2.42-.91-3.54-2.71-5.42Z"/>
      <path class="cls-7" d="M67.46,55.39c.13-4.38,2.85-5.6,4.7-7.24,4.46-3.93,9.02-7.78,14.33-10.59,1.03-.54,2.3-1.06,3.17,.03,.72,.9,.12,1.94-.72,2.55-6.87,5.01-13.41,10.49-21.49,15.25Z"/>
      <path class="cls-3" d="M46.24,54.07c-.28,1.41-1.2,1.44-2.15,.77-5.42-3.82-10.82-7.68-16.19-11.58-.7-.51-.96-1.33-.5-2.21,.47-.9,1.35-1.13,2.1-.73,6.17,3.32,11.92,7.2,16.33,12.79,.2,.25,.26,.6,.4,.96Z"/>
      <path class="cls-8" d="M76.1,64.26c-1.64,.16-2.69,.04-2.94-1.16-.18-.87,.48-1.5,1.26-1.87,3.28-1.54,6.63-2.86,10.3-3.12,1.09-.08,2.03,.26,2.26,1.41,.22,1.11-.51,2.01-1.47,2.29-3.3,.95-6.65,1.74-9.41,2.45Z"/>
      <path class="cls-13" d="M30.49,58.24c2.39,.88,5.17,1.91,7.97,2.92,1.14,.41,1.54,1.26,1.18,2.33-.38,1.14-1.49,1.28-2.46,1.13-2.98-.44-5.67-1.74-8.35-3.04-.79-.39-1.33-1.08-1.11-2,.28-1.2,1.27-1.4,2.78-1.35Z"/>
      <path class="cls-12" d="M123.49,72.13c-1.07-.19-1.83-.67-1.61-1.57,.21-.86,.47-2.03,1.69-2.08,.96-.04,1.43,.71,1.45,1.57,.03,1.12-.75,1.69-1.53,2.08Z"/>
    </g>
  </g>
</svg>