<?xml version="1.0" encoding="UTF-8"?>
<svg id="Layer_2" data-name="Layer 2" xmlns="http://www.w3.org/2000/svg" viewBox="0 0 150.12 150.66">
  <defs>
    <style>
      .cls-1 {
        fill: #e7b5cc;
      }

      .cls-2 {
        fill: #251e1b;
      }

      .cls-3 {
        fill: #f5ceba;
      }

      .cls-4 {
        fill: #fdd2ba;
      }

      .cls-5 {
        fill: #1f1b1b;
      }

      .cls-6 {
        fill: #5c4b3b;
      }

      .cls-7 {
        fill: #201e1c;
      }

      .cls-8 {
        fill: #f3cfba;
      }

      .cls-9 {
        fill: #110e0d;
      }

      .cls-10 {
        fill: #1b1718;
      }
    </style>
  </defs>
  <g id="Layer_1-2" data-name="Layer 1">
    <g>
      <path class="cls-6" d="M62.94,.91c1.55-1.22,3.23-.82,4.92-.4,8.37,1.24,16.75,2.3,25.03,4.24,18.54,4.33,31.93,15.1,40.89,31.7,7.43,13.76,12.79,28.19,14.12,43.9,.65,7.63-1.99,14.41-5.98,20.73-.94,1.49-2.41,2.7-3.87,.45-1.73-2.68-3.46-1.91-5.31-.23-.99,.89-1.87,1.92-2.98,2.66-2.19,1.46-4.16,2.06-4.17-1.71-.01-4.09-1.63-3.64-4.13-1.67-2.13,1.68-4.05,5.59-6.74,4.05-2.85-1.62-.57-5.43-.36-8.27,.53-7.49,.85-15.03-.01-22.45-1.1-9.44-5.49-17.36-13.53-22.91-.84-.51-1.59-1.12-2.2-1.9-.94-3.41-3.87-3.68-6.64-4.2,.27-2.18-2.17-1.99-2.9-3.31-3.58-5.08-8.87-7.96-14.03-11.01-.85-.5-1.85-1.16-2.75-.43-.9,.74-.47,1.84-.14,2.79,.38,1.1,1.02,2.11,1.36,3.22,.56,1.83,2.11,3.91,.16,5.51-1.66,1.37-3.55,.02-5.06-.91-4.27-2.61-8.88-4.58-13.14-7.2-1.05-.65-2.2-2.04-3.5-.85-.95,.87-.27,2.22,.05,3.32,.74,2.56,1.68,5.06,2.49,7.6,.53,1.66,2.09,3.67,.24,5.04-1.99,1.47-3.76-.46-5.28-1.6-4.79-3.61-9.42-7.42-13.18-12.17-.51-.65-.99-1.34-1.88-1.72-9.54,13.71-12.24,28.93-10.52,45.33,.73,6.94,.85,13.95,2.48,20.79,.26,1.08,.68,2.52-.61,3.16-1.29,.64-2.07-.6-2.82-1.46-1.65-1.89-2.9-5.96-5.67-.86-.52,.96-1.45,.38-2.15-.1-.79-.55-1.56-1.83-2.5-1.33-4.85,2.57-5.44-1.63-6.32-4.24C-6.03,58.24,14.25,12.37,54.88,3.34c2.72-.61,5.65-.72,8.06-2.43Z"/>
      <path class="cls-9" d="M62.94,.91c-.17,2.14-1.64,2.46-3.44,2.8C29.33,9.34,12.65,28.88,5.43,57.41c-3.1,12.25-1.8,24.71,1.99,36.79,.52,1.66,1.13,3.46,2.66,4.67q2.16-4.02,6.63,.98c.74-1.59-.34-3.9,1.81-4.87,1.25-.56,2.18,.47,7.15,7.73-.89-4.82-1.78-8.62-2.25-12.48-.5-4.11-.52-8.27-.88-12.39-1.19-13.97,0-27.48,7.53-39.8,.78-1.27,1.41-2.63,2.18-3.91,.72-1.21-1.06-3.53,1.18-3.75,1.68-.17,2.52,1.85,3.52,3.15,4.71,6.09,10.56,10.87,18.1,15.72-1.72-5.21-3.05-9.31-4.43-13.41-.65-1.92-1.53-4.25,.08-5.61,1.79-1.52,3.22,.95,4.71,1.75,5.94,3.16,11.78,6.49,18.18,10.05-.06-4.14-2.07-6.69-3.12-9.56-.53-1.43-1.05-3.07,.17-4.21,1.32-1.24,2.76-.34,4.03,.58,5.39,3.9,12.42,5.83,15.3,12.74-5.73,1.55-8.38-3.56-12.12-5.3,1.24,2.33,2.05,5.36,2.94,8.34,.52,1.72,1.28,3.66-.61,5.04-1.79,1.31-3.57,.3-5.13-.6-5.63-3.23-11.17-6.62-17.65-9.89,1.25,3.88,2.45,7.24,3.5,10.64,.58,1.88,1.78,4.09,.1,5.66-1.97,1.85-4.09,.03-5.96-.86-6.06-2.9-11.44-6.73-16.14-11.59-3.44-3.56-4.12-3.38-6.18,1.15-4.52,9.94-5.75,20.37-4.79,31.18,.64,7.12,.79,14.25,1.97,21.35,1.08,6.54,4.67,9.97,10.64,11.72,9.52,2.79,19.39,2.9,29.14,3.89,2.51,.26,5.01,.15,6.76,2.45,1.77,2.32,3.43,1.47,4.82-.4,2.26-3.05,5.47-4.22,9-4.81,4.97-.83,9.66-2.47,14.2-4.64,3.83-1.83,5.9-4.79,6.04-9.01,.26-7.49,.51-15.01-.06-22.47-.51-6.52-4.54-11.68-7.88-17.06-1.24-1.99-3.53-3.88-1.6-6.69,9.62,6.04,14.22,15.21,14.86,26.1,.55,9.4,.83,18.92-1.51,28.92,3.11-1.32,4.49-3.64,6.41-5.27,1.51-1.28,3.12-3.26,5.11-2.36,2.2,1,.86,3.54,1.03,5.41,.05,.59-.53,1.23,.31,1.85,2.08-.7,3.21-2.65,4.74-4.07,4.27-3.99,5.66-3.73,7.88,1.84,6.29-8.59,8.15-18.02,6.11-28.23-3.75-18.82-10.63-36.27-23.34-50.97-9.39-10.86-22.1-15.6-35.7-18.06-5.76-1.04-11.49-3.51-17.67-1.72-1.65,.48-.99-1.64-1.34-2.59,21.09-2.16,40.57,2.36,55.35,17.89,17.53,18.4,26.12,41.22,26.89,66.73,.22,7.43-2.72,13.9-7.61,19.45-1.29,1.46-2.57,3.52-4.76,3.2-2.24-.32-1.02-3.13-2.26-4.7-2.15,1.87-4.08,3.65-6.12,5.29-1.59,1.27-3.6,2.44-5.48,1.32-2.2-1.3-.83-3.53-.48-5.4,.12-.63,.35-1.25,.88-3.12-2.61,3.26-4.47,5.59-6.42,8.04,3,2.29,6.64,5.6,8.4,10.47,1.25,3.45,1.87,6.45,.37,10.4-1.85,4.89,.06,10.5-.16,15.79-.09,2.18,.2,4.72-3.39,3.66-2.46-2.86-1.09-6.33-1.51-9.52-.3-2.32,.43-5.56-3.46-5.25-3.16,.25-6.35,.9-6.68,5.16-.25,3.24,.61,6.66-1.38,9.66-1.12,1.14-2.22,1.35-3.29-.07-.42-.53-.84-1.11-.83-1.78,.05-6-.43-11.87-3.35-17.32-.53-.98-.55-2.25-.51-3.43,.05-1.41,.42-2.74,1.89-3.21,1.44-.46,1.96,.85,2.64,1.76,2.93,3.94,11.29,4.22,14.67,.52,1.04-1.14,.99-2.37,.65-3.72-2.02-8.06-11.24-12.83-18.92-9.75-2.16,.87-4.31,1.88-6.6,2.24-5,.78-9.55,2.03-13,6.31-1.86,2.3-5.2,3.09-7.66,.88-4.43-3.97-9.84-3.49-15.03-4.02-2.8-.29-5.65-.04-8.44-.65-6.47-1.41-10.87,1.73-14.39,6.67-.74,1.05-1.9,2.22-.56,3.5,1.01,.97,2.38,1.03,3.76,.63,1.47-.43,2.73-2.61,4.43-1,1.74,1.64,.79,3.82,.19,5.64-1.02,3.11-1.18,6.13-.34,9.3,.7,2.64,.64,5.29-1.43,7.48-.86,.52-1.59,1.42-2.79,.95-3.1-4.22-1.65-9.54-3.4-14.89-2.1,2.94-2.07,5.71-2.35,8.39-.2,1.93,.22,4.02-1.51,5.53-2.15,2.04-3.33,1.12-3.31-1.39,.02-3.32,.39-6.64,.76-9.94,.32-2.82,1.95-5.55-1.09-8.2-1.25-1.09-.12-3.41,.72-5.11,2.02-4.1,5.05-7.38,8.85-10.81-4.33-1.37-7.39-4.54-11.93-4.5-1.14,0-2.34-1.1-3.44-1.8-1.29-.82-2.39-3.34-3.92-.19-.14,.29-1.31,.38-1.8,.14-6.95-3.33-13.92-6.05-16.05-15.17-3.55-15.14-3.88-29.95,1.38-44.65C12.47,24.32,27.36,7.24,52.65,1.09c3.36-.82,6.84-1.58,10.29-.18Z"/>
      <path class="cls-1" d="M43.92,149.56c.64-3.31,.75-6.59-.32-9.86-.84-2.57,.32-4.89,.98-7.28,.45-1.65,1.26-3.34,.38-5.09-2.3,.11-1.97,3.9-4.76,2.88-2.02-.74-5.1-.79-5.88-2.17-1.06-1.87,1.6-3.68,2.83-5.36,4.05-5.51,9.01-8.4,16.3-6.51,3.96,1.03,8.26,.75,12.42,.99,3.7,.21,7.35-.47,9.96,3.75,1.61,2.62,6.82,1.36,8.73-2.35,1.69-3.3,3.9-3.73,7.08-3.99,5.69-.47,10.88-2.81,15.92-5.41,1.32-.68,2.74-1.85,3.09,.89,.12,.89,.59,1.2,1.62,1.39,6.79,1.24,9.48,6.5,11.51,12.25,.68,1.94,.23,3.59-2.11,4.23-2.4,.65-4.75,1.49-7.15,2.12-4.31,1.14-8.33,1.58-9.06-4.54-.03-.3-.3-.6-.54-.82-.2-.18-.51-.24-1.42-.64,.18,3.87-1.54,7.73,2.33,10.46,1.48,1.04,1.1,2.27,1.09,3.51,0,3.83-.1,7.66-.16,11.48-20.95,.02-41.89,.04-62.84,.06Z"/>
      <path class="cls-3" d="M110.04,149.57c.03-2.99,.42-6.02,.02-8.95-.65-4.69,1.35-6.33,5.75-7.01,6.62-1.02,6.6-1.29,6.91,5.47,.16,3.48,.23,6.96,.35,10.44-4.34,.02-8.69,.03-13.03,.05Z"/>
      <path class="cls-8" d="M33.86,149.54c.06-4.46,.32-8.91,1.18-13.31,.31-1.6,.6-2.86,2.75-2.56,2.01,.28,2.29,1.35,2.15,3.1-.38,4.64,.51,9.19,1.19,13.75-2.31-1.17-4.82-.81-7.26-.97Z"/>
      <path class="cls-4" d="M100.97,49.66c-.62,2.12,.79,3.43,1.96,4.81,11.87,13.92,9.87,30.22,8.08,46.52-.21,1.87-1.59,2.36-2.84,3.11-5.14,3.13-10.57,5.51-16.54,6.54-4.28,.74-8.41,1.43-10.72,6.03-1.21,2.41-3.59,2.72-4.8-.21-1.25-3.02-3.63-2.92-6.13-3.06-9.95-.54-19.91-.94-29.59-3.74-6.58-1.91-10.91-5.26-11.82-12.82-1.73-14.39-3.52-28.71-.55-43.12,1.18-5.72,3.59-10.99,6.64-16.64,6.28,7.04,13.13,12.97,21.54,16.82,1.4,.64,2.82,2.54,4.33,1.14,1.22-1.13-.28-2.82-.67-4.16-1.31-4.58-2.92-9.07-4.78-14.68,6.53,3.71,12.3,7,18.07,10.28,1.3,.74,2.58,1.51,3.93,2.14,.84,.39,1.76,1.22,2.73,.33,.88-.81,.57-1.87,.26-2.8-1.3-3.88-2.66-7.75-4.11-11.95,5.3,1.84,8.44,6.88,13.97,7.37,.46,1.08,3.79,.38,1.85,2.96-.16,.48-.64,.78-.81,1.19-.37,.88,.39,.2,.45,.19,3.09-.62,5.38,.88,7.55,2.76,.66,.33,1.33,.66,1.99,.99Z"/>
      <path class="cls-2" d="M98.98,48.67c-3.69-.14-7.33-4.24-11.33,.74q1.03-3.74,4.16-4.88c3.47-.5,7.12-1.3,7.18,4.14Z"/>
      <path class="cls-10" d="M75.05,85.75c-.39,2.86-2.21,5.45-5.24,7.23-2.15,1.27-4.16,.8-5.99-.62-2.61-2.02-3.32-4.83-2.89-7.96,.08-.57,.42-1.35,.86-1.56,1.05-.5,1.39,.5,1.71,1.22,.27,.59,.33,1.27,.55,1.9,.55,1.6,1.31,3.33,3.09,3.5,1.94,.19,2.48-1.89,3.46-3.14,.49-.64,.81-1.43,1.12-2.19,.43-1.04,.66-2.47,2.19-2.01,1.36,.41,1.18,1.81,1.14,3.64Z"/>
      <path class="cls-7" d="M94.19,63.92c3.68,.03,6.24,1.58,7.7,4.74,.4,.86,.54,2.1-.33,2.77-.87,.68-1.98,.37-2.6-.52-2.97-4.19-6.34-3.2-9.91-.94-.89,.56-1.98,1.81-2.96,.39-.75-1.08,.07-2.25,.82-3.12,1.95-2.27,4.57-3.14,7.29-3.32Z"/>
      <path class="cls-5" d="M43.48,64.56c1.59-.07,3.42,.62,4.98,1.94,1.45,1.23,2.82,2.91,1.35,4.63-1.39,1.62-2.53-.29-3.61-1.14-2.48-1.94-4.81-1.71-7.1,.36-.79,.71-1.65,2.13-2.81,.93-1.05-1.08-.44-2.51,.32-3.64,1.51-2.25,3.77-3.06,6.87-3.08Z"/>
      <path class="cls-9" d="M47.54,52.11c-4.04-2.17-7.08-3.6-11.4-.75,3.56-5.25,7.96-4.84,11.4,.75Z"/>
    </g>
  </g>
</svg>