<?xml version="1.0" encoding="UTF-8"?>
<svg id="Layer_2" data-name="Layer 2" xmlns="http://www.w3.org/2000/svg" viewBox="0 0 139.41 150.22">
  <defs>
    <style>
      .cls-1 {
        fill: #a06242;
      }

      .cls-2 {
        fill: #f1ceba;
      }

      .cls-3 {
        fill: #241f1f;
      }

      .cls-4 {
        fill: #fdd2ba;
      }

      .cls-5 {
        fill: #171211;
      }

      .cls-6 {
        fill: #1e191b;
      }

      .cls-7 {
        fill: #b56034;
      }

      .cls-8 {
        fill: #302826;
      }

      .cls-9 {
        fill: #b66034;
      }

      .cls-10 {
        fill: #20191a;
      }

      .cls-11 {
        fill: #160f0e;
      }

      .cls-12 {
        fill: #f9d1ba;
      }

      .cls-13 {
        fill: #a82d48;
      }

      .cls-14 {
        fill: #f9b7b4;
      }
    </style>
  </defs>
  <g id="Layer_1-2" data-name="Layer 1">
    <g>
      <path class="cls-9" d="M69.22,3.05c1.15,.29,2.3,.58,3.45,.86,5.56,2.59,11.48,4.24,16.97,7.08,16.1,8.31,23.31,22.03,24.66,39.42,.33,4.29,.11,8.64,.03,12.96-.01,.79-.1,1.56-.27,2.33-3.94,11.43-11.59,19.67-22.08,25.38-2.71,1.47-5.6,2.92-7.49-1.22-.19-.75-.15-1.49,.16-2.21,.26-.42,.76-.74,.91-1.17,2.13-6.24,5.86-10.49,12.5-12.63,3.53-1.14,4.7-6.27,3.45-10.03-1.25-3.76-4.24-5.09-7.89-4.54-3.48,.52-5.33-1.1-6.62-3.95-3.39-7.5-9.11-13-15.35-18.1-4.26-3.48-7.96-7.56-11.77-11.51-1.66-1.72-3.14-2.4-5.02-.47-12.36,12.68-26.77,22.36-43.01,29.36-.77,.33-1.3,1.02-1.81,1.69-1.25,1.51-.37,5.19-3.41,4.57-2.55-.52-2.73-3.57-2.78-5.86-.31-13.36,2.59-25.66,12.23-35.62,1.04-1.07,2.11-2.12,2.92-3.39,7.94-7.39,17.92-10.24,28.14-12.39,4.84-1.02,9.77-1.54,14.72-.33,2.42,.59,4.89-.15,7.34-.21Z"/>
      <path class="cls-11" d="M85.23,89.66c1.07,2.82,2.83,1.95,4.77,1.01,11.02-5.34,18.47-13.94,23.11-25.13,.82-2.19,3.77,.74,4.56-2.22-1.53-.2-3.11,2.5-4.41,.14-.35-7.42,.19-14.86-1.56-22.24-4.28-18.04-16.43-28.04-33.24-33.62-2.16-.72-5.29-.24-5.79-3.69,2.45-1.14,5.07-.7,7.33,.05,16.4,5.45,29.44,14.68,34.22,32.36,.97,3.61,2.64,4.44,6.18,4.49,10.78,.16,17.89,7.29,18.84,17.98,.93,10.43-2.01,20.05-5.64,29.58-1.65,4.34-3.3,8.69-4.73,13.1-.55,1.7-1.22,3.89-.61,5.35,2.52,6-1.5,6-5.29,6.08-3.15,.07-6.38,.12-9.45-.49-9.89-1.98-15.66-6.6-14.59-17.7,.11-1.15,.01-2.32,.01-4.63-7.39,5.76-17.16,4.66-24,11.88,7.65,1,14.5,3.14,20.35,7.75,4.43,3.49,7.45,7.93,9.25,13.27,.6,1.8,1.25,3.95,.45,5.35-3.34,5.83-1.26,12.01-1.7,18.01-.14,1.91,.52,4.49-3,3.18-2.65-2.58-1.33-5.92-1.66-8.93-.26-2.38,.44-5.24-3.6-5.06-4.96,.22-6.31,1.2-6.57,5.34-.19,3.08,.51,6.4-2.35,8.76-1.03,.94-2.02,.68-2.98-.11-1.6-8.33-2.6-16.77-5.04-24.94-.47-1.57,.28-3.55,2.31-3.82,1.78-.23,2.39,1.45,3.03,2.82,2.77,5.86,8.7,7.59,14.53,4.35,2.3-1.28,1.66-2.92,.88-4.67-3.68-8.24-10.37-12.74-18.78-15.04-2.89-.79-5.9-.99-8.85-1.47-3.45-.55-6.03,.39-8.41,3.03-4.57,5.07-7.67,5.33-12.75,.98-3.7-3.17-8.01-3.38-12.24-2.7-8.09,1.31-15.06,5.14-20.73,11.12-1.09,1.15-2.88,2.43-1.96,4.2,1.01,1.93,3.32,2.14,5.3,2.06,6.36-.24,6.41-.3,5.27,6.21-.47,2.72,.05,5.28,.61,7.89,.68,3.15,.95,6.26-1.38,8.96-.99,.33-1.98,.74-3.03,.21-2.8-3.81-1.29-8.6-2.87-12.71-.5-1.3,.2-3.62-1.7-3.63-2.25-.01-1.83,2.35-1.95,3.9-.31,4.23,.61,8.67-2.37,12.39-2.75,1.36-3.24-.25-3.09-2.45,.25-3.65,.8-7.28,.89-10.93,.08-3.08,1.07-5.98-1.39-9.24-2.02-2.67,.49-6.25,2.63-8.96,4.63-5.87,10.65-9.83,17.61-12.62-.36-.38-.45-.57-.59-.61-14.07-4.65-19.65-15.23-20.43-29.18-2.04-6.7-.8-13.3,.6-19.9,5.47-2.77,11.07-5.3,16.37-8.37,10.11-5.86,19.43-12.85,27.43-21.4,3-3.2,4.98-4.7,8.15,.1,3,4.55,7.36,8.12,11.66,11.55,6.57,5.26,12.33,11.15,15.7,19.04,.71,1.66,1.18,3.06,3.93,2.39,5.21-1.27,9.29,1.03,10.52,5.05,1.51,4.92-.55,11.15-5.45,12.56-5.55,1.6-8.88,4.18-9.61,9.98-.17,1.39-1.29,2.29-2.82,2.39-.17,0-.43,.04-.48-.04-2.18-3.55,1.66-14.62,5.47-15.8,2.2-.68,4.65-.71,6.45-2.46,1.54-1.5,2.6-3.2,1.23-5.29-1.17-1.78-3-2.22-4.82-1.14-3.77,2.24-5.81,.54-7.45-2.82-4.02-8.24-9.99-14.86-17.16-20.5-3.28-2.58-6.17-5.61-8.88-8.76-1.84-2.13-3.37-2.32-5.34-.28-10.93,11.27-23.64,19.93-38.16,25.89-1.79,.73-2.85,2.05-2.46,3.86,1.45,6.73,.5,13.6,1.53,20.38,1.48,9.79,7.62,14.71,16.28,17.54,3.97,1.3,8.09,1.98,12.17,2.78,3.61,.71,7.14,1.38,9.75,4.46,1.66,1.96,3.7,1.54,4.98-.54,1.72-2.79,4.39-3.87,7.23-4.96,5.17-2,9.62-5.25,14.06-8.5,1.67-1.22,3.17-3.14,5.71-2.2Z"/>
      <path class="cls-14" d="M24.94,148.49c.8-3.8,.89-7.55-.42-11.31-1.47-4.19,1.02-8.06,1.43-13.34-4,4.92-7.77,2.68-11.58,1.37-2.08-.71-2.67-1.52-1.11-3.43,8.35-10.3,18.6-16.38,32.35-14.85,1.99,.22,3.53,.92,4.96,2.73,3.57,4.52,8.38,4.23,11.46-.66,2.2-3.5,4.85-4.17,8.72-3.54,5.08,.83,10.2,1.23,15.02,3.29,7.26,3.11,12.22,8.35,15.24,15.62,1.2,2.89,.33,4.37-2.51,4.97-3.58,.76-7.17,1.33-10.88,1.12-2.75-.15-4.37-1.04-4.53-4.05-.07-1.28-.68-2.56-1.17-3.79-.3-.76-.87-1.53-1.81-1.37-1.03,.18-1.24,1.16-1.05,1.96,.77,3.3-.28,7.19,2.72,9.75,1.43,1.22,1.2,2.6,1.22,4.05,.07,4.16,.11,8.32,.16,12.48-19.4-.34-38.8-.68-58.2-1.02Z"/>
      <path class="cls-5" d="M69.22,3.05c-2.66,1.44-5.48,1.82-8.48,1.53-15.16-1.49-28.52,3.28-40.75,11.88C7.62,27.02,3.68,40.83,4.59,56.49c.21,3.5,2.2,6.59,2.64,10.05,.2,1.58,1.65,3.62-1.2,4.42C1.02,66.22,.44,59.78,.1,53.62-1.25,29.31,11.28,11.64,35.21,3.78,43.42,1.08,51.84-1.06,60.62,.56c2.92,.54,5.74,1.64,8.6,2.49Z"/>
      <path class="cls-12" d="M86.13,149.62c1.29-4.02,1.08-8.14,.62-12.23-.25-2.21,.4-2.78,2.54-3,10.56-1.1,10.53-1.17,10.56,9.72,0,1.8,.29,3.6,.45,5.4-4.73,.04-9.45,.07-14.18,.11Z"/>
      <path class="cls-2" d="M13.03,148.65c.47-5.08,.87-10.16,1.44-15.23,.16-1.39-.39-3.83,2.36-3.18,1.64,.39,3.75,.13,3.54,3.44-.33,5,1.84,9.91,1.55,15.02-2.96-.02-5.92-.04-8.89-.05Z"/>
      <path class="cls-1" d="M6.03,70.95c1.2-3.73-1.09-6.97-1.54-10.48-1.96-15.37,.52-29.38,11.59-41.01,1.14-1.2,2.25-2.46,3.91-2.99-2.61,4.18-6.44,7.41-8.94,11.73-5.07,8.76-6.07,18.29-5.81,28.08,.04,1.34,.44,2.89,1.79,4.02,2.15-1.32-.14-4.41,2.22-5.52-.2,6.63-.4,13.27-.6,19.9-1.5-.8-1.83-2.43-2.62-3.72Z"/>
      <path class="cls-4" d="M85.23,89.66c-2.07,.37-3.49,1.8-5.03,3.06-4.52,3.69-9.33,6.93-14.85,8.96-2.64,.97-5,1.76-6.36,4.8-1.31,2.93-4.57,3.63-6.39,.78-2.26-3.55-5.61-3.79-8.91-4.52-4.37-.97-8.79-1.66-13.09-2.98-10.81-3.32-16.54-10.56-17.32-21.76-.41-5.97-.65-11.96-.99-17.94-.11-1.93-.01-3.38,2.33-4.23,15.59-5.67,28.66-15.18,40.08-27.04,1.85-1.92,2.95-2.72,4.64,.14,2.14,3.61,5.25,6.45,8.53,9.01,8.1,6.32,15.01,13.58,19.22,23.12,.97,2.2,2.12,3.86,4.68,1.39,2.39-2.31,4.81-1.84,6.9,.57,2.37,2.74,1.33,5.24-.73,7.55-2.06,2.31-4.97,2.5-7.77,2.83-2.1,.25-3.84,.09-2.95,3.42,.47,1.76-.99,4.05-1.62,6.08-.53,1.69-1.77,3.29-.46,5.15,.03,.54,.06,1.07,.1,1.61Z"/>
      <path class="cls-13" d="M113.26,63.46c2.97,1.16,2.77-2.55,4.72-3.13,.31,.43,.75,.78,.83,1.2,.88,4.55-.24,5.33-5.7,4.01,.05-.69,.11-1.38,.16-2.07Z"/>
      <path class="cls-7" d="M135.23,63.91c.19,8.44-3.09,16.46-6.11,24.54-2.2,5.89-5.12,11.57-5.11,18.07,0,2.08-1.23,2.41-2.92,2.43-4.55,.05-8.94-.55-13.01-2.73-2.98-1.6-4.78-3.88-5.06-7.43-.51-6.37-.84-12.24,5.04-17.09,4.04-3.33,6.26-8.4,11.37-11.23,4.85-2.69,4.95-10.34,.43-13.81-4.32-3.32-2.11-7.63-3.04-11.4-.43-1.73,1.75-1.27,3.04-1.04,11.48,1.99,15.52,7.04,15.37,19.68Z"/>
      <path class="cls-10" d="M40.5,76.03c2.47,1.04,1.84,3.68,3.74,4.41,1.5-.41,1.7-1.87,2.36-2.92,.75-1.18,1.13-3.35,2.94-2.44,1.32,.66,.93,2.8,.42,4.09-1.16,2.95-2.89,6.31-6.59,5.23-3.72-1.09-4.14-4.5-2.89-8.37Z"/>
      <path class="cls-6" d="M69.11,55.31c2.51-.11,4.8,.93,6.43,3.29,.6,.87,.8,1.82-.02,2.68-.84,.88-1.81,.75-2.6,0-2.47-2.34-5.04-2.78-7.99-.87-.91,.59-2.29,1.17-2.98-.22-.45-.91,.33-1.85,1.06-2.57,1.6-1.58,3.53-2.33,6.11-2.3Z"/>
      <path class="cls-3" d="M22.69,55.73c1.02,.27,1.99,.48,2.93,.79,1.61,.52,3.62,1.36,3.17,3.18-.56,2.25-2.66,1.26-4.15,.7-1.47-.56-2.84-.69-4.32-.08-1.15,.47-2.71,1.64-3.39-.12-.69-1.81,.57-3.11,2.41-3.63,1.11-.31,2.23-.56,3.35-.84Z"/>
      <path class="cls-8" d="M75.5,47.34c-4.13-.34-7.33-1.55-10.82-.08,3.03-4.79,6.53-4.9,10.82,.08Z"/>
    </g>
  </g>
</svg>