<?xml version="1.0" encoding="UTF-8"?>
<svg id="Layer_2" data-name="Layer 2" xmlns="http://www.w3.org/2000/svg" viewBox="0 0 134.93 164.94">
  <defs>
    <style>
      .cls-1 {
        fill: #a37354;
      }

      .cls-2 {
        fill: #c77440;
      }

      .cls-3 {
        fill: #fdd2ba;
      }

      .cls-4 {
        fill: #211d1a;
      }

      .cls-5 {
        fill: #2a2320;
      }

      .cls-6 {
        fill: #1a1311;
      }

      .cls-7 {
        fill: #292221;
      }

      .cls-8 {
        fill: #bcc1ba;
      }

      .cls-9 {
        fill: #201c1a;
      }

      .cls-10 {
        fill: #201b1a;
      }

      .cls-11 {
        fill: #201412;
      }

      .cls-12 {
        fill: #1d1512;
      }

      .cls-13 {
        fill: #f4cfba;
      }

      .cls-14 {
        fill: #1d211d;
      }

      .cls-15 {
        fill: #13100f;
      }

      .cls-16 {
        fill: #f7d1ba;
      }

      .cls-17 {
        fill: #131312;
      }
    </style>
  </defs>
  <g id="Layer_1-2" data-name="Layer 1">
    <g>
      <path class="cls-8" d="M94.76,105.84c.34,.26,.68,.52,1.02,.78,1.4,2.31,3.74,3.22,6.1,4.05,3,1.05,5.77,2.61,8.7,3.78,9.69,3.87,12.13,12.08,13.04,21.26,.24,2.47-.97,4.21-3.33,4.94-4.49,1.4-9.14,2.04-13.79,1.57-4.41-.45-5.43-2.24-6.51-9.02,1.06,8.2,2.41,16.37,2.49,24.66,.02,1.97,.84,3.97-.77,5.69-21.29,.22-42.56,1.47-63.86,1.07-.9-6.1-.65-12.2,.1-18.28,.49-3.96,.7-7.87-.05-12.31-2.33,5.73-7.15,7.02-11.93,3.77-1.79-1.22-1.87-2.75-.88-4.3,4.46-7.01,8.74-14.14,16.79-17.88,4.05-1.88,7.82-.5,11.67,.2,1.51,.27,1.84,1.67,1.91,3.12,.25,5.49,.5,5.62,5.71,3.37,.61-.26,1.21-.55,1.73-1.05-1.12-1.17-2.24,0-3.34,.02-1.61,.02-3.14-.08-3.43-2.01-.26-1.72,.76-2.9,2.3-3.42,2.79-.95,5.52-.46,8.29,.44,5.11,1.67,7.92,.35,10.43-4.58,.35-.67,.87-1.18,1.55-1.5,1.62-.33,3.29-.17,4.94-.47,4-.73,5.3,.43,4.84,4.35-.31,2.63-.82,5.26-1.81,7.75-1.97,4.92-3.93,5.38-8.04,1.87-.51-.43-.96-.92-1.59-1.21,2.44,1.74,3.21,6.3,6.82,5.55,3.68-.76,3.77-5.07,4.87-8.11,1.08-2.98,1.47-6.04,1.2-9.3-.26-3.1,.91-5.55,4.85-4.79Z"/>
      <path class="cls-15" d="M94.76,105.84c-3.08,1.2-4.12,2.76-3.6,6.63,.72,5.4-1.43,10.74-4.24,15.52-1.59,2.7-3.84,3.1-6.12,.79-1.98-2-3.79-4.17-5.63-6.3-.62-.71-1.6-1.61-.74-2.53,1.09-1.17,2.08-.11,2.97,.64,.13,.11,.23,.24,.37,.33,2.05,1.34,2.96,4.7,6.04,4.06,1.54-.32,4.12-12.08,3.42-13.68-.75-1.72-1.94-.81-2.9-.49-1.91,.63-3.77,1.5-5.44-.45-.33-2.75,2.01-3.24,3.67-4.02,8.46-3.98,16.05-8.83,20.02-17.87,.73-1.66,2.08-3.16,4.37-2.04,.5,.59,.75,1.29,.86,2.04,.47,3.56-1.59,6.37-2.77,9.44-.51,1.33-.6,2.68,.9,3.47,1.3,.68,2.21-.13,3.02-1.03,5.47-6.03,11.38-11.69,15.4-18.92,5.67-10.22,6.82-20.66,2.26-31.65-5.52-13.3-13.18-25.09-24.45-34.15-12.61-10.14-26.38-13.89-41.71-6.01-3.9,2.01-7.84,3.16-12.43,2.38-4.63-.79-8.9,1.28-12.66,3.8C20.28,25.94,10,39.59,5.59,57.4c-1.08,4.37,.39,8.49,1.1,13.09,3.28-1.15,6.11-4.74,9.58-1.27,1.28,1.82,.37,2.93-1.09,4.14-3.62,3.02-4.07,5.68-.47,8.42,4.76,3.62,6.91,8.16,7.71,13.83,.72,5.05,3.93,8.24,8.61,10.05,7.91,3.06,16.28,4.52,24.39,6.9,1.64,.48,3.29,.12,4.89-.38,1.27-.4,2.68-1.1,3.87-.66,4.52,1.65,8.98,.74,13.48,.08-.13,5.46-5.49,8.74-10.84,6.1-2.86-1.41-5.51-.58-8.24-.72-1.52-.08-1.85,1.31-1.61,2.51,.3,1.52,1.37,.82,2.32,.63,2.4-.48,5.85-3.4,6.9-.13,.85,2.63-3.76,2.75-5.88,4.08-.69,.44-1.52,.66-2.25,1.03-1.42,.73-2.94,1.01-4.24,.06-1.55-1.14-.83-2.77-.22-4.09,1.6-3.43,.34-3.85-3.08-4.72-7.47-1.9-12.05,2.22-16.41,6.66-3.1,3.16-5.28,7.21-7.96,10.8-1.63,2.18-.96,3.2,1.49,3.58,1.15,.17,2.35,.18,3.44,.53,3.33,1.07,5.03,.28,4.92-3.56-.04-1.45-.31-3.93,1.93-3.81,1.69,.1,1.4,2.49,1.41,3.79,.04,10.11,.03,20.22-1.49,30.25-1.49,.9-2.25-.23-3.09-1.12-2.01-2.23-1.31-4.98-1.39-7.56-.07-1.98,.45-3.93,.63-5.89,.24-2.57,1.03-6-2.78-6.19-3.56-.17-2.86,3.35-3.08,5.62-.31,3.28-1.02,6.52-1.13,9.82-.06,1.7-.49,3.27-2.14,4.19-3.75,1.21-3.36-1.58-3.14-3.57,.58-5.28,1.43-10.53,2.2-15.79,.12-.82,.69-1.75,.45-2.42-4.52-13.07,4.53-19.53,12.76-26.39,.24-.2,.4-.51,.99-1.28-8.48-3.73-19.36-4.58-20.65-16.84-5.46,3.95-6.4,3.59-7.82-2.89-.93-4.24-2-8.46-4.14-12.22-7.97-14.07-6.85-27.96,.47-41.8,6.35-11.99,15.19-21.79,26.52-29.22,5.84-3.83,12.21-6.07,19.34-3.8,1.4,.45,2.49,.05,3.71-.7,17.93-10.96,34.7-7.45,50.19,4.86,14.05,11.17,23.28,25.97,27.9,43.17,3.89,14.46-1.51,27.08-10.63,38.27-2.94,3.61-6.19,6.96-9.33,10.4-5.39,5.88-6.03,6.61-11.59,1.93-3.76-3.17-5.03-.71-7.35,.63Z"/>
      <path class="cls-17" d="M101.7,163.54c-.73-5.77-.63-11.64-1.31-17.37-.54-4.62-2.33-9.13-1.96-13.92,.1-1.32-.82-3.47,1.41-3.55,1.44-.05,1.59,1.88,1.83,3.16q1.86,9.8,12.01,8.74c9.21-.96,9.39-1.33,7.86-10.16-1.27-7.32-4.91-12.52-12.03-15.12-3.89-1.42-7.74-2.94-11.54-4.58-1.66-.72-4.13-1.34-2.19-4.12,7.6,1.2,14.7,3.95,21.13,8.02,8.34,5.29,10.01,14.5,9.04,22.81-.78,6.66-.34,13.03-.3,19.54,0,1.49,.09,3-.11,4.46-.3,2.18-1.68,2.66-3.61,1.84-2.93-3.28-1.17-7.28-1.7-10.93-.31-2.17,.99-5.49-1.78-6.11-3.6-.81-7.58-.95-11.2,.54-1.15,.47-1.03,1.99-1.08,3.13-.12,2.82,0,5.63,.43,8.43,.27,1.8,.58,3.66-1.12,5.05-1.22,1.3-2.48,1.26-3.78,.13Z"/>
      <path class="cls-16" d="M105.49,163.4c-.32-4.95-.53-9.91-1-14.84-.25-2.69,.33-4.05,3.38-3.79,2.29,.2,4.63,0,6.94-.17,6.52-.48,6.5-.51,6.69,6.32,.11,4.13,.29,8.26,.44,12.39-5.48,.03-10.97,.07-16.45,.1Z"/>
      <path class="cls-13" d="M24.86,163.48c.74-5.91,1.47-11.82,2.23-17.73,.31-2.41,.63-4.46,4.17-3.9,3.06,.48,4.71,1.12,4.35,4.75-.56,5.6-.59,11.25-.85,16.88-3.3,0-6.6,0-9.89,0Z"/>
      <path class="cls-3" d="M77.65,111.6c-4,1.73-7.88,4.55-12.37,1.05-.41-.32-1.31-.14-1.94,0-13.26,2.91-24.68-3.25-36.41-7.57-4.42-1.63-5.28-6.18-6.01-10.26-.87-4.88-2.43-8.8-6.93-11.85-5.12-3.47-4.4-7.67,1.08-10.47,1.84-.94,1.02-2.08,.55-3.27-.03-.77,.31-1.4,.72-2.01,4.35-8.23,8.76-16.38,14.26-23.98,5.08-7.03,10.68-10.76,19.36-7.2,1.24-.14,2.11-1.01,3.1-1.64,4.75-5.57,10.68-5.96,17.2-4,1.9,.57,3.8,1.21,5.72,1.7,11.23,2.8,17.61,9.77,19.23,21.36,.68,4.89,1.81,9.78,3.87,14.35,.58,1.16,.68,2.44,.82,3.7,.19,1.81,1.22,1.49,2.36,.95,2.43-1.09,4.4-2.97,6.96-3.82,5.19-1.72,9.97,.29,11.34,4.84,1.33,4.45-1.41,9.44-6.3,10.82-2.54,.72-5.04,1.56-7.57,2.29-2.32-.64-2.99,1.25-3.49,2.67-3.23,9.06-10.61,13.51-18.66,17.35-2.03,.97-4.44,1.5-5.67,3.73-.41,.42-.82,.83-1.22,1.25Z"/>
      <path class="cls-14" d="M71.55,124.84c-.22,10.53,.94,21.07-1.38,31.58-1.97-10.55-1.49-21.1-1.48-31.65l2.86,.07Z"/>
      <path class="cls-2" d="M101.7,73.77c-1.13,1.94-2.24,2.63-2.77-.28-.29-1.58-.19-3.22-.27-4.84-1.88-4.55-1.5-9.47-2.07-14.2-1.52-12.49-7.79-20.55-20.09-23.74-1.61-.42-3.17-.99-4.76-1.47-7.83-2.33-14.86-2.33-19.01,6.33-.55,.6-1.1,1.19-1.65,1.79-1.38-.39-1.93-1.76-2.98-2.55-4.12-3.09-8.85-2.7-12.91,1.57-8.71,9.18-14.53,20.09-18.63,31.99-.31,.28-.62,.56-.93,.84-4.05-1.19-6.76,.53-8.9,5.35-2.83-7.59-3.62-14.11-1.6-20.78,5.17-17.15,15.78-30.19,30.71-39.83,2.94-1.9,6.32-3.9,9.78-3.21,7.19,1.43,13.27-1.46,19.33-4.16,10.46-4.67,20.35-2.76,29.64,2.47,18.91,10.66,29.99,27.7,35.47,48.09,3.07,11.43-1.66,21.99-8.78,31.12-3.78,4.85-8.09,9.28-12.12,13.93-1.2,1.39-2.1,2.17-4.03,.66-1.82-1.43-2.91-2.54-1.76-4.9,1.43-2.94,3.86-5.53,3.44-9.17,1.21-3.11,4.09-2.24,6.41-2.66,4.49-.81,7.66-3.17,8.81-7.68,1.02-4.01,.17-7.58-3.2-10.29-3.81-3.06-10.01-2.32-14.02,1.7-1.17,1.18-2.02,2.63-3.09,3.89Z"/>
      <path class="cls-12" d="M101.7,73.77c-.52-5.09,3.46-6.33,6.9-7.81,4.24-1.82,8.41-1.79,11.96,1.71,3.31,3.25,3.9,7.24,2.68,11.48-1.56,5.45-6.07,8.53-11.96,8.62-1.55,.02-3.36-.88-4.49,1.03-.03-.73-.07-1.47-.1-2.21,.81-2.63,3.08-2.73,5.22-2.95,2.64-.26,4.82-1.37,6.31-3.53,1.86-2.7,2.05-5.62,.23-8.41-1.81-2.78-4.37-2.85-7.46-2.3-3.58,.64-5.51,4.42-9.29,4.36Z"/>
      <path class="cls-1" d="M14.08,94.43c-1.36-2.22-2.28-4.45-1.03-6.72,.38-.68,2.27-.51,2.91,.7,1.32,2.46,.12,4.26-1.89,6.01Z"/>
      <path class="cls-6" d="M52.73,35.59c2.08-7.82,4.85-9.81,12.84-8.82,5.62,.69,11,2.35,16.29,4.37,9.78,3.73,14.45,11.15,15.77,21.14,.71,5.44,1.44,10.88,1.04,16.38-1.64-.33-1.79-1.62-2.08-2.97-1.27-5.8-2.64-11.58-3.98-17.37-1.14-4.93-3.77-8.74-8.27-11.21-6.01-3.29-12.47-5.27-19.19-6.34-3.68-.59-7.32-.52-9.47,3.47-.58,1.08-1.64,1.61-2.94,1.35Z"/>
      <path class="cls-11" d="M16.56,68.39c-.86-2.27,.37-4.23,1.09-6.18,3.84-10.38,9.74-19.55,17.37-27.5,5.33-5.56,13.41-4.01,16.06,2.67-.64,.05-1.45,.37-1.92,.1-7.61-4.26-12.21-.34-16.65,5.52-5.13,6.78-9.78,13.78-13.25,21.55-.63,1.41-.74,3.31-2.7,3.83Z"/>
      <path class="cls-10" d="M49.48,88.19c1.67,.71,1.48,2.1,2.06,3.03,2.79,4.44,5.67,4.48,8.52,.05,.75-1.17,1.33-3.45,2.83-2.75,1.99,.93,.95,3.18,.35,4.78-1.41,3.78-5.12,5.62-8.69,4.51-4.4-1.38-6.3-4.81-5.07-9.62Z"/>
      <path class="cls-4" d="M39.89,74.66c-.59,2.05,.11,5.22-3.17,5.16-3.18-.06-2.94-3.12-2.95-5.29,0-2.3,.42-5.18,3.44-5.01,2.85,.16,2.17,3.13,2.68,5.13Z"/>
      <path class="cls-9" d="M78.82,74.48c-.09,2.54,.18,5.46-2.99,5.42-2.88-.04-2.75-3.11-2.63-5,.12-1.96-.71-5.35,2.62-5.39,3.14-.04,2.65,3.07,3,4.97Z"/>
      <path class="cls-7" d="M71.84,55.14c-.84-2.81,.48-4.55,2.91-5.38,2.03-.7,3.5,.76,4.54,2.23,.79,1.11,2.09,2.61,.69,3.97-1.56,1.51-2.4-.49-3.03-1.3-2.05-2.64-3.34,.77-5.11,.48Z"/>
      <path class="cls-5" d="M32.78,56.25c-.13-3.4,1.45-4.62,3.78-4.9,1.88-.23,3.62,.27,4.41,2.32,.3,.76,.66,1.53,.02,2.3-.77,.95-1.56,.38-2.09-.16-2.02-2.07-3.87-.36-6.13,.43Z"/>
    </g>
  </g>
</svg>