<?xml version="1.0" encoding="UTF-8"?>
<svg id="Layer_2" data-name="Layer 2" xmlns="http://www.w3.org/2000/svg" viewBox="0 0 126.54 147.95">
  <defs>
    <style>
      .cls-1 {
        fill: #f0d0bb;
      }

      .cls-2 {
        fill: #fcd2b9;
      }

      .cls-3 {
        fill: #0f0e0f;
      }

      .cls-4 {
        fill: #fcd2ba;
      }

      .cls-5 {
        fill: #fbfafa;
      }

      .cls-6 {
        fill: #626262;
      }

      .cls-7 {
        fill: #cf95c3;
      }

      .cls-8 {
        fill: #f8f7f6;
      }

      .cls-9 {
        fill: #2c2321;
      }

      .cls-10 {
        fill: #20201f;
      }

      .cls-11 {
        fill: #4e4e4f;
      }

      .cls-12 {
        fill: #f7d1b9;
      }

      .cls-13 {
        fill: #2b2321;
      }

      .cls-14 {
        fill: #191415;
      }

      .cls-15 {
        fill: #4d4e50;
      }

      .cls-16 {
        fill: #201f1f;
      }
    </style>
  </defs>
  <g id="Layer_1-2" data-name="Layer 1">
    <g>
      <path class="cls-3" d="M22.23,146.13c-2.46,2.34-3.28,.22-3.29-1.58-.02-3.97,.39-7.95,.74-11.92,.11-1.22,1.25-2.36-.41-3.48-3.87-2.63-2.61-6.05-.95-9.21,4.01-7.66,10.17-12.98,18.52-15.85-1.32-1.84-3.27-1.85-4.85-2.38-9.51-3.2-16.64-8.89-19.68-18.75-.98-3.19-4.25-3.89-5.85-6.48C-1.93,62.94-1.75,49.01,4.73,35.12,14.29,14.63,31.79,4.99,53.2,1.22c8.24-1.45,16.54-1.84,24.75,.13,2.97,.71,6.34,1.21,7.59,4.81,.83,3.92-1.78,2.78-3.53,2.21-19.74-6.42-37.81-1.75-54.69,8.75-8.78,5.46-15.16,13.4-18.91,23.21-3.51,8.79-3.52,17.67-.6,26.7-5.33-16.35,4.64-25.79,15.66-34.52,7.68-6.09,16.62-9.72,26.23-11.72,5.55-1.16,10.46-.02,15.91,1.79,5.02,1.66,8.97,6.16,14.78,5.64,1.31-.12,2.37,1.16,3.19,2.21,5.14,6.56,10.54,12.98,12.82,21.23,1.05,3.78,3.17,5.33,7.15,5.44,6.12,.18,10.45,4.34,10.83,9.66,.33,4.67-3.34,9.39-8.78,10.55-2.75,.58-3.94,1.93-4.54,4.48-.35,1.47-.32,3.5-2.63,3.69-3.4-3.88-2.04-8.11-.78-12.26,.73-2.4,2.89-2.36,4.95-2.41,2.71-.06,5.37-.75,4.91-4.13-.47-3.47-3.28-4.16-6.08-3.01-3.4,1.39-6.18,.78-9.45-.63-6.24-2.69-8.15-1.72-11.25,4.15-4.56,8.65-19.61,8.5-25.48-.25-3.71-5.54-4.02-5.53-7.95,.08-5.39,7.72-18.32,7.5-23.53-.4-.55-.83-.88-1.82-1.57-2.55-1.86-1.99-4.29-1.79-6.52-1.15-2.42,.69-1.82,2.86-1.53,4.63,.52,3.12,1.12,6.22,1.74,9.32,2.25,11.29,9.7,17.41,20.13,20.63,5.09,1.57,10.76,1.65,15.45,3.85,4.76,2.23,8.47,3.58,12.38-.76,12.38-1.58,23.07-7.11,33.06-14.25,9.65-4.53,16.07-11.81,19.14-22.1,1.8-6.03,.82-11.99-.75-17.7-2.84-10.35-7.49-19.83-15.33-27.54-2.23-2.19-5.66-3.76-5.55-7.73,2-.14,3.88-.01,5.69,1.15,14.36,9.29,25.15,37.71,20.47,53.98-1.11,3.87-2.74,7.5-5.22,10.64-1.57,1.99-1.46,3.1,.99,3.88,8.64,2.78,12.21,12.13,9.06,21.83-1.48,4.56-3.59,8.96-2.96,13.96,.28,2.19-1.03,2.95-2.88,3.23-3.48,.52-6.98,.67-10.41-.15-2.94-.7-3.27-.41-4.13,3.15-1.7,7.03,.39,13.51,.4,20.22,0,2.96-1.1,4.2-3.87,2.01-2.38-2.5-1.25-5.63-1.53-8.51-.23-2.4,.38-5.1-3.56-5.15-5.75-.08-8.14,1.19-8.59,5.07-.41,3.55,.91,7.31-1.35,10.62-1.12,1.12-2.18,.87-3.21-.13-1.37-1.52-1.13-3.42-1.15-5.23-.05-4.53-.63-8.96-2.21-13.22-.59-1.59-.85-3.23-.74-4.9,.11-1.77-.27-4.12,1.96-4.64,2.1-.49,2.39,1.84,3.21,3.2,2.17,3.59,11.92,4.22,14.54,.89,1.55-1.97,.51-3.7-1.21-4.56-4.79-2.4-7.91-6.28-11.08-10.46-2.42-3.18-6.36-4.87-10.73-3.63-4.73,1.34-9.7,1.72-13.71,5.4-2.72,2.5-6.27,2.03-8.93-.9-1.87-2.06-4.14-2.88-6.74-2.26-8.77,2.08-16.78,5.53-22.02,13.4-.85,1.28-2.63,2.79-.89,4.32,1.42,1.24,2.72-.3,3.86-1.23,1.17-.95,2.4-2.04,4-1.05,1.89,1.17,1.32,2.95,.61,4.44-1.62,3.44-.81,6.72-.07,10.21,.75,3.53,2.43,7.68-2.46,9.98-.8,.08-1.71,.65-2.23-.51-2.21-3.56-.37-8.18-3.15-11.67-1.44,3.7,1.16,8.07-1.92,11.45Z"/>
      <path class="cls-7" d="M29.54,146.86c3.47-3.23,2.31-7.1,.99-10.6-1.4-3.7-1.74-6.99,.58-10.38,.6-.88,1.51-2.2,.22-3.09-1.19-.82-2.14,.32-2.91,1.15-.67,.72-1.11,1.68-1.82,2.35-1.88,1.76-3.37-.19-4.9-.77-2.12-.81-.67-2.21-.11-3.21,5.93-10.59,15.42-15.53,27.09-16.95,2.09-.25,3.55,.34,4.98,2.27,2.83,3.8,5.85,3.7,9.17,.28,4.83-4.96,18.75-6.17,24.03-2.02,.73,.58,1.29,1.49,1.7,2.35,2.03,4.24,5.12,7.37,9.57,8.94,2.71,.95,3.36,2.94,3.39,5.44,.03,2.97-2.54,2.54-4.24,3.25-.3,.13-.65,.15-.97,.21-9.97,1.92-10.29,1.77-15.37-6.46-.77,9.26,3.96,18.16,2.35,27.47-17.92-.08-35.84-.15-53.76-.23Z"/>
      <path class="cls-11" d="M94.42,11.29c.88,2.08,2.73,3.32,4.3,4.76,11.79,10.85,18.29,24.46,19.42,40.21,.79,11.01-4.94,19.73-13.18,26.63-2.2,1.84-4.33,4.27-7.65,4.33-.52-1.09-.47-1.88,1-1.95,.33-.54,.87-1.06,.97-1.64,.69-4.31,1.23-7.99,7.4-7.9,4.09,.06,7.11-5.31,6.56-9.27-.64-4.55-4.33-8.6-8.69-8.02-6.26,.83-8.42-2.06-9.83-7.47-2.1-8.09-7.93-14.09-12.77-20.61-.54-.73-1.54-2.08-2.36-1.33-3.8,3.47-4.89-.03-6.58-2.27-.38-.51-1.09-1.27-1.5-1.19-5.8,1.23-9.37-4.88-15.11-4.34-5.35,.5-10.46,1.67-15.51,3.35-11.72,3.91-20.79,11.45-28.84,20.59-5.88,6.68-3.62,14.3-3.23,21.74,.08,1.45,.76,2.87,.33,4.4-5.74-5.76-6.61-20.69-1.84-31.13C19.04,18.12,38.54,8.42,62.39,6.67c5.07-.37,10.71,.43,15.95,1.75,3.15,.8,6.38,2.18,9.08-1.02,3.41-.64,5.43,1.22,7,3.89Z"/>
      <path class="cls-6" d="M87.43,7.4c-1.65,6.54-6.33,2.64-9.47,2.29-2.15-.24-4.01-2.24-6.17,.11-.31,.33-1.3,.32-1.84,.12-13.62-5.25-25.33,.79-37.02,6.4-10.92,5.24-19.15,13.4-24.77,24.16-.02,.04-.55-.17-.84-.27,4.88-13.75,14.66-22.97,27.52-29.04,12.38-5.83,25.58-7.69,39.18-6.74,3.01,.21,5.72,1.57,8.41,2.84,1.46,.69,2.81,1.39,3.09-1.1,.63,.41,1.26,.82,1.89,1.23Z"/>
      <path class="cls-12" d="M86.51,147.21c.77-4.45,.15-8.91-.1-13.35-.12-2.13,.45-2.72,2.56-3.05,12.06-1.87,12.04-1.94,12.39,10.41,.04,1.32,.12,2.64,.19,3.96-4.9,1.5-9.92,2.1-15.04,2.03Z"/>
      <path class="cls-1" d="M22.23,146.13c.55-5.15-.38-10.45,1.4-16.81,3,6.22,5.01,11.25,3.67,17.02-1.69-.07-3.38-.14-5.07-.22Z"/>
      <path class="cls-2" d="M98.32,85.28c-.33,.65-.67,1.3-1,1.95-6.27,3.6-11.23,9.37-18.69,11-3.39,.74-6.66,2.21-10.08,2.59-3.53,.4-6.36,1.3-8.26,4.49-1.18,1.98-3.11,2.37-4.35,.33-2.04-3.37-5.43-3.49-8.58-4.26-3.38-.82-6.82-1.39-10.19-2.21-14.08-3.41-21.74-12.52-23.58-26.75-.13-.99-.19-1.99-.35-2.97-1.37-8.62-1.37-8.53,7.27-8.21,2.09,.08,2.67,.86,3.32,2.68,1.86,5.25,5.64,7.62,11.54,7.54,5.53-.07,10.3-1.76,12.02-7.61,.73-2.47,2.15-2.43,4.05-2.52,2.11-.1,3.19,.45,3.9,2.7,1.83,5.8,6.27,8.43,13.12,8.3,6.84-.13,10.48-2.6,12.08-8.8,.68-2.64,1.87-3.76,4.45-3.05,3.45,.95,7.7-.87,10.25,3.3,.97,1.58,2.33,0,3.48-.47,2.1-.85,4.01-2.53,6.53-1.54,2.79,1.1,4.29,3.15,4.04,6.16-.24,2.85-2.37,3.63-4.82,4.16-1.93,.41-4.66-1.72-5.52,.17-1.32,2.91-1.95,6.37-1.28,9.68,.22,1.1,.71,2.15,.64,3.32Z"/>
      <path class="cls-4" d="M72.2,50.34c-5.38-2.14-11.34-.69-14.64,3.58-3.78,4.87-7.68,4.99-11.37,.36-.92-1.16-1.86-2.4-3.66-2-3.06,2.06-6.1,2.23-9.09-.16,2.38-1.73,5.23-.08,7.71-1.1-4.22-3.41-11.52-1.7-15.63,3.66-1.48,1.93-11.54,4.26-13.11,2.68-2.01-2.03-1.38-4.52,.13-6.76,5.7-8.51,13.5-14.62,22.54-19.16,7.65-3.84,15.85-5.86,24.63-6.48,.82,1.48-1.76,3.36,.22,4.71,2,1.37,4.2,.43,5.63-.6,3.98-2.86,5.55-1.04,7.26,2.55,1.06,2.22,2.59,5.03,6.13,3.01,1.18-.67,1.81,.3,2.38,1.12,3.99,5.71,8.19,11.27,10.41,18.05,.86,2.64,.67,3.66-2.34,3.45-4.31-.3-8.99,.74-11.23-4.76-.57-1.41-2.4-2.54-3.9-.33-1.7,.53-1.19-1.43-2.07-1.83Z"/>
      <path class="cls-15" d="M122.47,95.91c.26,5.3-2.09,9.48-3.52,13.82-.8,2.42,1.04,6.07-1.95,7.08-2.27,.76-5.28,.04-7.77-.68-5.46-1.58-11.7-1.74-15.45-7.01-5.15-7.23-4.7-11.35,1.59-16.13,1.22-.92,2.41-1.29,4.12-.72,5.32,1.76,9.04-.15,9.66-5.46,.56-4.76,2.4-4.82,5.75-2.72,4.57,2.85,8.29,6.22,7.58,11.83Z"/>
      <path class="cls-5" d="M72.2,50.34c.69,.61,1.38,1.22,2.07,1.83,3.43,3.7,4.99,7.89,2.47,12.62-2.28,4.28-6.5,4.69-10.78,4.43-5.23-.32-8.52-3.32-8.63-7.73-.13-5.03,3.48-9.3,8.29-10.25,2.19-.43,4.62,1,6.58-.91Z"/>
      <path class="cls-8" d="M33.44,52.12c3.03,.05,6.06,.11,9.09,.16,.64,1.86,1.43,3.69,1.88,5.59,1.61,6.75-2.56,11.72-9.43,10.98-4.11-.44-7.9-1.85-8.53-6.83-.6-4.74,1.83-8.1,7-9.9Z"/>
      <path class="cls-14" d="M47.23,76.47c4.61,6.53,5.74,6.46,9.02-.05,.47-.93,.85-2.03,1.93-1.89,1.13,.15,1.31,1.31,1.32,2.37,.03,3.05-1,5.67-3.75,7.08-2.3,1.18-4.91,1.25-7.06-.51-2-1.63-3.2-3.66-1.46-7Z"/>
      <path class="cls-13" d="M63.11,42.46c1.46-4.57,4.59-4.57,7.7-4.23,1.84,.2,4.13,1.14,3.55,3.22-.57,2.04-2.49,.37-3.69-.08-2.49-.92-4.76,.24-7.56,1.08Z"/>
      <path class="cls-9" d="M30.53,42.25c2.59-4.26,7.33-5.33,9.92-2.56,.56,.6,1.25,1.35,.6,2.13-.31,.37-1.4,.59-1.79,.34-2.81-1.82-5.67-.44-8.74,.09Z"/>
      <path class="cls-16" d="M64.3,59.86c.31-1.65-.18-4.64,2.62-4.65,2.88,0,2.5,2.97,2.53,5.01,.03,2.11-.08,4.9-2.86,4.76-2.45-.12-2.25-2.78-2.28-5.12Z"/>
      <path class="cls-10" d="M32.19,60.1c.25-1.91-.3-4.69,2.35-4.74,2.82-.06,2.31,2.91,2.26,4.65-.05,1.68,.61,4.57-2.55,4.37-2.76-.17-1.73-2.67-2.06-4.28Z"/>
    </g>
  </g>
</svg>