<?xml version="1.0" encoding="UTF-8"?>
<svg xmlns="http://www.w3.org/2000/svg" xmlns:xlink="http://www.w3.org/1999/xlink" viewBox="0 0 264.88 227.26">
  <defs>
    <style>
      .cls-1, .cls-2, .cls-3 {
        fill: #9a292a;
      }

      .cls-4 {
        isolation: isolate;
      }

      .cls-2 {
        clip-path: url(#clippath-2);
      }

      .cls-5, .cls-6 {
        fill: #320e1d;
      }

      .cls-7 {
        clip-path: url(#clippath-7);
      }

      .cls-8 {
        clip-path: url(#clippath-1);
      }

      .cls-9 {
        clip-path: url(#clippath-4);
      }

      .cls-10 {
        fill: #f7ead7;
      }

      .cls-11 {
        fill: #bc8304;
      }

      .cls-12 {
        clip-path: url(#clippath);
      }

      .cls-13 {
        fill: #eacead;
        opacity: .46;
      }

      .cls-6 {
        mix-blend-mode: soft-light;
        opacity: .61;
      }

      .cls-14 {
        clip-path: url(#clippath-3);
      }

      .cls-15 {
        fill: #edb92d;
      }

      .cls-16 {
        clip-path: url(#clippath-5);
      }

      .cls-3 {
        clip-path: url(#clippath-6);
      }
    </style>
    <clipPath id="clippath">
      <path class="cls-1" d="M43.48,173.82c-16.73-30.87-12.74-57.6-6.45-74.59,6.79-18.35,17.52-29.36,17.98-29.82l8.18,8.05c-.1,.1-9.67,10.02-15.55,26.19-7.76,21.34-5.77,43.11,5.94,64.71l-10.09,5.47Z"/>
    </clipPath>
    <clipPath id="clippath-1">
      <path class="cls-15" d="M37.2,47.79c-2.12-1.43-4.4-2.44-6.13-2.75-.86-.17-1.55-.17-1.94-.1-.41,.08-.49,.18-.55,.21-.06,.04,.06-.08-.1-.07-.13,0-.44,.16-.75,.56-.65,.78-1.24,2.32-1.41,3.78-.05,.38-.05,.68-.06,1.09l.06,.71,.11,.73c.19,.99,.48,2.06,.91,3.18,.86,2.25,2.28,4.66,3.98,7.14,1.71,2.47,3.76,5.09,5.74,7.46,2,2.4,4.09,4.65,6.35,6.62,1.14,.98,2.3,1.92,3.52,2.75,1.28,.85,2.56,1.68,3.88,2.38,2.6,1.41,5.4,2.49,7.72,2.67,1.14,.08,2.1-.12,2.63-.39,.06-.03,.13-.06,.19-.08,.03-.04,.06-.08,.09-.1,.11-.03,.09-.14,.17-.17,.05-.17,.22-.33,.23-.75,.12-.76-.02-2.04-.4-3.37-.34-1.36-.9-2.74-1.5-4.36l-.24-.61-.22-.54-.45-1.07c-.28-.72-.65-1.4-.98-2.1-.68-1.38-1.45-2.72-2.25-4.02-1.63-2.6-3.51-5.01-5.49-7.26-1-1.12-2.03-2.2-3.09-3.24l-1.59-1.54-1.63-1.47c-2.23-1.89-4.46-3.68-6.8-5.27Zm12.42-14.48c2.68,2.72,5.12,5.62,7.2,8.75,1.04,1.56,2.03,3.14,2.95,4.76,.89,1.63,1.72,3.29,2.49,4.96,1.54,3.35,2.77,6.79,3.81,10.24,.53,1.72,.98,3.46,1.42,5.19,.2,.87,.42,1.73,.61,2.6l.28,1.3,.25,1.22c.35,1.55,.76,3.33,1.09,5.21,.28,1.9,.6,3.96,.14,6.47-.19,1.22-.7,2.61-1.49,3.86-.45,.59-.89,1.23-1.46,1.68-.28,.24-.56,.48-.84,.71l-.88,.55c-2.35,1.37-4.79,1.7-6.94,1.67-2.16-.02-4.13-.37-5.98-.85-1.85-.48-3.61-1.05-5.31-1.71-1.69-.67-3.35-1.35-4.96-2.12-1.65-.8-3.29-1.63-4.86-2.55-3.15-1.82-6.13-3.84-8.99-5.93-1.43-1.05-2.81-2.12-4.17-3.19-1.36-1.06-2.74-2.16-4.12-3.36-2.77-2.38-5.54-5.14-8.03-8.6-1.24-1.73-2.4-3.65-3.34-5.77l-.67-1.62-.59-1.69c-.37-1.21-.68-2.53-.86-3.8-.39-2.56-.44-5.15-.09-7.74,.35-2.58,1.01-5.19,2.21-7.75,1.19-2.55,2.89-5.09,5.22-7.29,2.3-2.2,5.38-3.95,8.49-4.85,3.11-.92,6.39-1.06,9.26-.62,2.89,.42,5.42,1.34,7.61,2.42,4.38,2.22,7.64,4.98,10.54,7.84Z"/>
    </clipPath>
    <clipPath id="clippath-2">
      <path class="cls-1" d="M24.71,95.82c-1.74,1.55-3.15,3.33-3.82,4.79-.34,.72-.5,1.33-.52,1.69-.02,.38,.05,.47,.06,.53,.02,.06-.05-.07-.08,.07-.03,.12,.04,.43,.32,.79,.54,.75,1.77,1.62,3.01,2.1,.32,.13,.59,.2,.94,.3l.64,.11,.67,.07c.91,.06,1.92,.05,3.01-.08,2.18-.25,4.63-.96,7.21-1.89,2.57-.95,5.35-2.17,7.89-3.38,2.58-1.22,5.03-2.55,7.29-4.1,1.12-.78,2.22-1.59,3.23-2.48,1.04-.93,2.07-1.87,2.98-2.88,1.83-1.97,3.42-4.2,4.11-6.21,.33-.99,.37-1.88,.25-2.41-.02-.06-.02-.12-.03-.19-.03-.03-.05-.07-.07-.11,0-.1-.1-.11-.11-.19-.14-.08-.24-.27-.61-.38-.64-.28-1.81-.45-3.07-.41-1.28,0-2.63,.17-4.19,.34l-.6,.07-.52,.08-1.05,.15c-.7,.08-1.39,.26-2.07,.39-1.38,.28-2.73,.66-4.06,1.08-2.66,.85-5.22,1.96-7.66,3.2-1.22,.63-2.4,1.29-3.56,1.99l-1.72,1.05-1.67,1.11c-2.17,1.54-4.26,3.1-6.2,4.8Z"/>
    </clipPath>
    <clipPath id="clippath-3">
      <path class="cls-2" d="M14.75,81.56c3.01-1.75,6.13-3.25,9.36-4.37,1.62-.56,3.24-1.08,4.87-1.52,1.65-.42,3.29-.78,4.94-1.07,3.3-.6,6.62-.9,9.9-1.04,1.64-.07,3.28-.08,4.9-.08,.81,.02,1.62,.02,2.43,.05l1.21,.05,1.14,.05c1.45,.05,3.11,.08,4.85,.22,1.74,.18,3.63,.37,5.75,1.34,1.03,.45,2.15,1.21,3.07,2.19,.42,.53,.88,1.07,1.16,1.67,.15,.3,.3,.6,.44,.91l.28,.9c.67,2.38,.41,4.61-.1,6.5-.51,1.91-1.26,3.56-2.11,5.09-.85,1.52-1.75,2.95-2.72,4.3-.97,1.34-1.96,2.65-3,3.9-1.08,1.28-2.19,2.53-3.36,3.71-2.32,2.37-4.79,4.54-7.28,6.59-1.25,1.02-2.51,2-3.76,2.96-1.25,.96-2.53,1.92-3.9,2.87-2.73,1.9-5.79,3.73-9.42,5.14-1.81,.7-3.76,1.29-5.85,1.64l-1.58,.23-1.62,.14c-1.15,.05-2.39,.02-3.55-.1-2.35-.24-4.64-.78-6.85-1.68-2.2-.89-4.36-2.07-6.34-3.71-1.98-1.63-3.84-3.7-5.25-6.27C.95,109.64,.1,106.53,.01,103.58c-.11-2.95,.51-5.88,1.55-8.32,1.03-2.46,2.41-4.48,3.87-6.17,2.95-3.37,6.13-5.61,9.31-7.53Z"/>
    </clipPath>
    <clipPath id="clippath-4">
      <path class="cls-1" d="M221.4,173.82c16.73-30.87,12.74-57.6,6.45-74.59-6.79-18.35-17.52-29.36-17.98-29.82l-8.18,8.05c.1,.1,9.67,10.02,15.55,26.19,7.76,21.34,5.77,43.11-5.94,64.71l10.09,5.47Z"/>
    </clipPath>
    <clipPath id="clippath-5">
      <path class="cls-15" d="M220.88,53.06l-1.63,1.47-1.59,1.54c-1.06,1.04-2.09,2.12-3.09,3.24-1.98,2.25-3.86,4.66-5.49,7.26-.8,1.3-1.58,2.64-2.25,4.02-.33,.7-.7,1.38-.98,2.1l-.45,1.07-.22,.54-.24,.61c-.6,1.62-1.16,3-1.5,4.36-.38,1.32-.51,2.61-.4,3.37,.01,.43,.18,.58,.23,.75,.08,.03,.06,.14,.17,.17,.04,.03,.07,.06,.09,.1,.07,.03,.13,.05,.19,.08,.53,.28,1.49,.47,2.63,.39,2.32-.19,5.12-1.26,7.72-2.67,1.32-.69,2.6-1.53,3.88-2.38,1.23-.83,2.38-1.77,3.52-2.75,2.26-1.98,4.35-4.22,6.35-6.62,1.98-2.37,4.03-4.99,5.74-7.46,1.7-2.48,3.12-4.89,3.98-7.14,.43-1.12,.72-2.19,.91-3.18l.11-.73,.06-.71c0-.4-.01-.71-.06-1.09-.16-1.45-.75-3-1.41-3.78-.31-.4-.62-.56-.75-.56-.16-.01-.04,.1-.1,.07-.06-.02-.14-.13-.55-.21-.39-.07-1.08-.07-1.94,.1-1.74,.31-4.01,1.32-6.13,2.75-2.34,1.59-4.57,3.38-6.8,5.27Zm4.92-27.59c2.2-1.08,4.72-2,7.61-2.42,2.87-.44,6.15-.3,9.26,.62,3.11,.9,6.18,2.66,8.49,4.85,2.34,2.2,4.03,4.74,5.22,7.29,1.2,2.55,1.86,5.17,2.21,7.75,.35,2.59,.3,5.17-.09,7.74-.19,1.27-.49,2.59-.86,3.8l-.59,1.69-.67,1.62c-.94,2.12-2.1,4.04-3.34,5.77-2.49,3.46-5.27,6.21-8.03,8.6-1.38,1.19-2.76,2.3-4.12,3.36-1.36,1.07-2.75,2.14-4.17,3.19-2.86,2.08-5.84,4.11-8.99,5.93-1.57,.92-3.2,1.76-4.86,2.55-1.61,.77-3.27,1.45-4.96,2.12-1.7,.67-3.46,1.23-5.31,1.71-1.85,.48-3.82,.83-5.98,.85-2.15,.02-4.59-.31-6.94-1.67l-.88-.55c-.29-.23-.57-.47-.84-.71-.57-.46-1.01-1.09-1.46-1.68-.79-1.24-1.29-2.64-1.49-3.86-.45-2.51-.14-4.57,.14-6.47,.33-1.88,.75-3.66,1.09-5.21l.25-1.22,.28-1.3c.18-.87,.41-1.73,.61-2.6,.44-1.73,.9-3.46,1.42-5.19,1.04-3.45,2.28-6.89,3.81-10.24,.77-1.67,1.6-3.33,2.49-4.96,.91-1.62,1.91-3.2,2.95-4.76,2.08-3.13,4.52-6.04,7.2-8.75,2.9-2.85,6.16-5.62,10.54-7.84Z"/>
    </clipPath>
    <clipPath id="clippath-6">
      <path class="cls-1" d="M233.97,91.01l-1.67-1.11-1.72-1.05c-1.16-.7-2.34-1.36-3.56-1.99-2.44-1.24-5-2.35-7.66-3.2-1.33-.41-2.69-.79-4.06-1.08-.69-.13-1.38-.3-2.07-.39l-1.05-.15-.52-.08-.6-.07c-1.56-.16-2.91-.34-4.19-.34-1.26-.04-2.42,.14-3.07,.41-.37,.11-.48,.29-.61,.38-.01,.08-.11,.09-.11,.19-.01,.04-.04,.07-.07,.11,0,.06-.01,.13-.03,.19-.12,.53-.08,1.42,.25,2.41,.69,2.01,2.28,4.24,4.11,6.21,.91,1.01,1.94,1.95,2.98,2.88,1.01,.89,2.11,1.7,3.23,2.48,2.26,1.55,4.71,2.89,7.29,4.1,2.54,1.21,5.32,2.42,7.89,3.38,2.58,.94,5.03,1.65,7.21,1.89,1.09,.13,2.1,.14,3.01,.08l.67-.07,.64-.11c.35-.1,.62-.17,.94-.3,1.24-.47,2.47-1.34,3.01-2.1,.28-.36,.35-.67,.32-.79-.03-.14-.1-.01-.08-.07,0-.06,.08-.15,.06-.53-.03-.36-.18-.97-.52-1.69-.67-1.46-2.08-3.24-3.82-4.79-1.94-1.7-4.03-3.27-6.2-4.8Z"/>
    </clipPath>
    <clipPath id="clippath-7">
      <path class="cls-3" d="M259.45,89.09c1.46,1.69,2.84,3.71,3.87,6.17,1.04,2.44,1.66,5.36,1.55,8.32-.09,2.95-.94,6.06-2.36,8.59-1.41,2.56-3.27,4.63-5.25,6.27-1.98,1.64-4.14,2.82-6.34,3.71-2.2,.89-4.5,1.44-6.85,1.68-1.16,.12-2.4,.15-3.55,.1l-1.62-.14-1.58-.23c-2.09-.35-4.04-.94-5.85-1.64-3.62-1.41-6.68-3.24-9.42-5.14-1.37-.95-2.65-1.92-3.9-2.87-1.25-.96-2.52-1.94-3.76-2.96-2.49-2.05-4.95-4.22-7.28-6.59-1.17-1.17-2.28-2.43-3.36-3.71-1.04-1.24-2.03-2.56-3-3.9-.97-1.35-1.87-2.77-2.72-4.3-.84-1.53-1.6-3.18-2.11-5.09-.51-1.89-.77-4.12-.1-6.5l.28-.9c.13-.3,.28-.61,.44-.91,.27-.61,.73-1.14,1.16-1.67,.92-.98,2.03-1.74,3.07-2.19,2.12-.97,4.01-1.16,5.75-1.34,1.73-.14,3.4-.17,4.85-.22l1.14-.05,1.21-.05c.81-.04,1.62-.03,2.43-.05,1.63,0,3.26,0,4.9,.08,3.28,.14,6.6,.44,9.9,1.04,1.65,.3,3.3,.66,4.94,1.07,1.64,.44,3.26,.96,4.87,1.52,3.24,1.12,6.36,2.62,9.36,4.37,3.18,1.91,6.36,4.16,9.31,7.53Z"/>
    </clipPath>
  </defs>
  <g class="cls-4">
    <g id="Layer_2" data-name="Layer 2">
      <g id="OBJECTS">
        <g>
          <g>
            <g>
              <g>
                <path class="cls-1" d="M43.48,173.82c-16.73-30.87-12.74-57.6-6.45-74.59,6.79-18.35,17.52-29.36,17.98-29.82l8.18,8.05c-.1,.1-9.67,10.02-15.55,26.19-7.76,21.34-5.77,43.11,5.94,64.71l-10.09,5.47Z"/>
                <g class="cls-12">
                  <path class="cls-10" d="M49.75,117.49c-5.64-6.81-8.01-15.53-10.27-23.9-.35-1.28-2.34-.74-2,.55,2.36,8.75,4.91,17.71,10.8,24.82,.85,1.03,2.31-.44,1.46-1.46Z"/>
                  <path class="cls-10" d="M47.95,136.75c-3.57-2.25-6.7-5.2-9.1-8.67-2.64-3.82-3.96-8.22-6.08-12.31-.61-1.18-2.4-.14-1.79,1.04,2.22,4.3,3.6,8.91,6.47,12.87,2.56,3.54,5.76,6.53,9.45,8.86,1.13,.71,2.17-1.08,1.04-1.79Z"/>
                  <path class="cls-10" d="M53.91,153.91c-9.19-1.67-17.65-6.19-24.13-12.93-.92-.96-2.39,.5-1.46,1.46,6.7,6.97,15.53,11.73,25.04,13.46,1.3,.24,1.86-1.76,.55-2Z"/>
                  <path class="cls-10" d="M58.81,168.73c-7.01-.05-14.45-.22-20.59-4.05-1.13-.71-2.17,1.08-1.04,1.79,6.45,4.03,14.25,4.29,21.63,4.34,1.33,0,1.33-2.06,0-2.07Z"/>
                  <path class="cls-10" d="M56.04,97.64c-4.59-4.86-5.78-11.81-9.27-17.37-.71-1.12-2.5-.09-1.79,1.04,3.6,5.73,4.85,12.76,9.59,17.78,.92,.97,2.38-.49,1.46-1.46Z"/>
                </g>
              </g>
              <g>
                <path class="cls-15" d="M37.2,47.79c-2.12-1.43-4.4-2.44-6.13-2.75-.86-.17-1.55-.17-1.94-.1-.41,.08-.49,.18-.55,.21-.06,.04,.06-.08-.1-.07-.13,0-.44,.16-.75,.56-.65,.78-1.24,2.32-1.41,3.78-.05,.38-.05,.68-.06,1.09l.06,.71,.11,.73c.19,.99,.48,2.06,.91,3.18,.86,2.25,2.28,4.66,3.98,7.14,1.71,2.47,3.76,5.09,5.74,7.46,2,2.4,4.09,4.65,6.35,6.62,1.14,.98,2.3,1.92,3.52,2.75,1.28,.85,2.56,1.68,3.88,2.38,2.6,1.41,5.4,2.49,7.72,2.67,1.14,.08,2.1-.12,2.63-.39,.06-.03,.13-.06,.19-.08,.03-.04,.06-.08,.09-.1,.11-.03,.09-.14,.17-.17,.05-.17,.22-.33,.23-.75,.12-.76-.02-2.04-.4-3.37-.34-1.36-.9-2.74-1.5-4.36l-.24-.61-.22-.54-.45-1.07c-.28-.72-.65-1.4-.98-2.1-.68-1.38-1.45-2.72-2.25-4.02-1.63-2.6-3.51-5.01-5.49-7.26-1-1.12-2.03-2.2-3.09-3.24l-1.59-1.54-1.63-1.47c-2.23-1.89-4.46-3.68-6.8-5.27Zm12.42-14.48c2.68,2.72,5.12,5.62,7.2,8.75,1.04,1.56,2.03,3.14,2.95,4.76,.89,1.63,1.72,3.29,2.49,4.96,1.54,3.35,2.77,6.79,3.81,10.24,.53,1.72,.98,3.46,1.42,5.19,.2,.87,.42,1.73,.61,2.6l.28,1.3,.25,1.22c.35,1.55,.76,3.33,1.09,5.21,.28,1.9,.6,3.96,.14,6.47-.19,1.22-.7,2.61-1.49,3.86-.45,.59-.89,1.23-1.46,1.68-.28,.24-.56,.48-.84,.71l-.88,.55c-2.35,1.37-4.79,1.7-6.94,1.67-2.16-.02-4.13-.37-5.98-.85-1.85-.48-3.61-1.05-5.31-1.71-1.69-.67-3.35-1.35-4.96-2.12-1.65-.8-3.29-1.63-4.86-2.55-3.15-1.82-6.13-3.84-8.99-5.93-1.43-1.05-2.81-2.12-4.17-3.19-1.36-1.06-2.74-2.16-4.12-3.36-2.77-2.38-5.54-5.14-8.03-8.6-1.24-1.73-2.4-3.65-3.34-5.77l-.67-1.62-.59-1.69c-.37-1.21-.68-2.53-.86-3.8-.39-2.56-.44-5.15-.09-7.74,.35-2.58,1.01-5.19,2.21-7.75,1.19-2.55,2.89-5.09,5.22-7.29,2.3-2.2,5.38-3.95,8.49-4.85,3.11-.92,6.39-1.06,9.26-.62,2.89,.42,5.42,1.34,7.61,2.42,4.38,2.22,7.64,4.98,10.54,7.84Z"/>
                <g class="cls-8">
                  <path class="cls-10" d="M32.15,44.88c-3.8-2.49-4.61-7.27-4.38-11.49,.23-4.14,.77-9.18,3.61-12.43,.87-1-.58-2.47-1.46-1.46-3.34,3.81-4.05,9.49-4.24,14.38-.19,4.86,1.15,9.99,5.42,12.79,1.12,.73,2.16-1.06,1.04-1.79Z"/>
                  <path class="cls-10" d="M27.99,56.02c-9.67,.15-18.37-5.09-25.08-11.67-.95-.93-2.42,.53-1.46,1.46,7.1,6.95,16.34,12.44,26.55,12.27,1.33-.02,1.33-2.09,0-2.07Z"/>
                  <path class="cls-10" d="M42.2,69.16c-8.41,6.19-19.21,2.98-28.21,.09-1.27-.41-1.82,1.59-.55,2,9.51,3.05,20.94,6.22,29.8-.3,1.06-.78,.03-2.58-1.04-1.79Z"/>
                  <path class="cls-10" d="M54.88,80.11c-3.48,4.71-8.71,7.96-14.44,9.13-1.3,.27-.75,2.26,.55,2,6.28-1.28,11.87-4.94,15.68-10.08,.79-1.07-1-2.11-1.79-1.04Z"/>
                  <path class="cls-10" d="M54.01,37.93c-7.94,6.94-6.76,18.45-2.47,27.02,.6,1.19,2.38,.14,1.79-1.04-3.9-7.78-5.08-18.2,2.14-24.51,1-.88-.46-2.34-1.46-1.46Z"/>
                  <path class="cls-10" d="M68.28,62.28c-4.47,5.96-7.13,13.09-7.77,20.5-.11,1.33,1.96,1.32,2.07,0,.61-7.05,3.25-13.8,7.49-19.46,.8-1.07-1-2.1-1.79-1.04Z"/>
                </g>
              </g>
              <g>
                <path class="cls-1" d="M24.71,95.82c-1.74,1.55-3.15,3.33-3.82,4.79-.34,.72-.5,1.33-.52,1.69-.02,.38,.05,.47,.06,.53,.02,.06-.05-.07-.08,.07-.03,.12,.04,.43,.32,.79,.54,.75,1.77,1.62,3.01,2.1,.32,.13,.59,.2,.94,.3l.64,.11,.67,.07c.91,.06,1.92,.05,3.01-.08,2.18-.25,4.63-.96,7.21-1.89,2.57-.95,5.35-2.17,7.89-3.38,2.58-1.22,5.03-2.55,7.29-4.1,1.12-.78,2.22-1.59,3.23-2.48,1.04-.93,2.07-1.87,2.98-2.88,1.83-1.97,3.42-4.2,4.11-6.21,.33-.99,.37-1.88,.25-2.41-.02-.06-.02-.12-.03-.19-.03-.03-.05-.07-.07-.11,0-.1-.1-.11-.11-.19-.14-.08-.24-.27-.61-.38-.64-.28-1.81-.45-3.07-.41-1.28,0-2.63,.17-4.19,.34l-.6,.07-.52,.08-1.05,.15c-.7,.08-1.39,.26-2.07,.39-1.38,.28-2.73,.66-4.06,1.08-2.66,.85-5.22,1.96-7.66,3.2-1.22,.63-2.4,1.29-3.56,1.99l-1.72,1.05-1.67,1.11c-2.17,1.54-4.26,3.1-6.2,4.8Z"/>
                <path class="cls-1" d="M14.75,81.56c3.01-1.75,6.13-3.25,9.36-4.37,1.62-.56,3.24-1.08,4.87-1.52,1.65-.42,3.29-.78,4.94-1.07,3.3-.6,6.62-.9,9.9-1.04,1.64-.07,3.28-.08,4.9-.08,.81,.02,1.62,.02,2.43,.05l1.21,.05,1.14,.05c1.45,.05,3.11,.08,4.85,.22,1.74,.18,3.63,.37,5.75,1.34,1.03,.45,2.15,1.21,3.07,2.19,.42,.53,.88,1.07,1.16,1.67,.15,.3,.3,.6,.44,.91l.28,.9c.67,2.38,.41,4.61-.1,6.5-.51,1.91-1.26,3.56-2.11,5.09-.85,1.52-1.75,2.95-2.72,4.3-.97,1.34-1.96,2.65-3,3.9-1.08,1.28-2.19,2.53-3.36,3.71-2.32,2.37-4.79,4.54-7.28,6.59-1.25,1.02-2.51,2-3.76,2.96-1.25,.96-2.53,1.92-3.9,2.87-2.73,1.9-5.79,3.73-9.42,5.14-1.81,.7-3.76,1.29-5.85,1.64l-1.58,.23-1.62,.14c-1.15,.05-2.39,.02-3.55-.1-2.35-.24-4.64-.78-6.85-1.68-2.2-.89-4.36-2.07-6.34-3.71-1.98-1.63-3.84-3.7-5.25-6.27C.95,109.64,.1,106.53,.01,103.58c-.11-2.95,.51-5.88,1.55-8.32,1.03-2.46,2.41-4.48,3.87-6.17,2.95-3.37,6.13-5.61,9.31-7.53Z"/>
                <g class="cls-14">
                  <path class="cls-10" d="M20.99,99.62c-3.06,2.79-7.47,2.42-11.14,1.25-3.61-1.15-7.93-2.76-10.15-6.01-.68-1-2.31-.05-1.62,.96,2.61,3.82,7.46,5.73,11.73,7.02,4.24,1.27,9.08,1.25,12.52-1.88,.9-.82-.45-2.14-1.34-1.33Z"/>
                  <path class="cls-10" d="M29.88,105.82c-2.06,8.57-8.66,15.06-16,19.5-1.04,.63-.08,2.25,.96,1.62,7.75-4.69,14.69-11.6,16.86-20.65,.28-1.18-1.54-1.65-1.83-.47Z"/>
                  <path class="cls-10" d="M44.71,96.26c3.56,8.83-1.74,17.63-6.33,24.92-.65,1.03,.99,1.96,1.64,.94,4.85-7.7,10.25-17.08,6.5-26.38-.45-1.11-2.27-.61-1.82,.52Z"/>
                  <path class="cls-10" d="M57.26,87.56c3.37,4.15,5.05,9.5,4.78,14.82-.06,1.21,1.83,1.18,1.89-.03,.3-5.83-1.66-11.6-5.34-16.13-.77-.94-2.09,.41-1.33,1.34Z"/>
                  <path class="cls-10" d="M19.82,78.75c4.32,8.59,14.75,10.16,23.3,8.32,1.19-.26,.67-2.07-.52-1.82-7.76,1.67-17.22,.35-21.15-7.46-.55-1.09-2.17-.12-1.62,.96Z"/>
                  <path class="cls-10" d="M44.56,71.67c4.25,5.3,9.94,9.27,16.34,11.52,1.15,.4,1.61-1.43,.47-1.83-6.09-2.14-11.44-6-15.48-11.03-.76-.95-2.08,.4-1.33,1.34Z"/>
                </g>
              </g>
              <path class="cls-1" d="M70.58,221.03c-.05,1.86-.2,3.94-1.6,5.15-1.24,1.07-3.04,1.11-4.67,1.07-2.05-.04-4.12-.07-6.19-.11-3.04-.05-6.07-.1-9.11-.16,.67-1.22,1.34-2.44,2-3.67-1.06,1.16-2.5,2.01-4.03,2.44-2.59,.72-5.37,.4-7.97-.27-1.08-.28-2.16-.62-3.2-1.01-4.87-1.8-9.28-4.81-12.72-8.69,4.34-2.29,8.29-5.3,11.7-8.81,5.76-5.95,8.54-12.4,11.33-19.96,3.07-8.38,11.75-9.31,17.06-2.4,3.85,5.02,5.89,11.23,6.8,17.49,.91,6.26,.75,12.61,.58,18.93Z"/>
              <g>
                <path class="cls-15" d="M40.8,182.12c4.3,6.05,12.69,7.46,18.73,3.17,6.05-4.3,7.46-12.69,3.16-18.73-4.3-6.05-12.69-7.46-18.73-3.16-6.05,4.3-7.46,12.69-3.17,18.73Z"/>
                <path class="cls-11" d="M55.14,179.07c4.65-3.31,10.14-10.49,10.37-10.8,1.06-1.39,.79-3.38-.6-4.44-1.39-1.06-3.38-.79-4.44,.6-1.42,1.86-5.8,7.19-9,9.47-3.2,2.28-9.67,4.66-11.89,5.38-1.66,.54-2.57,2.33-2.03,3.99,.54,1.66,2.33,2.57,3.99,2.03,.36-.12,8.95-2.94,13.6-6.24Z"/>
              </g>
            </g>
            <g>
              <g>
                <path class="cls-1" d="M221.4,173.82c16.73-30.87,12.74-57.6,6.45-74.59-6.79-18.35-17.52-29.36-17.98-29.82l-8.18,8.05c.1,.1,9.67,10.02,15.55,26.19,7.76,21.34,5.77,43.11-5.94,64.71l10.09,5.47Z"/>
                <g class="cls-9">
                  <path class="cls-10" d="M215.13,117.49c5.64-6.81,8.01-15.53,10.27-23.9,.35-1.28,2.34-.74,2,.55-2.36,8.75-4.91,17.71-10.8,24.82-.85,1.03-2.31-.44-1.46-1.46Z"/>
                  <path class="cls-10" d="M216.93,136.75c3.57-2.25,6.7-5.2,9.1-8.67,2.64-3.82,3.96-8.22,6.08-12.31,.61-1.18,2.4-.14,1.79,1.04-2.22,4.3-3.6,8.91-6.47,12.87-2.56,3.54-5.76,6.53-9.45,8.86-1.13,.71-2.17-1.08-1.04-1.79Z"/>
                  <path class="cls-10" d="M210.97,153.91c9.19-1.67,17.65-6.19,24.13-12.93,.92-.96,2.39,.5,1.46,1.46-6.7,6.97-15.53,11.73-25.04,13.46-1.3,.24-1.86-1.76-.55-2Z"/>
                  <path class="cls-10" d="M206.07,168.73c7.01-.05,14.45-.22,20.59-4.05,1.13-.71,2.17,1.08,1.04,1.79-6.45,4.03-14.25,4.29-21.63,4.34-1.33,0-1.33-2.06,0-2.07Z"/>
                  <path class="cls-10" d="M208.84,97.64c4.59-4.86,5.78-11.81,9.27-17.37,.71-1.12,2.5-.09,1.79,1.04-3.6,5.73-4.85,12.76-9.59,17.78-.92,.97-2.38-.49-1.46-1.46Z"/>
                </g>
              </g>
              <g>
                <path class="cls-15" d="M220.88,53.06l-1.63,1.47-1.59,1.54c-1.06,1.04-2.09,2.12-3.09,3.24-1.98,2.25-3.86,4.66-5.49,7.26-.8,1.3-1.58,2.64-2.25,4.02-.33,.7-.7,1.38-.98,2.1l-.45,1.07-.22,.54-.24,.61c-.6,1.62-1.16,3-1.5,4.36-.38,1.32-.51,2.61-.4,3.37,.01,.43,.18,.58,.23,.75,.08,.03,.06,.14,.17,.17,.04,.03,.07,.06,.09,.1,.07,.03,.13,.05,.19,.08,.53,.28,1.49,.47,2.63,.39,2.32-.19,5.12-1.26,7.72-2.67,1.32-.69,2.6-1.53,3.88-2.38,1.23-.83,2.38-1.77,3.52-2.75,2.26-1.98,4.35-4.22,6.35-6.62,1.98-2.37,4.03-4.99,5.74-7.46,1.7-2.48,3.12-4.89,3.98-7.14,.43-1.12,.72-2.19,.91-3.18l.11-.73,.06-.71c0-.4-.01-.71-.06-1.09-.16-1.45-.75-3-1.41-3.78-.31-.4-.62-.56-.75-.56-.16-.01-.04,.1-.1,.07-.06-.02-.14-.13-.55-.21-.39-.07-1.08-.07-1.94,.1-1.74,.31-4.01,1.32-6.13,2.75-2.34,1.59-4.57,3.38-6.8,5.27Zm4.92-27.59c2.2-1.08,4.72-2,7.61-2.42,2.87-.44,6.15-.3,9.26,.62,3.11,.9,6.18,2.66,8.49,4.85,2.34,2.2,4.03,4.74,5.22,7.29,1.2,2.55,1.86,5.17,2.21,7.75,.35,2.59,.3,5.17-.09,7.74-.19,1.27-.49,2.59-.86,3.8l-.59,1.69-.67,1.62c-.94,2.12-2.1,4.04-3.34,5.77-2.49,3.46-5.27,6.21-8.03,8.6-1.38,1.19-2.76,2.3-4.12,3.36-1.36,1.07-2.75,2.14-4.17,3.19-2.86,2.08-5.84,4.11-8.99,5.93-1.57,.92-3.2,1.76-4.86,2.55-1.61,.77-3.27,1.45-4.96,2.12-1.7,.67-3.46,1.23-5.31,1.71-1.85,.48-3.82,.83-5.98,.85-2.15,.02-4.59-.31-6.94-1.67l-.88-.55c-.29-.23-.57-.47-.84-.71-.57-.46-1.01-1.09-1.46-1.68-.79-1.24-1.29-2.64-1.49-3.86-.45-2.51-.14-4.57,.14-6.47,.33-1.88,.75-3.66,1.09-5.21l.25-1.22,.28-1.3c.18-.87,.41-1.73,.61-2.6,.44-1.73,.9-3.46,1.42-5.19,1.04-3.45,2.28-6.89,3.81-10.24,.77-1.67,1.6-3.33,2.49-4.96,.91-1.62,1.91-3.2,2.95-4.76,2.08-3.13,4.52-6.04,7.2-8.75,2.9-2.85,6.16-5.62,10.54-7.84Z"/>
                <g class="cls-16">
                  <path class="cls-10" d="M232.73,44.88c3.8-2.49,4.61-7.27,4.38-11.49-.23-4.14-.77-9.18-3.61-12.43-.87-1,.58-2.47,1.46-1.46,3.34,3.81,4.05,9.49,4.25,14.38,.19,4.86-1.15,9.99-5.42,12.79-1.12,.73-2.16-1.06-1.04-1.79Z"/>
                  <path class="cls-10" d="M236.89,56.02c9.67,.15,18.37-5.09,25.08-11.67,.95-.93,2.42,.53,1.46,1.46-7.1,6.95-16.34,12.44-26.55,12.27-1.33-.02-1.33-2.09,0-2.07Z"/>
                  <path class="cls-10" d="M222.68,69.16c8.41,6.19,19.21,2.98,28.21,.09,1.27-.41,1.82,1.59,.55,2-9.51,3.05-20.94,6.22-29.8-.3-1.06-.78-.03-2.58,1.04-1.79Z"/>
                  <path class="cls-10" d="M210,80.11c3.48,4.71,8.71,7.96,14.44,9.13,1.3,.27,.75,2.26-.55,2-6.28-1.28-11.87-4.94-15.68-10.08-.79-1.07,1-2.11,1.79-1.04Z"/>
                  <path class="cls-10" d="M210.87,37.93c7.94,6.94,6.76,18.45,2.47,27.02-.6,1.19-2.38,.14-1.79-1.04,3.9-7.78,5.08-18.2-2.14-24.51-1-.88,.46-2.34,1.46-1.46Z"/>
                  <path class="cls-10" d="M196.6,62.28c4.47,5.96,7.13,13.09,7.77,20.5,.11,1.33-1.96,1.32-2.07,0-.61-7.05-3.25-13.8-7.49-19.46-.8-1.07,1-2.1,1.79-1.04Z"/>
                </g>
              </g>
              <g>
                <path class="cls-1" d="M233.97,91.01l-1.67-1.11-1.72-1.05c-1.16-.7-2.34-1.36-3.56-1.99-2.44-1.24-5-2.35-7.66-3.2-1.33-.41-2.69-.79-4.06-1.08-.69-.13-1.38-.3-2.07-.39l-1.05-.15-.52-.08-.6-.07c-1.56-.16-2.91-.34-4.19-.34-1.26-.04-2.42,.14-3.07,.41-.37,.11-.48,.29-.61,.38-.01,.08-.11,.09-.11,.19-.01,.04-.04,.07-.07,.11,0,.06-.01,.13-.03,.19-.12,.53-.08,1.42,.25,2.41,.69,2.01,2.28,4.24,4.11,6.21,.91,1.01,1.94,1.95,2.98,2.88,1.01,.89,2.11,1.7,3.23,2.48,2.26,1.55,4.71,2.89,7.29,4.1,2.54,1.21,5.32,2.42,7.89,3.38,2.58,.94,5.03,1.65,7.21,1.89,1.09,.13,2.1,.14,3.01,.08l.67-.07,.64-.11c.35-.1,.62-.17,.94-.3,1.24-.47,2.47-1.34,3.01-2.1,.28-.36,.35-.67,.32-.79-.03-.14-.1-.01-.08-.07,0-.06,.08-.15,.06-.53-.03-.36-.18-.97-.52-1.69-.67-1.46-2.08-3.24-3.82-4.79-1.94-1.7-4.03-3.27-6.2-4.8Z"/>
                <path class="cls-1" d="M259.45,89.09c1.46,1.69,2.84,3.71,3.87,6.17,1.04,2.44,1.66,5.36,1.55,8.32-.09,2.95-.94,6.06-2.36,8.59-1.41,2.56-3.27,4.63-5.25,6.27-1.98,1.64-4.14,2.82-6.34,3.71-2.2,.89-4.5,1.44-6.85,1.68-1.16,.12-2.4,.15-3.55,.1l-1.62-.14-1.58-.23c-2.09-.35-4.04-.94-5.85-1.64-3.62-1.41-6.68-3.24-9.42-5.14-1.37-.95-2.65-1.92-3.9-2.87-1.25-.96-2.52-1.94-3.76-2.96-2.49-2.05-4.95-4.22-7.28-6.59-1.17-1.17-2.28-2.43-3.36-3.71-1.04-1.24-2.03-2.56-3-3.9-.97-1.35-1.87-2.77-2.72-4.3-.84-1.53-1.6-3.18-2.11-5.09-.51-1.89-.77-4.12-.1-6.5l.28-.9c.13-.3,.28-.61,.44-.91,.27-.61,.73-1.14,1.16-1.67,.92-.98,2.03-1.74,3.07-2.19,2.12-.97,4.01-1.16,5.75-1.34,1.73-.14,3.4-.17,4.85-.22l1.14-.05,1.21-.05c.81-.04,1.62-.03,2.43-.05,1.63,0,3.26,0,4.9,.08,3.28,.14,6.6,.44,9.9,1.04,1.65,.3,3.3,.66,4.94,1.07,1.64,.44,3.26,.96,4.87,1.52,3.24,1.12,6.36,2.62,9.36,4.37,3.18,1.91,6.36,4.16,9.31,7.53Z"/>
                <g class="cls-7">
                  <path class="cls-10" d="M243.89,99.62c3.06,2.79,7.47,2.42,11.14,1.25,3.61-1.15,7.93-2.76,10.15-6.01,.68-1,2.31-.05,1.62,.96-2.61,3.82-7.46,5.73-11.73,7.02-4.24,1.27-9.08,1.25-12.52-1.88-.9-.82,.45-2.14,1.34-1.33Z"/>
                  <path class="cls-10" d="M235,105.82c2.06,8.57,8.67,15.06,16,19.5,1.04,.63,.08,2.25-.96,1.62-7.75-4.69-14.69-11.6-16.86-20.65-.28-1.18,1.54-1.65,1.83-.47Z"/>
                  <path class="cls-10" d="M220.17,96.26c-3.56,8.83,1.74,17.63,6.33,24.92,.65,1.03-.99,1.96-1.64,.94-4.85-7.7-10.25-17.08-6.5-26.38,.45-1.11,2.27-.61,1.82,.52Z"/>
                  <path class="cls-10" d="M207.63,87.56c-3.37,4.15-5.05,9.5-4.78,14.82,.06,1.21-1.83,1.18-1.89-.03-.3-5.83,1.66-11.6,5.34-16.13,.77-.94,2.09,.41,1.33,1.34Z"/>
                  <path class="cls-10" d="M245.06,78.75c-4.32,8.59-14.75,10.16-23.3,8.32-1.19-.26-.67-2.07,.52-1.82,7.76,1.67,17.22,.35,21.15-7.46,.55-1.09,2.17-.12,1.62,.96Z"/>
                  <path class="cls-10" d="M220.32,71.67c-4.25,5.3-9.94,9.27-16.34,11.52-1.15,.4-1.61-1.43-.47-1.83,6.09-2.14,11.44-6,15.48-11.03,.76-.95,2.08,.4,1.33,1.34Z"/>
                </g>
              </g>
              <path class="cls-1" d="M194.3,221.03c.05,1.86,.2,3.94,1.6,5.15,1.24,1.07,3.04,1.11,4.67,1.07,2.05-.04,4.12-.07,6.19-.11,3.04-.05,6.07-.1,9.11-.16-.67-1.22-1.34-2.44-2-3.67,1.06,1.16,2.5,2.01,4.03,2.44,2.59,.72,5.37,.4,7.97-.27,1.08-.28,2.16-.62,3.2-1.01,4.87-1.8,9.28-4.81,12.72-8.69-4.34-2.29-8.29-5.3-11.7-8.81-5.76-5.95-8.54-12.4-11.33-19.96-3.07-8.38-11.75-9.31-17.06-2.4-3.85,5.02-5.89,11.23-6.8,17.49-.91,6.26-.75,12.61-.58,18.93Z"/>
              <g>
                <path class="cls-15" d="M224.08,182.12c-4.3,6.05-12.69,7.46-18.73,3.17-6.05-4.3-7.46-12.69-3.16-18.73,4.3-6.05,12.69-7.46,18.73-3.16,6.05,4.3,7.46,12.69,3.17,18.73Z"/>
                <path class="cls-11" d="M209.74,179.07c-4.65-3.31-10.14-10.49-10.37-10.8-1.06-1.39-.79-3.38,.6-4.44,1.39-1.06,3.38-.79,4.44,.6,1.42,1.86,5.8,7.19,9,9.47,3.2,2.28,9.67,4.66,11.89,5.38,1.66,.54,2.57,2.33,2.03,3.99-.54,1.66-2.33,2.57-3.99,2.03-.36-.12-8.95-2.94-13.6-6.24Z"/>
              </g>
            </g>
            <g>
              <path class="cls-10" d="M213.24,113.87c-1.12,4.91-12.29,23.02-10.28,21.67,2.01-1.34,7.6-1.56,7.6-1.56,0,0-4.91,17.21-8.27,23.25-.96,1.72-3.08,3.91-5.83,6.31-6.89,6.04-17.79,13.41-24.34,18.05-9.16,6.48-19.66,23.69-24.14,30.39-4.47,6.71-9.61,4.46-9.61,4.46h-10.07s-5.13,2.24-9.61-4.46c-4.47-6.71-14.98-23.92-24.14-30.39-9.17-6.49-26.83-18.34-30.17-24.37-3.36-6.04-8.27-23.25-8.27-23.25,0,0,5.59,.23,7.6,1.56,2,1.35-9.17-16.76-10.28-21.67-1.12-4.92-1.56-14.76-1.35-16.09,.23-1.35,4.92-.23,6.71,1.78,.75,.84,.09-5.03-.97-12.73-.04-.27-.07-.54-.11-.81-1.49-10.61-3.67-24.26-4.06-28.7-.59-6.93,4.25-39.26,5.99-47.5,.22-1.07,.4-1.73,.5-1.89,.89-1.35-1.12-6.49-1.12-7.82s9.61,10.72,21.01,22.79c3.79,3.99,7.75,9.81,11.38,15.8,7.31,12.09,13.2,24.88,13.2,24.88,0,0,23.85-12.71,57.44,0,0,0,5.89-12.79,13.2-24.88,3.63-5.99,7.59-11.81,11.38-15.8C198.05,10.83,207.65-1.24,207.65,.1s-2,6.48-1.12,7.82c.1,.16,.28,.81,.5,1.89,1.74,8.24,6.58,40.57,5.99,47.5-.4,4.56-2.68,18.81-4.17,29.52-1.06,7.7-1.72,13.57-.97,12.73,1.78-2.01,6.48-3.13,6.71-1.78,.22,1.34-.23,11.17-1.35,16.09Z"/>
              <path class="cls-13" d="M196.46,163.54c-6.89,6.04-17.79,13.41-24.34,18.05-9.16,6.48-19.66,23.69-24.14,30.39-4.47,6.71-9.61,4.46-9.61,4.46h-10.07s-5.13,2.24-9.61-4.46c-4.47-6.71-14.98-23.92-24.14-30.39-9.17-6.49-26.83-18.34-30.17-24.37-3.36-6.04-8.27-23.25-8.27-23.25,0,0,5.59,.23,7.6,1.56,2,1.35-9.17-16.76-10.28-21.67-1.12-4.92-1.56-14.76-1.35-16.09,.23-1.35,4.92-.23,6.71,1.78,.75,.84,.09-5.03-.97-12.73-.04-.27-.07-.54-.11-.81,16.88,33.44,57.02,86.91,138.74,77.52Z"/>
              <path class="cls-1" d="M91.42,38.7c-14.31,5.4-33.21,47.28-33.59,48.14-1.49-10.71-3.78-24.96-4.17-29.52-.67-7.82,5.59-48.05,6.49-49.39,.89-1.35-1.12-6.49-1.12-7.82s9.61,10.72,21.01,22.79c3.79,3.99,7.75,9.81,11.38,15.8Z"/>
              <path class="cls-5" d="M69.09,86.83s-9.17,15.85-10.28,12.73c.75,.84,.09-5.03-.97-12.73-1.49-10.71-3.78-24.96-4.17-29.52-.59-6.93,4.25-39.26,5.99-47.5,1.54,3.53,3.17,7.47,3.4,8.83,.45,2.68-.67,51.18,11.4,62.36l-7.37-1.79s-.67,4.94,2.01,7.61Z"/>
              <path class="cls-1" d="M175.27,38.7c14.31,5.4,33.21,47.28,33.59,48.14,1.49-10.71,3.78-24.96,4.17-29.52,.67-7.82-5.59-48.05-6.49-49.39-.89-1.35,1.12-6.49,1.12-7.82s-9.61,10.72-21.01,22.79c-3.79,3.99-7.75,9.81-11.38,15.8Z"/>
              <path class="cls-5" d="M197.6,86.83s9.17,15.85,10.28,12.73c-.75,.84-.09-5.03,.97-12.73,1.49-10.71,3.78-24.96,4.17-29.52,.59-6.93-4.25-39.26-5.99-47.5-1.54,3.53-3.17,7.47-3.4,8.83-.45,2.68,.67,51.18-11.4,62.36l7.37-1.79s.67,4.94-2.01,7.61Z"/>
              <g>
                <path class="cls-5" d="M133.81,206.51c-20.09,0-10.55-24.06-23.47-29-5.7-2.18-9.39,3.35-6.37,5.7,3.02,2.35,11.73,3.52,13.08,7.54s2.18,10.9,4.69,13.24c2.51,2.35,12.07,2.51,12.07,2.51Z"/>
                <path class="cls-5" d="M122.59,192.03s5.79-4.08,10.26-4.08,10.52,4.08,10.52,4.08c0,0-1.71,13.68-10.39,13.68s-10.39-13.68-10.39-13.68Z"/>
                <path class="cls-5" d="M132.87,206.51c20.09,0,10.55-24.06,23.47-29,5.7-2.18,9.39,3.35,6.37,5.7-3.02,2.35-11.73,3.52-13.08,7.54s-2.18,10.9-4.69,13.24c-2.51,2.35-12.07,2.51-12.07,2.51Z"/>
                <g>
                  <g>
                    <path class="cls-15" d="M74.44,129.37s8.27,18.1,17.66,20.34c9.39,2.24,14.53,2.24,18.1,6.26,3.58,4.02,4.47,9.16,4.47,9.16,0,0-15.42-9.16-23.02-8.27-7.6,.89-15.42-15.87-17.21-27.49Z"/>
                    <path class="cls-1" d="M98.45,138.31s-8.7-.56-12.84-3.58c-4.13-3.02-10.2-13.19-10.2-19.67s15.87-5.03,23.04,0c7.17,5.03,9.63,25.03,9.63,25.03l-9.63-1.79Z"/>
                    <path class="cls-15" d="M108.78,93.61c-1.91-2.45-4.12-4.79-6.98-6.01-2.85-1.22-6.47-1.08-8.74,1.04-2.96,2.76-2.53,7.78-.32,11.17,2.21,3.39,5.74,5.65,8.92,8.16,7.77,6.1,12.31,13.59,17.25,21.9,1.66-1.3,.71-6.9,.54-8.88-.29-3.3-.89-6.57-1.79-9.75-1.8-6.37-4.8-12.4-8.87-17.63Z"/>
                    <path class="cls-5" d="M114.67,143.45c-2.91-3.58-.48-7.82-11.3-14.98-10.82-7.15-21.77-6.26-21.1-5.14,.67,1.12,3.07,13.41,10.81,15.87,7.74,2.46,21.6,4.25,21.6,4.25Z"/>
                  </g>
                  <g>
                    <path class="cls-15" d="M189.45,129.29s-8.27,18.1-17.66,20.34c-9.39,2.24-14.53,2.24-18.1,6.26-3.58,4.02-4.47,9.16-4.47,9.16,0,0,15.42-9.16,23.02-8.27s15.42-15.87,17.21-27.49Z"/>
                    <path class="cls-1" d="M189.53,147.93s-5.36,11.72-11.43,13.17-9.41,1.45-11.72,4.05c-2.32,2.61-2.89,5.93-2.89,5.93,0,0,9.99-5.93,14.91-5.36,4.92,.58,9.99-10.28,11.14-17.8Z"/>
                    <path class="cls-1" d="M75.41,147.93s5.35,11.72,11.43,13.17,9.41,1.45,11.72,4.05,2.89,5.93,2.89,5.93c0,0-9.99-5.93-14.91-5.36-4.92,.58-9.99-10.28-11.14-17.8Z"/>
                    <path class="cls-1" d="M165.44,138.23s8.7-.56,12.84-3.58c4.13-3.02,10.2-13.19,10.2-19.67s-15.87-5.03-23.04,0-9.63,25.03-9.63,25.03l9.63-1.79Z"/>
                    <path class="cls-15" d="M155.11,93.52c1.91-2.45,4.12-4.79,6.98-6.01,2.85-1.22,6.47-1.08,8.74,1.04,2.96,2.76,2.53,7.78,.32,11.17-2.21,3.39-5.74,5.65-8.92,8.16-7.77,6.1-12.31,13.59-17.25,21.9-1.66-1.3-.71-6.9-.54-8.88,.29-3.3,.89-6.57,1.79-9.75,1.8-6.37,4.8-12.4,8.87-17.63Z"/>
                    <path class="cls-5" d="M149.22,143.37c2.91-3.58,.48-7.82,11.3-14.98,10.82-7.15,21.77-6.26,21.1-5.14-.67,1.12-3.07,13.41-10.81,15.87-7.74,2.46-21.6,4.25-21.6,4.25Z"/>
                  </g>
                </g>
                <path class="cls-1" d="M131.22,125.42c0,2.53-7.82,19.74-7.38,30.91,.45,11.18,7.38,20.68,7.38,20.68,0,0,7.6-12.41,7.6-20.46s-7.6-31.13-7.6-31.13Z"/>
                <path class="cls-1" d="M131.26,86.6c0,1.31-5.17,10.23-4.88,16.02,.3,5.79,4.88,10.71,4.88,10.71,0,0,5.02-6.43,5.02-10.6s-5.02-16.13-5.02-16.13Z"/>
              </g>
            </g>
            <path class="cls-6" d="M58.13,227.14c-3.04-.05-6.07-.1-9.11-.16,.67-1.22,1.34-2.44,2-3.67-1.06,1.16-2.5,2.01-4.03,2.44-2.59,.72-5.37,.4-7.97-.27-1.08-.28-2.16-.62-3.2-1.01,.59-.3,19.67-10.11,22.31-27.64,0,0,3.19,17.28-.01,30.31Z"/>
            <path class="cls-6" d="M206.9,227.14c3.04-.05,6.07-.1,9.11-.16-.67-1.22-1.34-2.44-2-3.67,1.06,1.16,2.5,2.01,4.03,2.44,2.59,.72,5.37,.4,7.97-.27,1.08-.28,2.16-.62,3.2-1.01-.59-.3-19.67-10.11-22.31-27.64,0,0-3.19,17.28,.01,30.31Z"/>
          </g>
          <g>
            <g>
              <path class="cls-10" d="M21.23,153.57c0,2.22-1.8,4.02-4.02,4.02s-4.02-1.8-4.02-4.02,1.8-4.02,4.02-4.02,4.02,1.8,4.02,4.02Z"/>
              <path class="cls-10" d="M33.67,173.37c0,1.12-.91,2.03-2.03,2.03s-2.03-.91-2.03-2.03,.91-2.03,2.03-2.03,2.03,.91,2.03,2.03Z"/>
            </g>
            <g>
              <circle class="cls-10" cx="251.14" cy="146.53" r="4.02"/>
              <circle class="cls-10" cx="126.62" cy="43.24" r="4.02"/>
              <path class="cls-10" d="M146.15,17.55c0,.78,.64,1.42,1.42,1.42s1.42-.64,1.42-1.42-.64-1.42-1.42-1.42-1.42,.64-1.42,1.42Z"/>
              <path class="cls-10" d="M232.7,164.96c0,1.12,.91,2.03,2.03,2.03s2.03-.91,2.03-2.03-.91-2.03-2.03-2.03-2.03,.91-2.03,2.03Z"/>
            </g>
          </g>
        </g>
      </g>
    </g>
  </g>
</svg>