<?xml version="1.0" encoding="UTF-8"?>
<svg id="Layer_2" data-name="Layer 2" xmlns="http://www.w3.org/2000/svg" viewBox="0 0 40 44.08">
  <defs>
    <style>
      .cls-1 {
        fill: #8d6c9f;
      }

      .cls-2 {
        fill: #f6d397;
      }

      .cls-3 {
        fill: #f9e3ae;
      }

      .cls-4 {
        fill: #d40202;
        stroke: #8d6c9f;
        stroke-miterlimit: 10;
      }

      .cls-5 {
        fill: #f9efdf;
      }

      .cls-6 {
        fill: #c2cde7;
      }
    </style>
  </defs>
  <g id="Layer_1-2" data-name="Layer 1">
    <g>
      <path class="cls-6" d="M20,34.22c-.6,0-1.19,.12-1.75,.35-.55,.23-1.06,.57-1.48,.99-.42,.42-.76,.93-.99,1.48-.23,.55-.35,1.15-.35,1.75s.12,1.19,.35,1.75c.23,.55,.57,1.06,.99,1.48,.42,.42,.93,.76,1.48,.99,.55,.23,1.15,.35,1.75,.35s1.19-.12,1.75-.35c.55-.23,1.06-.57,1.48-.99,.42-.42,.76-.93,.99-1.48,.23-.55,.35-1.15,.35-1.75s-.12-1.19-.35-1.75c-.23-.55-.57-1.06-.99-1.48-.42-.42-.93-.76-1.48-.99-.55-.23-1.15-.35-1.75-.35Z"/>
      <path class="cls-3" d="M38.94,38.09c-.07,.13-.17,.23-.29,.3-.12,.07-.26,.11-.41,.11H1.72c-.15,0-.29-.03-.42-.1-.13-.07-.23-.18-.3-.31-.07-.13-.09-.28-.08-.42,.02-.15,.07-.28,.17-.4l3.37-5.06,.9-1.57c.38-.8,.64-1.65,.76-2.53l1.68-13.62c.31-2.46,1.51-4.73,3.37-6.38,1.86-1.64,4.26-2.55,6.74-2.56h4.14c2.48,0,4.88,.91,6.74,2.56,1.86,1.64,3.06,3.91,3.37,6.38l1.71,13.63c.17,1.33,.64,2.6,1.39,3.72l3.62,5.42c.09,.12,.14,.26,.14,.41,0,.15-.03,.29-.1,.42Z"/>
      <path class="cls-5" d="M29.77,9.08c-.96-1.11-2.14-1.99-3.47-2.6-1.33-.61-2.77-.92-4.23-.93h-4.14c-1.46,0-2.9,.32-4.23,.93-1.33,.61-2.51,1.5-3.47,2.6H29.77Z"/>
      <path class="cls-2" d="M37.64,38.79H2.36c-.28,0-.55-.08-.79-.22-.24-.14-.43-.35-.56-.6-.13-.25-.19-.53-.17-.8,.02-.28,.11-.55,.27-.77l3.66-5.22h30.46l3.66,5.22c.16,.23,.26,.5,.27,.77,.02,.28-.04,.56-.17,.8-.13,.25-.32,.45-.56,.6-.24,.14-.51,.22-.79,.22Z"/>
      <path class="cls-1" d="M39.62,36l-3.52-5.28c-.59-.89-.97-1.9-1.1-2.95l-1.66-13.24c-.3-2.35-1.31-4.55-2.91-6.29-1.6-1.75-3.7-2.95-6.02-3.45l-1.02-2.05c-.19-.38-.48-.7-.84-.92-.36-.22-.78-.34-1.2-.34h-2.68c-.42,0-.84,.12-1.2,.34-.36,.22-.65,.54-.84,.92l-1.03,2.05c-2.31,.5-4.42,1.7-6.02,3.45-1.6,1.75-2.62,3.94-2.91,6.29l-1.66,13.24c-.13,1.06-.51,2.07-1.1,2.95L.38,36c-.23,.34-.36,.74-.38,1.16s.07,.82,.27,1.19c.2,.36,.49,.67,.84,.88,.35,.21,.76,.32,1.17,.32H14.73c.19,1.26,.83,2.41,1.8,3.24,.97,.83,2.2,1.29,3.47,1.29s2.51-.46,3.47-1.29c.97-.83,1.6-1.98,1.8-3.24h12.44c.41,0,.82-.11,1.17-.32s.65-.52,.84-.88c.2-.36,.29-.77,.27-1.19-.02-.41-.15-.81-.38-1.16ZM17.97,3.41c.06-.13,.16-.23,.28-.31s.26-.11,.4-.11h2.69c.14,0,.28,.04,.4,.11,.12,.07,.22,.18,.28,.31l.56,1.1h-5.18l.56-1.1Zm2.03,39.18c-.88,0-1.73-.3-2.41-.86-.68-.56-1.15-1.33-1.32-2.19h7.46c-.18,.86-.64,1.63-1.32,2.19-.68,.56-1.53,.86-2.41,.86Zm18.38-4.97c-.06,.12-.16,.22-.28,.29-.12,.07-.25,.11-.39,.11H2.29c-.14,0-.27-.04-.39-.11-.12-.07-.21-.17-.28-.29-.06-.12-.1-.26-.09-.39,0-.14,.05-.27,.12-.38l3.27-4.91H26.24c.2,0,.4-.08,.54-.22,.14-.14,.22-.34,.22-.54s-.08-.4-.22-.54c-.14-.14-.34-.22-.54-.22H5.8c.36-.78,.6-1.6,.72-2.45l1.65-13.24c.3-2.39,1.46-4.6,3.27-6.2,1.81-1.6,4.14-2.48,6.55-2.48h4.02c2.41,0,4.74,.88,6.55,2.48,1.81,1.6,2.97,3.8,3.27,6.2l1.65,13.24c.16,1.29,.62,2.53,1.34,3.61l3.52,5.28c.08,.11,.12,.25,.13,.38s-.02,.27-.09,.39Z"/>
      <path class="cls-1" d="M28.07,15.94h.07c.2-.02,.39-.11,.52-.27,.13-.15,.19-.35,.18-.55-.07-.83-.28-1.65-.62-2.41-.04-.1-.09-.19-.17-.26s-.16-.13-.26-.17c-.1-.04-.2-.06-.3-.06-.1,0-.21,.02-.3,.07-.09,.04-.18,.1-.25,.18-.07,.08-.12,.17-.16,.27-.03,.1-.05,.2-.04,.31,0,.1,.04,.2,.09,.3,.27,.61,.44,1.26,.5,1.92,.02,.19,.1,.36,.24,.49,.14,.13,.32,.2,.51,.2Zm-6.64-7.62c-.2,0-.4,.08-.54,.22-.14,.14-.22,.34-.22,.54s.08,.4,.22,.54c.14,.14,.34,.22,.54,.22,1.37,0,2.7,.48,3.76,1.36,.08,.06,.17,.11,.26,.14,.1,.03,.2,.04,.3,.03,.1,0,.2-.04,.29-.08,.09-.05,.17-.11,.23-.19,.06-.08,.11-.17,.14-.26,.03-.1,.04-.2,.03-.3,0-.1-.04-.2-.08-.29-.05-.09-.11-.17-.19-.23-1.33-1.1-3.01-1.71-4.74-1.71Zm10.88,22.09h-3.24c-.2,0-.4,.08-.54,.22-.14,.14-.22,.34-.22,.54s.08,.4,.22,.54c.14,.14,.34,.22,.54,.22h3.24c.2,0,.4-.08,.54-.22,.14-.14,.22-.34,.22-.54s-.08-.4-.22-.54c-.14-.14-.34-.22-.54-.22Zm-23.74,3.05c-.2,0-.4,.08-.54,.22-.14,.14-.22,.34-.22,.54v1.52c0,.2,.08,.4,.22,.54,.14,.14,.34,.22,.54,.22s.4-.08,.54-.22c.14-.14,.22-.34,.22-.54v-1.52c0-.2-.08-.4-.22-.54-.14-.14-.34-.22-.54-.22Zm-3.81,0c-.2,0-.4,.08-.54,.22-.14,.14-.22,.34-.22,.54v1.52c0,.2,.08,.4,.22,.54,.14,.14,.34,.22,.54,.22s.4-.08,.54-.22c.14-.14,.22-.34,.22-.54v-1.52c0-.2-.08-.4-.22-.54-.14-.14-.34-.22-.54-.22Zm7.62,0c-.2,0-.4,.08-.54,.22-.14,.14-.22,.34-.22,.54v1.52c0,.2,.08,.4,.22,.54,.14,.14,.34,.22,.54,.22s.4-.08,.54-.22c.14-.14,.22-.34,.22-.54v-1.52c0-.2-.08-.4-.22-.54-.14-.14-.34-.22-.54-.22Zm3.81,0c-.2,0-.4,.08-.54,.22-.14,.14-.22,.34-.22,.54v1.52c0,.2,.08,.4,.22,.54,.14,.14,.34,.22,.54,.22s.4-.08,.54-.22c.14-.14,.22-.34,.22-.54v-1.52c0-.2-.08-.4-.22-.54-.14-.14-.34-.22-.54-.22Zm3.81,0c-.2,0-.4,.08-.54,.22-.14,.14-.22,.34-.22,.54v1.52c0,.2,.08,.4,.22,.54,.14,.14,.34,.22,.54,.22s.4-.08,.54-.22c.14-.14,.22-.34,.22-.54v-1.52c0-.2-.08-.4-.22-.54-.14-.14-.34-.22-.54-.22Zm3.81,0c-.2,0-.4,.08-.54,.22-.14,.14-.22,.34-.22,.54v1.52c0,.2,.08,.4,.22,.54,.14,.14,.34,.22,.54,.22s.4-.08,.54-.22c.14-.14,.22-.34,.22-.54v-1.52c0-.2-.08-.4-.22-.54-.14-.14-.34-.22-.54-.22Zm3.81,0c-.2,0-.4,.08-.54,.22-.14,.14-.22,.34-.22,.54v1.52c0,.2,.08,.4,.22,.54,.14,.14,.34,.22,.54,.22s.4-.08,.54-.22c.14-.14,.22-.34,.22-.54v-1.52c0-.2-.08-.4-.22-.54-.14-.14-.34-.22-.54-.22Zm3.81,0c-.2,0-.4,.08-.54,.22-.14,.14-.22,.34-.22,.54v1.52c0,.2,.08,.4,.22,.54,.14,.14,.34,.22,.54,.22s.4-.08,.54-.22c.14-.14,.22-.34,.22-.54v-1.52c0-.2-.08-.4-.22-.54-.14-.14-.34-.22-.54-.22Zm3.81,0c-.2,0-.4,.08-.54,.22-.14,.14-.22,.34-.22,.54v1.52c0,.2,.08,.4,.22,.54,.14,.14,.34,.22,.54,.22s.4-.08,.54-.22c.14-.14,.22-.34,.22-.54v-1.52c0-.2-.08-.4-.22-.54-.14-.14-.34-.22-.54-.22Z"/>
      <circle class="cls-4" cx="33.08" cy="6.59" r="6.09"/>
    </g>
  </g>
</svg>