<?xml version="1.0" encoding="utf-8"?>
<!-- Generator: Adobe Illustrator 27.0.1, SVG Export Plug-In . SVG Version: 6.00 Build 0)  -->
<svg version="1.1" id="Layer_1" width="32" height="32" viewBox="0 0 32 32" fill="none" xmlns="http://www.w3.org/2000/svg" xmlns:xlink="http://www.w3.org/1999/xlink" x="0px" y="0px"
	 style="enable-background:new 0 0 32 32;" xml:space="preserve">
<style type="text/css">
	.st0{fill:#4D5566;}
	.st1{fill:#FFFFFF;}
</style>
<path class="st0" d="M22.7,2.7H9c-3.6,0-6.5,2.9-6.5,6.5v13.7c0,3.6,2.9,6.5,6.5,6.5h13.7c3.6,0,6.5-2.9,6.5-6.5V9.1
	C29.2,5.6,26.3,2.7,22.7,2.7z M21,21.1c0,0.6-0.5,1-1,1c-0.6,0-1-0.4-1-1V18c0-0.8-0.2-1-0.3-1.1c-0.2-0.1-0.4-0.2-0.8-0.3
	c-0.3,0-0.6,0.1-0.7,0.3c-0.1,0.1-0.3,0.3-0.3,1.1v3.1c0,0.6-0.4,1-1,1c-0.5,0-1-0.4-1-1V18c0-1.2,0.3-2,1-2.6
	c0.5-0.5,1.2-0.7,2.1-0.8c0.9,0,1.6,0.3,2.1,0.8c0.7,0.6,1,1.4,1,2.6V21.1z"/>
<rect x="6.2" y="5.6" class="st1" width="19.6" height="20.8"/>
<g id="Layer_1-2">
	<path class="st0" d="M16,9.4c-3.7,0-6.8,3-6.8,6.8c0,1.3,0.4,2.5,1,3.6l0.2,0.3l-0.7,2.5l2.6-0.7l0.2,0.1c1,0.6,2.2,0.9,3.5,0.9h0
		c2,0,4-0.8,5.2-2.4c2.6-3.2,1.9-6.9-0.4-9.2C19.5,10.1,17.8,9.4,16,9.4C16,9.4,16,9.4,16,9.4z M20,19.1c-0.2,0.5-1,0.9-1.4,1
		c-0.6,0.1-1.2,0-2.4-0.5c-2-0.9-3.4-2.9-3.5-3.1c-0.1-0.1-0.8-1.1-0.8-2.1s0.5-1.5,0.7-1.7c0.2-0.2,0.4-0.3,0.5-0.3s0.3,0,0.4,0
		c0.1,0,0.3,0,0.5,0.4c0.2,0.4,0.6,1.4,0.6,1.5c0.1,0.1,0.1,0.2,0,0.4c-0.4,0.8-0.8,0.8-0.6,1.1c0.8,1.4,1.6,1.8,2.8,2.4
		c0.2,0.1,0.3,0.1,0.4-0.1c0.1-0.1,0.5-0.6,0.6-0.8c0.1-0.2,0.3-0.2,0.5-0.1c0.2,0.1,1.2,0.6,1.4,0.7c0.2,0.1,0.3,0.2,0.4,0.2
		C20.2,18.2,20.2,18.6,20,19.1z M25.1,4.7H6.9c-1.4,0-2.5,1.1-2.5,2.5v18.1c0,1.4,1.1,2.5,2.5,2.5h18.1c1.4,0,2.5-1.1,2.5-2.5V7.1
		C27.5,5.8,26.4,4.7,25.1,4.7z M16,24.3c-1.4,0-2.7-0.3-3.9-1l-4.3,1.1l1.2-4.2c-1.1-2-1.4-4.3-0.7-6.6c0.9-2.9,3.4-5,6.4-5.5
		c2.7-0.4,5.3,0.4,7.2,2.3c1.5,1.5,2.5,3.6,2.5,5.8C24.2,20.6,20.5,24.3,16,24.3C16,24.3,16,24.3,16,24.3z"/>
</g>
</svg>
